<?xml version="1.0" encoding="UTF-8" standalone="no"?>
<svg width="332px" height="115px" viewBox="0 0 332 115" version="1.1" xmlns="http://www.w3.org/2000/svg" xmlns:xlink="http://www.w3.org/1999/xlink" xmlns:sketch="http://www.bohemiancoding.com/sketch/ns">
    <!-- Generator: Sketch 3.2.2 (9983) - http://www.bohemiancoding.com/sketch -->
    <title>is-secure_maybe_is-moto_maybe</title>
    <desc>Created with Sketch.</desc>
    <defs></defs>
    <g id="Page-1" stroke="none" stroke-width="1" fill="none" fill-rule="evenodd" sketch:type="MSPage">
        <g id="Artboard-2" sketch:type="MSArtboardGroup" transform="translate(-1510.000000, -23.000000)" fill="#FFFFFF">
            <g id="ufo" sketch:type="MSLayerGroup" transform="translate(1649.000000, 57.000000)">
                <g id="Group" sketch:type="MSShapeGroup">
                    <path d="M40.181,12.347 C40.185,9.375 39.078,6.545 36.993,4.309 C34.589,1.731 31.135,0.253 27.518,0.253 C23.902,0.253 20.45,1.731 18.046,4.307 C15.959,6.543 14.851,9.373 14.856,12.347 C10.152,13.054 0.775,14.995 0.775,19.243 C0.775,21.812 3.702,23.809 9.475,25.18 C14.244,26.312 20.652,26.936 27.518,26.936 C37.451,26.936 54.261,25.316 54.261,19.243 C54.26,14.992 44.888,13.053 40.181,12.347 L40.181,12.347 Z M19.142,5.33 C21.264,3.057 24.316,1.753 27.517,1.753 C30.72,1.753 33.773,3.058 35.895,5.333 C37.782,7.355 38.765,9.927 38.69,12.617 C36.396,13.651 32.094,14.309 27.517,14.309 C22.94,14.309 18.639,13.651 16.344,12.617 C16.27,9.925 17.254,7.353 19.142,5.33 L19.142,5.33 Z M27.517,25.436 C13.126,25.436 2.274,22.774 2.274,19.243 C2.274,17.52 6.373,15.098 15.341,13.794 C17.771,15.037 22.419,15.809 27.517,15.809 C32.615,15.809 37.265,15.038 39.692,13.795 C48.66,15.097 52.759,17.519 52.759,19.244 C52.76,22.773 41.907,25.436 27.517,25.436 L27.517,25.436 Z" id="Shape"></path>
                    <path d="M34.721,31.304 C34.617,30.902 34.203,30.664 33.808,30.764 C33.407,30.867 33.165,31.276 33.268,31.677 L38.622,52.558 C38.709,52.897 39.014,53.121 39.348,53.121 C39.41,53.121 39.473,53.113 39.536,53.098 C39.937,52.995 40.179,52.586 40.076,52.185 L34.721,31.304 L34.721,31.304 Z" id="Shape"></path>
                    <path d="M21.187,30.764 C20.783,30.664 20.377,30.903 20.274,31.304 L14.923,52.175 C14.82,52.576 15.062,52.986 15.464,53.088 C15.526,53.104 15.589,53.111 15.651,53.111 C15.985,53.111 16.29,52.886 16.377,52.548 L21.728,31.677 C21.831,31.275 21.588,30.866 21.187,30.764 L21.187,30.764 Z" id="Shape"></path>
                    <path d="M26.99,19.84 C26.85,19.98 26.77,20.17 26.77,20.37 C26.77,20.57 26.85,20.76 26.99,20.9 C27.13,21.04 27.32,21.12 27.52,21.12 C27.71,21.12 27.9,21.04 28.05,20.9 C28.19,20.76 28.27,20.57 28.27,20.37 C28.27,20.17 28.19,19.98 28.05,19.84 C27.76,19.56 27.26,19.56 26.99,19.84 L26.99,19.84 Z" id="Shape"></path>
                    <path d="M19.25,19.6 C19.11,19.74 19.03,19.93 19.03,20.13 C19.03,20.33 19.11,20.52 19.25,20.66 C19.39,20.8 19.59,20.88 19.78,20.88 C19.98,20.88 20.17,20.8 20.31,20.66 C20.45,20.52 20.53,20.33 20.53,20.13 C20.53,19.93 20.45,19.74 20.31,19.6 C20.04,19.32 19.53,19.32 19.25,19.6 L19.25,19.6 Z" id="Shape"></path>
                    <path d="M11.52,18.48 C11.38,18.61 11.3,18.81 11.3,19.01 C11.3,19.2 11.38,19.4 11.52,19.54 C11.66,19.68 11.85,19.76 12.05,19.76 C12.24,19.76 12.44,19.68 12.58,19.54 C12.72,19.4 12.8,19.2 12.8,19.01 C12.8,18.81 12.72,18.62 12.58,18.48 C12.3,18.2 11.8,18.2 11.52,18.48 L11.52,18.48 Z" id="Shape"></path>
                    <path d="M34.72,19.6 C34.58,19.74 34.5,19.93 34.5,20.13 C34.5,20.33 34.58,20.52 34.72,20.66 C34.86,20.8 35.05,20.88 35.25,20.88 C35.439,20.88 35.64,20.8 35.78,20.66 C35.92,20.52 36,20.33 36,20.13 C36,19.93 35.92,19.74 35.78,19.6 C35.49,19.32 34.99,19.32 34.72,19.6 L34.72,19.6 Z" id="Shape"></path>
                    <path d="M42.45,18.48 C42.309,18.62 42.229,18.81 42.229,19.01 C42.229,19.2 42.309,19.4 42.45,19.54 C42.59,19.68 42.79,19.76 42.979,19.76 C43.179,19.76 43.37,19.68 43.519,19.54 C43.66,19.4 43.729,19.2 43.729,19.01 C43.729,18.81 43.66,18.62 43.509,18.47 C43.229,18.2 42.729,18.2 42.45,18.48 L42.45,18.48 Z" id="Shape"></path>
                    <path d="M27.517,30.74 C27.103,30.74 26.767,31.076 26.767,31.49 L26.767,53.527 C26.767,53.941 27.103,54.277 27.517,54.277 C27.931,54.277 28.267,53.941 28.267,53.527 L28.267,31.49 C28.268,31.076 27.931,30.74 27.517,30.74 L27.517,30.74 Z" id="Shape"></path>
                </g>
            </g>
        </g>
    </g>
</svg>