<?xml version="1.0" encoding="UTF-8" standalone="no"?>
<svg width="113px" height="146px" viewBox="0 0 113 146" version="1.1" xmlns="http://www.w3.org/2000/svg" xmlns:xlink="http://www.w3.org/1999/xlink" xmlns:sketch="http://www.bohemiancoding.com/sketch/ns">
    <!-- Generator: Sketch 3.2.2 (9983) - http://www.bohemiancoding.com/sketch -->
    <title>mot-maybe</title>
    <desc>Created with Sketch.</desc>
    <defs></defs>
    <g id="Page-1" stroke="none" stroke-width="1" fill="none" fill-rule="evenodd" sketch:type="MSPage">
        <g id="mot-maybe" sketch:type="MSLayerGroup" transform="translate(0.000000, -57.000000)" fill="#FFFFFF">
            <path d="M35.4497354,144.323395 C35.4871668,144.022675 35.1095492,144.323395 35.4497354,144.323395 Z M35.1851852,143.943459 C35.4992726,143.907621 35.1851852,144.269167 35.1851852,143.943459 Z M17.1957672,181.177223 L17.1957672,177.757796 L17.1957672,173.198559 L17.1957672,172.185396 L17.1957672,170.792295 L17.1957672,168.386032 L17.1957672,161.673823 L17.1957672,158.12775 L17.1957672,154.201741 L17.1957672,150.022441 L17.1957672,145.969786 L17.1957672,144.703332 L17.1957672,143.310231 L17.1957672,142.170422 L17.1957672,141.41055 L14.1534392,141.41055 L14.021164,147.616177 L14.021164,151.035604 L14.021164,158.001104 L14.021164,177.377859 L14.021164,177.504505 L14.021164,179.277541 L14.021164,180.41735 L14.1534392,181.937096 L15.3439153,181.937096 L17.1957672,181.937096 L17.1957672,181.177223 Z M15.2116402,180.164059 C14.8975528,180.128221 15.2116402,180.489767 15.2116402,180.164059 L15.2116402,180.164059 Z M15.2116402,141.917131 C15.2490716,141.616412 14.871454,141.917131 15.2116402,141.917131 L15.2116402,141.917131 Z M14.9470899,181.557159 C14.8453644,181.457488 14.4673905,181.327518 14.9470899,181.557159 L14.9470899,181.557159 Z M14.9470899,143.436877 C14.6330025,143.401039 14.9470899,143.762585 14.9470899,143.436877 L14.9470899,143.436877 Z M14.4179894,178.897605 C14.7320769,178.861766 14.4179894,179.223312 14.4179894,178.897605 L14.4179894,178.897605 Z M14.8148148,174.465014 C15.1289023,174.429175 14.8148148,174.790722 14.8148148,174.465014 L14.8148148,174.465014 Z M15.8730159,180.543996 C15.5589284,180.508157 15.8730159,180.869703 15.8730159,180.543996 Z M22.4867725,144.450041 C21.6436838,144.989958 20.9076095,146.065263 20.6349206,147.109595 L20.6349206,148.37605 L20.7671958,148.37605 C20.8411548,150.317709 22.3999843,151.648058 24.0740741,152.048768 C24.753843,152.071457 24.9066618,152.162987 25.2645503,152.048768 C29.0154354,151.992587 29.9829212,148.166042 28.4391534,145.209913 C27.8914706,144.161167 26.122265,144.100773 25.2645503,143.690168 C23.9804611,143.53897 23.3048064,144.188968 22.4867725,144.450041 Z M26.4550265,151.542186 C26.7691139,151.506348 26.4550265,151.867894 26.4550265,151.542186 L26.4550265,151.542186 Z M18.2539683,142.80365 L18.2539683,143.690168 L18.2539683,147.109595 L18.2539683,147.996113 L18.3862434,154.455032 L28.3068783,154.455032 L31.7460317,154.201741 L31.7460317,153.188577 L31.7460317,151.035604 L31.7460317,146.096432 L31.7460317,144.070104 L31.7460317,141.41055 L26.4550265,141.41055 L19.3121693,141.41055 L18.2539683,142.80365 Z M25.1322751,142.930295 C28.012353,142.982124 29.7041473,144.735425 30.2910053,146.98295 C30.343647,150.02118 29.0277524,152.071994 26.7195767,152.808641 C23.4487439,153.183353 20.7683213,152.305292 19.7089947,149.262568 C19.6926999,148.428333 19.5199977,147.724793 19.7089947,147.362886 C19.8204672,145.889054 20.7139627,144.348879 21.8253968,143.816813 C22.6566962,143.369166 24.0210714,142.664317 25.1322751,142.930295 Z M26.7195767,153.821804 C27.0336642,153.785966 26.7195767,154.147512 26.7195767,153.821804 L26.7195767,153.821804 Z M26.4550265,154.075095 C26.4175951,153.774376 26.7952127,154.075095 26.4550265,154.075095 L26.4550265,154.075095 Z M26.0582011,153.94845 C26.3722885,153.912612 26.0582011,154.274158 26.0582011,153.94845 L26.0582011,153.94845 Z M27.2486772,153.568513 C26.9345898,153.532675 27.2486772,153.894221 27.2486772,153.568513 L27.2486772,153.568513 Z M25.1322751,153.568513 C25.4463626,153.532675 25.1322751,153.894221 25.1322751,153.568513 L25.1322751,153.568513 Z M20.2380952,137.737831 L21.2962963,137.737831 L21.2962963,137.864477 L24.7354497,137.864477 L29.1005291,137.864477 L29.1005291,137.737831 C29.1005291,137.737831 34.7541563,135.181448 38.3597884,134.318404 C38.9160517,134.384339 39.4141873,134.191759 39.5502646,134.191759 L40.3439153,134.191759 C40.4410829,131.690336 41.6480505,133.90282 41.7989418,134.191759 C43.7956484,134.46123 45.6349206,134.191759 45.6349206,134.191759 L47.3544974,134.191759 L50,134.318404 L49.7354497,135.964795 L50,136.724668 L46.5608466,136.724668 L43.6507937,136.851313 L42.5925926,136.851313 L42.5925926,136.724668 C41.9130735,136.796114 41.9141957,136.669493 41.5343915,136.851313 C41.8148443,137.848251 40.7215499,138.334311 40.3439153,137.611186 L40.3439153,136.851313 C38.7389246,136.869129 39.0109804,136.792866 38.3597884,137.104604 C34.7498814,137.749133 32.9345725,139.764529 29.6296296,140.397386 L20.6349206,140.397386 L20.6349206,140.270741 C19.1888857,140.20508 18.2194047,139.874258 17.1957672,139.384222 C17.0342408,139.306896 16.5482568,138.637625 16.6666667,138.750995 C16.988157,139.058803 15.9033362,138.638865 15.3439153,138.371059 C14.5303995,137.981613 13.5504397,137.512486 12.6984127,137.104604 C12.2003922,137.204384 11.5405641,136.908219 11.2433862,136.851313 C10.5192496,136.782384 10.1400184,136.758646 9.65608466,136.851313 C8.86894763,139.533242 8.44817296,136.862108 8.33333333,136.724668 C8.23280549,136.604356 5.95238095,136.724668 5.95238095,136.724668 L0,136.724668 L6.74340301e-10,134.191759 L0.661375662,134.191759 L2.38095238,134.191759 L5.42328042,134.191759 C5.42328042,134.191759 7.38743727,134.397586 8.33333333,134.191759 C8.63735584,134.125603 8.32617823,133.572233 8.46560847,133.30524 C8.9027683,132.468132 9.65608466,133.549999 9.65608466,134.191759 L10.5820106,134.191759 L10.5820106,134.318404 L11.9047619,134.318404 C15.2761638,134.83797 20.2380952,137.737831 20.2380952,137.737831 Z M35.0529101,136.977959 C35.0154787,136.677239 35.3930963,136.977959 35.0529101,136.977959 L35.0529101,136.977959 Z M43.1216931,136.344731 C43.0842618,136.044012 43.4618794,136.344731 43.1216931,136.344731 L43.1216931,136.344731 Z M44.7089947,136.471377 C45.0230822,136.435539 44.7089947,136.797085 44.7089947,136.471377 Z M18.2539683,177.504505 L18.2539683,167.119577 C18.2980566,167.119056 18.2539683,167.035147 18.2539683,166.992932 C18.9283317,166.002823 18.2539683,165.516778 18.2539683,165.346541 L18.2539683,163.826795 L18.3862434,163.826795 C18.3346585,163.208811 19.1171021,160.693922 19.5767196,160.91395 C20.1887688,161.20695 19.54688,162.012822 19.4444444,162.30705 C19.2516026,162.860953 20.1887913,162.908043 19.973545,163.320214 C19.6790823,163.884074 19.3555837,164.036574 19.7089947,164.713314 C19.9732538,165.219338 19.2503734,165.354855 19.4444444,165.726477 C19.6107223,166.044879 19.9609998,166.293115 19.8412698,166.866286 C19.8371225,166.886141 19.3225334,167.256146 19.4444444,167.372868 C20.0433661,167.946299 19.6026854,168.438095 19.4444444,168.892614 C19.2518275,169.445871 20.0212891,169.469638 19.8412698,170.159068 C19.8228982,170.229427 19.4607165,170.492266 19.4444444,170.539005 C19.3145163,170.9122 20.2211584,171.441739 19.973545,171.678814 C19.8847011,171.763876 19.2982125,172.285315 19.4444444,172.565332 C19.6272994,172.915477 19.9909361,172.862014 19.8412698,173.578496 C19.8409287,173.580129 19.4561962,173.935929 19.4444444,173.958432 C19.2598583,174.311892 20.1581311,174.618135 19.973545,174.971596 C19.889709,175.132131 19.5130484,175.40777 19.4444444,175.604823 C19.2006879,176.304969 20.1985341,176.098391 19.973545,176.744632 C19.9293516,176.871569 19.2993813,177.226726 19.4444444,177.504505 C19.4846457,177.581485 19.8214819,177.935303 19.8412698,178.011087 C20.0182038,178.688701 19.2310792,178.664688 19.4444444,179.277541 C19.4658206,179.33894 20.1258672,179.891574 19.973545,180.037414 C19.8412698,180.164059 19.5767196,180.164059 19.4444444,180.290705 C19.2064659,181.354177 19.739707,180.982742 19.973545,181.430514 C20.1186082,181.708292 19.4886378,182.063449 19.4444444,182.190387 C19.2334697,182.796373 19.9999577,182.823817 19.8412698,183.583487 C19.8139253,183.71439 19.5067995,183.59073 19.4444444,183.710132 C19.2226881,184.134769 19.8093582,184.692742 19.973545,184.849941 C20.0824226,184.954185 19.3355668,185.378925 19.4444444,185.483168 C19.8001074,185.823694 19.0088213,185.364126 19.4444444,185.98975 C20.4286164,187.403178 19.0405263,186.475959 19.4444444,187.636141 C19.4886378,187.763079 20.1186082,188.118235 19.973545,188.396014 C19.9097812,188.518114 19.4869474,188.780514 19.4444444,188.902596 C19.2391032,189.492401 20.2108408,189.588012 19.973545,190.042405 C19.9034227,190.17668 19.5448941,190.356638 19.4444444,190.548987 C19.2369223,190.946367 19.9772923,191.294508 19.8412698,191.815441 C19.8214819,191.891224 19.4846457,192.245043 19.4444444,192.322023 C19.3217364,192.556994 19.8104247,192.837121 19.8412698,192.95525 C20.0318516,193.685132 19.2443765,193.582138 19.4444444,194.34835 C19.4943828,194.539602 20.0034894,194.642277 19.8412698,195.108223 C19.7309221,195.425177 19.2877141,195.394502 19.4444444,195.994741 C19.4522951,196.024808 19.8352338,196.219136 19.8412698,196.248032 C19.9909361,196.964514 19.6272994,196.911051 19.4444444,197.261196 C19.2822401,197.571798 19.9557518,198.106248 19.8412698,198.654296 C19.8272776,198.721279 19.3085304,198.777457 19.4444444,198.907587 C19.4511769,198.914033 20.0565157,200.134322 19.7089947,200.300687 C19.3202819,200.486771 18.4709532,198.137737 18.3862434,197.894423 C17.8184426,194.846004 18.9880612,189.238108 18.2539683,187.129559 C18.561392,186.540756 18.2539683,186.342462 18.2539683,186.243041 C18.2271531,184.856981 18.4789667,184.660599 18.2539683,183.583487 C18.2060385,182.780835 18.4285332,182.904594 18.2539683,182.570323 C18.0998001,181.345968 18.471684,181.467477 18.2539683,181.050577 L18.2539683,177.504505 Z M22.2222222,173.45185 C22.1019882,172.918322 22.402978,171.258763 21.957672,171.045586 C21.7658771,170.002147 22.1251311,170.471631 22.3544974,170.032423 C22.5195353,169.716395 21.8428296,169.315741 21.957672,168.765968 C22.0009074,168.558991 22.1986096,168.408639 22.3544974,168.259386 C22.5384935,168.083221 21.6849929,167.641725 21.8253968,167.372868 C21.9195004,167.192671 22.2992742,166.898259 22.3544974,166.739641 C22.5208603,166.261793 22.0182632,166.037781 21.8253968,165.853123 C21.694829,165.728112 22.3369673,165.143602 22.3544974,165.09325 C22.5070281,164.655133 21.9959164,164.369994 21.8253968,164.206732 C21.6758201,164.063521 22.3096443,163.406102 22.3544974,163.320214 C22.4949013,163.051357 21.6414007,162.609861 21.8253968,162.433695 C22.1830985,162.091218 22.4649477,161.526281 22.0899471,161.167241 C21.8206963,160.909449 22.4725565,158.94414 22.0899471,158.760977 C21.3420972,158.402967 20.3063545,160.726013 20.3703704,160.787304 C20.4909804,160.902781 20.8479149,161.272446 20.8994709,161.420532 C21.0197495,161.76601 20.5149195,162.168653 20.3703704,162.30705 C20.2942643,162.379917 20.8922073,162.912459 20.8994709,162.940277 C21.0564573,163.541497 20.5226826,163.661781 20.3703704,163.953441 C20.23937,164.204291 20.8484519,164.566771 20.8994709,164.713314 C21.0113029,165.034531 20.5100658,165.592727 20.3703704,165.726477 C20.3285968,165.766473 20.885702,166.320156 20.8994709,166.359705 C21.1128362,166.972558 20.3257116,166.948545 20.5026455,167.626159 C20.5210172,167.696518 20.8831988,167.959357 20.8994709,168.006095 C21.0157052,168.339957 20.2728944,169.052577 20.3703704,169.145905 C20.4738859,169.245014 20.8713561,169.544813 20.8994709,169.652486 C20.987592,169.989969 20.3051647,170.729865 20.3703704,170.792295 C20.5897583,171.002346 21.0343814,171.288785 20.8994709,171.805459 C20.8922073,171.833277 20.2942643,172.365819 20.3703704,172.438686 C20.5760731,172.635634 21.0233542,172.977407 20.8994709,173.45185 C20.857754,173.611616 20.2337553,173.950121 20.3703704,174.211723 C20.494886,174.450155 21.0871845,174.559068 20.8994709,175.098241 C20.8552775,175.225178 20.2253072,175.580335 20.3703704,175.858114 C20.4529646,176.016272 20.8284317,176.160648 20.8994709,176.364696 C21.0616904,176.830642 20.5525838,176.933317 20.5026455,177.124568 C20.3390988,177.750913 20.8113514,177.67361 20.8994709,178.011087 C21.1135848,178.831091 20.3033991,178.514475 20.5026455,179.277541 C20.5362127,179.406095 21.0326563,179.78238 20.8994709,180.037414 C20.764463,180.295938 20.3774997,180.444654 20.5026455,180.923932 C20.5153146,180.972451 20.8932809,181.280162 20.8994709,181.303868 C21.0263435,181.78976 20.6041334,182.025526 20.5026455,182.317032 C20.3138163,182.85941 20.8386076,182.717167 20.8994709,182.950259 C21.0623739,183.574139 20.5726282,183.568761 20.5026455,183.836777 C20.3019158,184.605524 20.8135566,184.267619 20.8994709,184.59665 C21.0443581,185.151533 20.6053063,185.314939 20.5026455,185.609814 C20.3529393,186.039818 20.8386078,186.136596 20.8994709,186.369687 C21.0996064,187.136157 20.421524,187.100867 20.7671958,187.762787 C20.8588313,187.938258 20.96283,188.280009 20.8994709,188.522659 C20.8922073,188.550477 20.2942643,189.08302 20.3703704,189.155887 C20.6179379,189.392918 21.0578623,189.56245 20.8994709,190.16905 C20.8386078,190.402141 20.3529393,190.498919 20.5026455,190.928923 C20.5189176,190.975662 20.8810992,191.2385 20.8994709,191.308859 C21.0623739,191.932739 20.5726282,191.927361 20.5026455,192.195378 C20.2848228,193.029586 21.0976884,192.639571 20.8994709,193.588478 C20.8773806,193.694228 20.3442861,193.918466 20.5026455,194.221705 C20.5143973,194.244208 20.8991298,194.600008 20.8994709,194.601641 C21.0636613,195.387653 20.6228405,195.269567 20.5026455,195.614805 C20.312264,196.161641 20.8505878,196.014019 20.8994709,196.248032 C21.0567437,197.000928 20.3146064,197.101024 20.5026455,197.641132 C20.5972842,197.912965 21.0618353,197.905834 20.8994709,198.52765 C20.8810992,198.598009 20.5189176,198.860848 20.5026455,198.907587 C20.2902774,199.517576 21.2374104,199.491795 20.8994709,200.300687 C20.8875967,200.329109 20.3611643,200.662995 20.5026455,200.933914 C20.7409326,201.390205 21.1990042,201.963825 21.6931217,202.200369 C21.9785819,202.337024 22.4193285,201.629213 22.3544974,201.567141 C22.2791849,201.495034 21.6959079,200.804601 21.8253968,200.680623 C22.4004183,200.130075 22.2636458,198.353681 21.957672,197.767778 C21.7658771,196.724339 22.1251311,197.193823 22.3544974,196.754614 C22.4666019,196.539947 21.9039694,195.690033 21.8253968,195.614805 C21.7166438,195.51068 22.2177924,195.256075 22.2222222,195.234869 C22.4352931,194.214856 21.7446011,194.861781 21.957672,193.841769 C21.9639969,193.81149 22.5549564,193.273823 22.3544974,193.081896 C22.1340388,192.87082 22.0458554,192.533099 21.8253968,192.322023 C21.7440927,192.244179 22.4524624,191.716892 22.3544974,191.435505 C22.3426939,191.401602 21.7486833,190.875726 21.8253968,190.802278 C21.8778692,190.752038 22.4239852,189.922175 22.3544974,189.789114 C22.2840883,189.654289 21.8097652,188.720111 21.957672,188.649305 C22.0992698,188.581519 22.5055004,188.431876 22.3544974,188.142723 C22.1244586,187.702227 21.7751214,185.65795 22.0899471,185.356523 C22.2752875,185.179071 22.2445682,182.834311 21.957672,182.696968 C21.7658771,181.653529 22.1251311,182.123013 22.3544974,181.683805 C22.5027827,181.399856 21.6220099,180.738726 21.8253968,180.543996 C22.7437543,179.664724 21.7296263,179.862659 21.957672,178.770959 C22.0832619,178.169735 22.4761751,178.127586 21.8253968,177.504505 C21.6888574,177.373776 22.5320174,176.53466 22.3544974,176.364696 C22.1777579,176.195478 21.9433378,176.083956 21.8253968,175.858114 C21.6950872,175.608586 22.2455336,175.075922 22.3544974,174.971596 C22.4260462,174.903092 21.9632801,174.365216 21.957672,174.338368 C21.810749,173.635019 22.055571,173.770967 22.2222222,173.45185 Z M21.4285714,201.440496 C21.3911401,201.139776 21.7687577,201.440496 21.4285714,201.440496 L21.4285714,201.440496 Z M21.8253968,199.794105 C21.5113094,199.758267 21.8253968,200.119813 21.8253968,199.794105 L21.8253968,199.794105 Z M24.6031746,188.649305 C24.640606,188.950025 24.2629884,188.649305 24.6031746,188.649305 L24.6031746,188.649305 Z M23.4126984,170.032423 C23.4586068,169.60096 23.0099191,169.387794 22.8835979,169.145905 C22.762181,168.913406 23.348674,168.508631 23.4126984,168.386032 C23.7542911,167.731923 22.509305,167.47794 23.4126984,166.612995 C23.6067737,166.42718 22.5792555,165.764576 23.015873,165.346541 C23.0768986,165.288113 23.5202885,164.816325 23.4126984,164.713314 C23.3137192,164.618547 22.6712154,164.131811 22.8835979,163.826795 C23.0167988,163.635498 23.5820127,163.553247 23.4126984,163.066923 C23.3611424,162.918837 23.0042079,162.549172 22.8835979,162.433695 C22.8118973,162.365046 23.272805,161.829644 23.2804233,161.800468 C23.4185015,161.271662 22.7279415,160.958722 22.8835979,160.660659 C22.9895629,160.457749 23.3067334,160.230342 23.4126984,160.027432 C23.6208976,159.628755 22.7725003,159.227006 23.1481481,158.507686 C23.2954452,158.22563 24.4389116,157.938472 24.7354497,158.12775 C24.9034135,158.23496 24.3602331,158.97289 24.3386243,159.014268 C24.1456633,159.383765 24.8767236,159.613032 24.7354497,160.154077 C24.7311861,160.170406 24.3566904,160.499419 24.3386243,160.534014 C23.9275596,161.321153 25.4619081,161.104928 24.2063492,162.30705 C23.8914599,162.608537 24.6639057,162.699467 24.7354497,162.813632 C25.1348298,163.450936 24.111666,163.772134 24.3386243,164.206732 C24.6909321,164.881359 24.6787388,166.594945 24.3386243,167.246223 C24.1476386,167.611937 24.8995888,167.914572 24.7354497,168.386032 C24.7043693,168.475305 24.070538,169.269164 24.2063492,169.399195 C24.2089705,169.401705 24.6671098,169.7137 24.8677249,169.905777 C24.9094984,169.945773 24.3523932,170.499456 24.3386243,170.539005 C24.1986441,170.941073 24.985922,171.439002 24.8677249,171.552168 C24.809629,171.607792 24.2700705,172.37305 24.3386243,172.438686 C25.0665647,173.135645 24.1862175,173.647316 24.4708995,174.465014 C24.4788372,174.487813 24.8415978,174.819935 24.8677249,174.84495 C24.9645617,174.937666 24.3697499,175.545221 24.3386243,175.604823 C24.2083147,175.85435 24.7587611,176.387015 24.8677249,176.491341 C25.051721,176.667506 24.1982204,177.109003 24.3386243,177.377859 C24.4760099,177.640936 24.6577829,177.936725 24.8677249,178.137732 C24.8960288,178.164831 24.3621445,178.852566 24.3386243,178.897605 C24.2672587,179.034261 24.8016288,179.784043 24.3386243,180.670641 C24.2083147,180.920168 24.7587611,181.452833 24.8677249,181.557159 C24.9444384,181.630608 24.3504278,182.156483 24.3386243,182.190387 C24.1247528,182.804694 24.9341884,182.949635 24.7354497,183.330196 C24.1506466,184.450023 24.9483822,184.210528 24.7354497,185.229878 C24.6965309,185.41619 24.1768067,185.524958 24.3386243,185.98975 C24.3943993,186.149954 25.0651289,186.371618 24.8677249,186.749623 C24.7862854,186.90557 24.1470104,187.142578 24.3386243,187.509496 C24.4640666,187.749702 24.8492397,188.086871 24.7354497,188.522659 C24.6742455,188.757057 23.9226068,188.757575 24.4708995,189.282532 C25.222793,190.002425 23.9841472,190.842824 24.3386243,191.182214 C24.5674857,191.401335 25.0854813,191.104251 24.7354497,191.942087 C24.5721943,192.332855 24.1644632,192.815237 24.2063492,192.828605 C24.5485055,192.937803 24.6497468,192.83573 24.7354497,193.081896 C25.0282787,193.922994 24.0223045,194.045493 24.8677249,194.854932 C24.9908419,194.972809 23.803973,195.802116 24.7354497,196.248032 C24.8503714,197.60792 24.759137,196.731935 24.3386243,197.13455 C24.1902726,197.276588 24.8013501,198.21081 24.8677249,198.27436 C24.9094984,198.314355 24.3523932,198.868038 24.3386243,198.907587 C24.2267924,199.228804 24.7280295,199.787001 24.8677249,199.92075 C24.952105,200.001539 24.3879987,200.63335 24.3386243,200.680623 C24.2366838,200.778225 24.8384177,201.651321 24.7354497,201.947078 C24.7190383,201.994217 24.2538646,202.408166 24.2063492,202.45366 C23.8181636,202.825324 24.9482432,202.739986 24.6031746,202.960241 C24.3750259,203.105867 23.3462732,202.812397 23.015873,202.70695 C22.5434437,202.556176 23.3961619,202.026241 23.4126984,201.947078 C23.4180982,201.921228 23.1224197,200.402699 23.4126984,200.680623 C23.6408427,200.899058 22.8106622,200.750455 23.015873,200.553978 C23.5587809,200.034176 23.3499428,199.607375 22.8835979,199.160878 C22.8074918,199.088011 23.4054348,198.555468 23.4126984,198.52765 C23.6276107,197.704588 22.5078368,197.620964 23.1481481,197.007905 C23.6266901,196.54973 22.8542857,195.769515 22.8835979,195.74145 C22.9154118,195.71099 23.406566,195.258354 23.4126984,195.234869 C23.5750628,194.613052 23.1105117,194.620183 23.015873,194.34835 C22.8150737,193.771591 23.5864843,193.620808 23.4126984,192.95525 C23.3627601,192.763999 22.8536535,192.661324 23.015873,192.195378 C23.0317067,192.149898 23.3895218,191.882012 23.4126984,191.815441 C23.6260637,191.202588 22.8389391,191.226601 23.015873,190.548987 C23.1039926,190.21151 23.5762451,190.288813 23.4126984,189.662468 C23.3533821,189.435301 22.7912102,189.206153 23.015873,188.77595 C23.0888812,188.636148 23.5592858,188.437123 23.4126984,188.016078 C23.3767684,187.912875 22.9515027,187.639525 22.8835979,187.509496 C22.7525975,187.258646 23.3616794,186.896166 23.4126984,186.749623 C23.6051505,186.196839 22.6940784,185.972721 22.8835979,185.609814 C22.9601459,185.463234 23.5795302,185.042758 23.4126984,184.723296 C22.587646,183.14342 23.6891551,183.870977 23.4126984,183.076905 C23.3906409,183.013549 22.7815625,182.414725 22.8835979,182.317032 C23.028147,182.178635 23.532977,181.775992 23.4126984,181.430514 C23.3906409,181.367158 22.7815625,180.768334 22.8835979,180.670641 C23.0485379,180.512721 23.338308,180.251087 23.4126984,180.037414 C23.5924506,179.521108 23.0044921,179.509039 22.8835979,179.277541 C22.7065911,178.938594 23.620225,178.53512 23.4126984,178.137732 C23.332191,177.98357 22.7317347,177.542013 22.8835979,177.251214 C22.9616467,177.10176 23.3198869,176.922355 23.4126984,176.744632 C23.549507,176.48266 22.753477,175.729406 22.8835979,175.604823 C22.9984563,175.494853 23.3692967,175.222905 23.4126984,175.098241 C23.5664687,174.656564 22.992883,174.420991 22.8835979,174.211723 C22.771714,173.997479 23.3494823,173.446256 23.4126984,173.325205 C23.5534803,173.055624 22.9472914,172.687297 22.8835979,172.565332 C22.6861938,172.187327 23.3569235,171.965662 23.4126984,171.805459 C23.7191686,170.925179 22.5855081,171.616392 23.4126984,170.032423 L23.4126984,170.032423 Z M23.9417989,201.187205 C23.9043676,200.886485 24.2819852,201.187205 23.9417989,201.187205 L23.9417989,201.187205 Z M23.6772487,188.77595 C23.71468,188.475231 23.3370624,188.77595 23.6772487,188.77595 L23.6772487,188.77595 Z M24.2063492,199.794105 C23.8922618,199.758267 24.2063492,200.119813 24.2063492,199.794105 L24.2063492,199.794105 Z M24.4708995,201.31385 C24.156812,201.278012 24.4708995,201.639558 24.4708995,201.31385 L24.4708995,201.31385 Z M23.5449735,202.580305 C23.859061,202.544467 23.5449735,202.906013 23.5449735,202.580305 L23.5449735,202.580305 Z M23.1481481,193.968414 C23.4622356,193.932576 23.1481481,194.294122 23.1481481,193.968414 L23.1481481,193.968414 Z M23.4126984,164.206732 C23.098611,164.170894 23.4126984,164.53244 23.4126984,164.206732 Z M27.1164021,174.591659 C26.7604568,173.844056 27.4256241,169.673872 26.8518519,169.399195 C26.2536928,168.065366 27.1430683,168.917134 27.2486772,168.512677 C27.4122239,167.886333 26.9399714,167.963636 26.8518519,167.626159 C26.8051943,167.447472 27.4645435,165.046638 26.8518519,164.460023 C27.5447727,163.864353 26.6280082,162.589551 26.8518519,162.053759 C26.9332248,161.858985 27.4888173,161.650451 27.1164021,161.293886 C26.5070789,160.710496 27.4867403,160.230003 27.2486772,159.774141 C27.1721292,159.627561 26.5527449,159.207085 26.7195767,158.887623 C26.7596748,158.81084 27.3944169,158.511983 26.984127,158.381041 C25.9686637,158.056959 25.7481263,158.214924 25.3968254,158.887623 C25.3108782,159.052201 25.7723532,159.565931 25.7936508,159.647495 C25.97367,160.336926 25.2042084,160.360693 25.3968254,160.91395 C25.4130975,160.960689 25.7752791,161.223527 25.7936508,161.293886 C25.9560152,161.915703 25.4914641,161.908572 25.3968254,162.180404 C25.2130958,162.708134 25.899733,162.990433 25.3968254,163.953441 C25.2721096,164.192257 26.0823246,164.816862 25.9259259,164.966605 C25.8447286,165.044346 25.3000042,165.667722 25.3968254,165.853123 C25.5387099,166.124814 25.628198,166.090531 25.9259259,166.233059 C26.0649531,166.299614 25.3110721,167.379848 25.3968254,167.626159 C25.4086289,167.660062 26.0026395,168.185938 25.9259259,168.259386 C25.7262922,168.450524 25.4861043,168.636176 25.3968254,168.892614 C25.2610789,169.282521 25.7643177,169.624402 25.9259259,169.779132 C26.0794267,169.9261 25.2463015,170.648178 25.7936508,171.172232 C26.1550107,172.296672 25.5422279,171.767753 25.3968254,172.185396 C25.2087863,172.725504 25.9509236,172.8256 25.7936508,173.578496 C25.7933097,173.580129 25.4085772,173.935929 25.3968254,173.958432 C25.271855,174.197735 25.768008,174.468902 25.7936508,174.591659 C25.943317,175.308141 25.5796803,175.254678 25.3968254,175.604823 C25.2637601,175.859627 25.9052255,176.337147 25.7936508,176.871277 C25.7161698,177.242194 25.0615621,177.533976 25.7936508,177.884441 C26.0384949,178.998289 25.6157251,178.478438 25.3968254,178.897605 C25.3025866,179.078061 25.8484955,179.836633 25.9259259,179.910768 C25.9892092,179.971358 25.2660055,180.673428 25.3968254,180.923932 C25.44592,181.017942 25.8417696,181.349939 25.9259259,181.430514 C26.1390741,181.63459 25.2708482,182.329092 25.3968254,182.570323 C25.4761666,182.722252 25.7889482,182.945757 25.9259259,183.076905 C26.1035739,183.246992 25.4388237,183.883001 25.3968254,183.963423 C25.1312875,184.471896 26.5126727,184.885667 25.5291005,185.356523 C26.0813937,187.012953 25.0964739,188.200813 25.7936508,189.535823 C26.0384949,190.649671 25.6157251,190.12982 25.3968254,190.548987 C25.1490725,191.023403 26.2464883,191.418385 25.7936508,192.068732 C25.2767532,192.811079 26.1879114,193.210997 25.3968254,193.968414 C25.2659321,194.093736 26.0383775,194.785226 25.9259259,195.108223 C25.8548867,195.31227 25.4794196,195.456647 25.3968254,195.614805 C25.151206,196.085136 26.1126403,196.218311 25.9259259,196.754614 C25.8548867,196.958661 25.4794196,197.103038 25.3968254,197.261196 C25.2449622,197.551995 25.8454185,197.993552 25.9259259,198.147714 C26.0562356,198.397241 25.5057892,198.929906 25.3968254,199.034232 C25.3669586,199.062828 25.9021007,199.897939 25.9259259,199.92075 C25.9969178,199.988721 25.3782497,200.518407 25.6613757,201.06056 C25.9275026,201.570161 25.0943527,203.195465 26.3227513,202.960241 C27.701529,202.696222 26.6590665,199.403393 27.2486772,198.27436 C27.3523036,198.075927 26.9154445,197.884677 26.8518519,197.641132 C26.6749179,196.963518 27.4620425,196.987531 27.2486772,196.374678 C27.1367491,196.053184 26.6553308,196.367433 26.8518519,195.614805 C26.9098126,195.392829 27.3943238,195.14663 27.2486772,194.728287 C27.2057577,194.605008 26.7974817,194.244238 26.7195767,194.095059 C26.5471524,193.764888 27.2039102,193.759924 27.2486772,193.588478 C27.4115803,192.964598 26.9218345,192.969976 26.8518519,192.701959 C26.716576,192.183886 27.0783945,191.833636 27.3809524,191.688796 C27.6334713,191.56791 26.9072203,191.320628 26.8518519,191.055568 C26.6389902,190.036557 27.5808816,189.980534 26.7195767,189.155887 C26.5784421,189.020759 27.3955485,188.423964 27.2486772,188.142723 C27.2251571,188.097685 26.6912728,187.40995 26.7195767,187.38285 C26.8900249,187.219656 27.3839927,186.758356 27.2486772,186.369687 C27.1827655,186.180367 26.7917446,186.127943 26.7195767,185.98975 C26.5103045,185.589019 27.1738949,185.246431 27.2486772,185.103232 C27.6257012,184.381277 26.1054157,184.551445 27.2486772,183.456841 C27.3890024,183.322488 26.5792515,182.451385 26.7195767,182.317032 C26.7670921,182.271539 27.2322658,181.857589 27.2486772,181.81045 C27.3943238,181.392107 26.9098126,181.145908 26.8518519,180.923932 C26.5995512,179.957681 27.5789365,179.847035 26.7195767,179.02425 C26.6116903,178.920955 27.1009839,178.673838 27.1164021,178.644314 C27.5116435,177.887474 26.6531448,178.012214 26.8518519,177.251214 C26.8685432,177.18729 27.2259825,176.809819 27.2486772,176.744632 C27.3928166,176.330618 26.9278718,176.203113 26.8518519,175.984759 C26.6212681,175.322449 27.2962665,175.280496 27.1164021,174.591659 Z M26.3227513,163.066923 C26.6368388,163.031084 26.3227513,163.39263 26.3227513,163.066923 L26.3227513,163.066923 Z M26.5873016,162.686986 C26.2732141,162.651148 26.5873016,163.012694 26.5873016,162.686986 L26.5873016,162.686986 Z M26.5873016,201.187205 C26.6890271,201.087534 27.0670011,200.957563 26.5873016,201.187205 L26.5873016,201.187205 Z M26.984127,201.693787 C26.7759367,201.148417 26.7451403,201.350564 26.984127,201.693787 L26.984127,201.693787 Z M26.3227513,163.573504 C26.3601827,163.272785 25.9825651,163.573504 26.3227513,163.573504 L26.3227513,163.573504 Z M26.7195767,162.940277 C27.2571261,163.059143 26.8425978,162.99917 26.7195767,162.940277 L26.7195767,162.940277 Z M26.5873016,163.320214 C26.2732141,163.284375 26.5873016,163.645921 26.5873016,163.320214 L26.5873016,163.320214 Z M25.9259259,192.322023 C26.0300274,192.419419 26.1657757,192.781306 25.9259259,192.322023 L25.9259259,192.322023 Z M26.8518519,188.522659 C26.5377644,188.486821 26.8518519,188.848367 26.8518519,188.522659 L26.8518519,188.522659 Z M26.3227513,195.488159 C26.6368388,195.452321 26.3227513,195.813867 26.3227513,195.488159 L26.3227513,195.488159 Z M26.5873016,200.680623 C26.2732141,200.644785 26.5873016,201.006331 26.5873016,200.680623 Z M28.042328,173.705141 C28.2893929,174.260659 27.902958,175.957588 27.9100529,175.984759 C28.0193228,176.403236 28.5183417,175.85896 28.3068783,176.871277 C28.2679595,177.057589 27.7482352,177.166358 27.9100529,177.63115 C28.0046916,177.902983 28.4692427,177.895852 28.3068783,178.517668 C28.25694,178.70892 27.7478334,178.811595 27.9100529,179.277541 C28.0046916,179.549373 28.4692427,179.542243 28.3068783,180.164059 C28.2460152,180.39715 27.7603468,180.493928 27.9100529,180.923932 C28.0582238,181.349526 28.4978492,180.896235 28.3068783,181.81045 C28.2930498,181.87665 27.9461583,182.247895 27.9100529,182.317032 C27.745015,182.63306 28.4217207,183.033713 28.3068783,183.583487 C28.2565984,183.824187 27.5726173,183.697211 27.9100529,184.343359 C28.0306811,184.574348 28.4552684,184.661579 28.3068783,185.229878 C28.220964,185.558908 27.7093233,185.221004 27.9100529,185.98975 C27.9179036,186.019817 28.3008422,186.214145 28.3068783,186.243041 C28.5183417,187.255358 28.0193228,186.711082 27.9100529,187.129559 C27.7465062,187.755904 28.2187588,187.678601 28.3068783,188.016078 C28.4453956,188.546565 27.7289173,188.935679 27.9100529,189.282532 C28.0473346,189.54541 28.464295,189.566182 28.3068783,190.16905 C28.2460152,190.402141 27.7603468,190.498919 27.9100529,190.928923 C27.920742,190.959626 28.3055407,191.302456 28.3068783,191.308859 C28.4889879,192.180654 28.1463848,191.855967 27.9100529,192.195378 C27.4507643,192.854989 28.0839702,192.445151 28.1746032,192.575314 C28.5177485,193.068125 27.5447194,195.644957 28.4391534,196.501323 C28.5700467,196.626646 27.7976014,197.318136 27.9100529,197.641132 C28.5692051,199.534427 27.6195569,198.453126 27.9100529,199.287523 C27.9275829,199.337875 28.5697212,199.922385 28.4391534,200.047396 C27.7761413,200.68219 27.9210897,200.944481 28.4391534,201.440496 C28.4985634,201.497377 28.0501778,202.081239 28.1746032,202.200369 C28.220137,202.243965 29.4130251,201.394591 29.4973545,201.31385 C29.5652661,201.248829 29.1418066,200.728227 29.2328042,200.553978 C29.6382351,199.777626 29.7480892,200.147586 29.3650794,199.414169 C30.0210039,198.869844 29.2561891,195.540287 29.6296296,195.361514 C29.6694141,194.644594 29.5497777,194.525188 29.2328042,194.221705 C29.0411418,194.0382 30.0334746,193.341908 29.6296296,192.95525 C29.4532628,192.78639 29.4091711,192.490884 29.2328042,192.322023 C29.1225838,192.216494 29.7476958,191.856254 29.7619048,191.815441 C29.9860397,191.171654 29.0385109,190.735011 29.7619048,190.042405 C29.891014,189.918791 29.2639808,189.342232 29.2328042,189.282532 C29.0768179,188.983837 29.568405,188.766543 29.6296296,188.649305 C29.9820801,187.974405 29.0044026,187.34824 29.7619048,186.622978 C29.9271972,186.46472 29.1246737,185.839988 29.2328042,185.736459 C29.4753086,185.504276 29.6516755,185.20877 29.8941799,184.976587 C30.0020663,184.873292 29.5127727,184.626174 29.4973545,184.59665 C29.2681812,184.157811 29.4790692,183.871792 29.6296296,183.583487 L29.6296296,182.823614 L29.3650794,182.823614 C29.146487,181.947986 29.5723704,182.04674 29.7619048,181.683805 C29.9206034,181.379916 28.9787485,180.787239 29.2328042,180.543996 C29.3604452,180.421787 30.0271513,180.038414 29.7619048,179.657477 C29.6052992,179.432567 29.0331705,179.215387 29.2328042,179.02425 C29.3534143,178.908773 29.7103487,178.539108 29.7619048,178.391023 C29.914869,177.951661 29.4154645,177.872354 29.3650794,177.63115 C29.2561788,177.109822 29.4844093,176.682661 29.3650794,176.111405 C29.2505974,175.563357 29.9241091,175.028906 29.7619048,174.718305 C29.6189631,174.444589 29.2218112,174.380469 29.3650794,173.831786 C29.3848673,173.756003 29.7217035,173.402185 29.7619048,173.325205 C29.9202642,173.021965 29.3871697,172.797728 29.3650794,172.691977 C29.250237,172.142204 29.9269427,171.74155 29.7619048,171.425523 C29.5790499,171.075378 29.2154131,171.128841 29.3650794,170.412359 C29.5294065,169.625693 29.8902126,168.002297 29.2328042,167.372868 C29.1565684,167.299877 29.7397261,166.78211 29.7619048,166.739641 C29.8867357,166.500605 29.424784,166.094095 29.3650794,165.979768 C29.0065062,165.293144 29.9959619,165.3856 29.7619048,164.713314 C29.7111433,164.567511 29.092218,164.349292 29.2328042,164.080086 C29.3605188,163.835528 29.6460039,163.54215 29.7619048,163.320214 C29.7900549,163.26631 29.1092013,162.163798 29.1005291,162.180404 C28.9289395,162.508978 30.1408541,161.783353 29.6296296,161.293886 C28.8041741,160.503562 30.0224731,160.399743 29.7619048,159.900786 C29.6908314,159.764689 28.1097215,158.696452 27.9100529,158.887623 C27.6964801,159.092106 28.4268998,159.809337 28.3068783,160.154077 C28.2634766,160.278741 27.8926362,160.550689 27.7777778,160.660659 C27.7467019,160.690412 28.2909084,161.374661 28.3068783,161.420532 C28.509984,162.003916 27.7208626,162.016926 27.9100529,162.560341 C27.9396384,162.64532 28.2151372,162.979086 28.3068783,163.066923 C28.4059351,163.161764 28.644784,162.700808 28.7037037,162.813632 C28.8445975,163.083426 27.7405153,163.684089 27.9100529,164.333377 C27.9162429,164.357084 28.2942092,164.664794 28.3068783,164.713314 C28.4636086,165.313553 28.0204007,165.282878 27.9100529,165.599832 C27.7208626,166.143247 28.509984,166.156257 28.3068783,166.739641 C28.2063337,167.028437 27.5529533,167.284258 27.7777778,167.499514 C27.8926362,167.609484 28.2634766,167.881432 28.3068783,168.006095 C28.4690978,168.472042 27.9599912,168.574716 27.9100529,168.765968 C27.7476885,169.387785 28.2122396,169.380654 28.3068783,169.652486 C28.499047,170.204456 27.7178842,170.366971 27.9100529,170.918941 C28.0204007,171.235895 28.4636086,171.20522 28.3068783,171.805459 C28.2787635,171.913132 27.8812933,172.212931 27.7777778,172.312041 C27.7467019,172.341794 28.2909084,173.026043 28.3068783,173.071914 C28.4310436,173.428556 28.1227216,173.551197 28.042328,173.705141 Z M28.8359788,181.81045 C28.5218914,181.774612 28.8359788,182.136158 28.8359788,181.81045 L28.8359788,181.81045 Z M29.3650794,161.293886 C29.0509919,161.258048 29.3650794,161.619594 29.3650794,161.293886 L29.3650794,161.293886 Z M28.5714286,185.736459 C28.0338792,185.855325 28.4484075,185.795352 28.5714286,185.736459 L28.5714286,185.736459 Z M29.2328042,164.713314 C29.5468917,164.677475 29.2328042,165.039021 29.2328042,164.713314 L29.2328042,164.713314 Z M28.968254,199.92075 C29.2823414,199.884912 28.968254,200.246458 28.968254,199.92075 L28.968254,199.92075 Z M29.2328042,201.440496 C29.1086543,200.925825 29.1712937,201.322711 29.2328042,201.440496 L29.2328042,201.440496 Z M28.7037037,200.933914 C28.6662724,200.633194 29.0438899,200.933914 28.7037037,200.933914 Z M31.6137566,164.080086 L31.6137566,163.320214 L31.3492063,163.320214 C31.3492063,163.320214 30.9061149,161.211538 30.5555556,161.547177 C30.1293357,161.955257 30.9376837,161.687894 30.6878307,161.927114 C30.6457863,161.967368 30.0831482,162.234685 30.2910053,162.433695 C30.5293317,162.661879 30.9782284,162.714642 30.8201058,163.320214 C30.8113321,163.353815 30.1932741,164.11316 30.2910053,164.206732 C30.3432333,164.256737 30.8889231,164.774071 30.8201058,164.839959 C30.7426754,164.914094 30.1967665,165.672667 30.2910053,165.853123 C30.3546988,165.975088 30.9608877,166.343415 30.8201058,166.612995 C30.7225375,166.799827 30.3758683,167.08372 30.2910053,167.246223 C30.1427199,167.530171 31.0234927,168.191301 30.8201058,168.386032 C30.7052474,168.496002 30.334407,168.76795 30.2910053,168.892614 C30.1747121,169.226645 30.953702,169.777867 30.8201058,169.905777 C30.7314573,169.990653 30.3210609,170.452675 30.2910053,170.539005 C30.0319486,171.283098 31.2676911,171.250278 30.5555556,171.932105 C29.9794055,172.483734 30.6240191,172.696431 30.8201058,173.071914 C31.1524576,173.708327 29.9386014,174.000963 30.8201058,174.84495 C30.9765045,174.994692 30.1662895,175.619298 30.2910053,175.858114 C30.4002904,176.067382 30.9738761,176.302955 30.8201058,176.744632 C30.7490666,176.948679 30.3735995,177.093056 30.2910053,177.251214 C30.0945856,177.627334 30.9942228,177.890903 30.8201058,178.391023 C30.7409784,178.618302 30.4521506,178.743318 30.2910053,178.897605 C30.1020664,179.078502 30.7797549,179.706856 30.8201058,179.784123 C30.8575463,179.855817 30.5931913,180.435894 30.5555556,180.543996 C30.3958515,181.002717 30.9199365,181.492641 30.8201058,181.683805 C30.7568897,181.804856 30.1791214,182.356079 30.2910053,182.570323 C30.3346099,182.653821 31.0376557,183.121905 30.8201058,183.330196 C30.7389085,183.407937 30.1941841,184.031313 30.2910053,184.216714 C30.3641081,184.356697 30.747003,184.583313 30.8201058,184.723296 C30.9915424,185.051576 30.1279975,185.707035 30.2910053,185.863105 C30.4629029,186.027686 30.7074687,186.280646 30.8201058,186.496332 C30.9608877,186.765912 30.3546988,187.134239 30.2910053,187.256205 C29.9586535,187.892618 31.1725097,188.185254 30.2910053,189.029241 C30.2200463,189.09718 30.9265818,189.838516 30.8201058,190.042405 C30.7141408,190.245315 30.3969703,190.472722 30.2910053,190.675632 C30.1747443,190.898258 30.7494889,191.300282 30.8201058,191.435505 C30.9532912,191.690539 30.4568476,192.066823 30.4232804,192.195378 C30.2267594,192.948006 30.7081776,192.633757 30.8201058,192.95525 C31.1826967,193.996727 30.0551865,193.390204 30.8201058,194.854932 C31.049478,195.294152 30.0982364,195.498967 30.2910053,195.868096 C30.3547691,195.990196 30.7776028,196.252596 30.8201058,196.374678 C30.9823254,196.840624 30.4732188,196.943299 30.4232804,197.13455 C30.2432612,197.823981 31.0127228,197.847748 30.8201058,198.401005 C30.5642764,199.135829 30.1036607,199.108152 30.8201058,199.794105 C31.1714912,200.130535 31.7460317,197.261196 31.7460317,197.261196 L31.7460317,195.488159 L31.7460317,193.461832 L31.7460317,192.322023 L31.7460317,188.522659 C31.8374218,187.149895 31.5387861,186.13331 31.7460317,185.736459 C31.8425072,184.723537 31.7460317,184.470005 31.7460317,184.470005 L31.7460317,181.050577 L31.7460317,178.644314 L31.7460317,175.604823 L31.6137566,172.812686 L31.6137566,170.539005 L31.6137566,169.179916 L31.7460317,167.246223 L31.6137566,164.460023 L31.6137566,164.080086 Z M32.8042328,152.681995 L32.8042328,151.668832 L32.8042328,150.022441 L32.8042328,149.009277 L32.8042328,145.843141 L32.8042328,144.323395 L32.8042328,141.41055 L35.978836,141.663841 L35.978836,145.083268 L35.978836,151.035604 L35.978836,152.048768 L35.978836,154.961613 L35.978836,158.507686 L35.978836,159.647495 L35.978836,162.813632 L35.978836,165.979768 L35.978836,169.779132 L35.978836,172.05875 L35.978836,173.325205 L35.978836,175.984759 L35.978836,178.644314 L35.978836,181.937096 L32.8042328,181.937096 L32.8042328,179.02425 L32.8042328,176.744632 L32.8042328,175.731468 L32.8042328,172.312041 L32.8042328,168.892614 L32.8042328,167.87945 L32.8042328,166.233059 L32.8042328,165.09325 L32.8042328,162.053759 L32.8042328,154.328386 L32.8042328,152.681995 Z" id="mot-10" sketch:type="MSShapeGroup"></path>
            <text id="?-2" sketch:type="MSTextLayer" font-family="Yuanti SC" font-size="188" font-weight="normal">
                <tspan x="30" y="199">?</tspan>
            </text>
        </g>
    </g>
</svg>