<?xml version="1.0" encoding="UTF-8" standalone="no"?>
<svg width="332px" height="115px" viewBox="0 0 332 115" version="1.1" xmlns="http://www.w3.org/2000/svg" xmlns:xlink="http://www.w3.org/1999/xlink" xmlns:sketch="http://www.bohemiancoding.com/sketch/ns">
    <!-- Generator: Sketch 3.2.2 (9983) - http://www.bohemiancoding.com/sketch -->
    <title>mot-maybe</title>
    <desc>Created with Sketch.</desc>
    <defs></defs>
    <g id="Page-1" stroke="none" stroke-width="1" fill="none" fill-rule="evenodd" sketch:type="MSPage">
        <g id="Artboard-2" sketch:type="MSArtboardGroup" transform="translate(-769.000000, -23.000000)" fill="#FFFFFF">
            <g id="mot-crossed-3" sketch:type="MSLayerGroup" transform="translate(764.000000, 52.000000)">
                <g id="noun_59583_cc" transform="translate(175.088235, 36.833854) scale(-1, 1) translate(-175.088235, -36.833854) translate(0.588235, 0.333854)" sketch:type="MSShapeGroup">
                    <g id="Group">
                        <path d="M181.468569,71.9544653 C181.135745,71.9544653 0.343850373,72.0246466 0.343850373,71.0540861 C0.823024273,69.9875984 181.145738,70.751495 181.468569,70.751495 L209.728824,70.751495 C212.087529,70.751495 212.581941,69.1210693 212.581941,67.7520891 L212.581941,29.1840594 C212.581941,28.8520396 212.852059,28.5825743 213.184882,28.5825743 C213.517706,28.5825743 213.787824,28.8520396 213.787824,29.1840594 L213.787824,67.7512871 C213.787824,70.3833861 212.27002,71.9544653 209.728824,71.9544653 L181.468569,71.9544653 Z" id="Shape"></path>
                        <path d="M238.546573,71.4239591 C238.546573,71.3639797 238.285733,70.8027809 239.122745,70.7514967 C246.201178,70.3177967 281.125727,70.6908069 295.05295,70.6912468 C306.127752,70.6915967 315.64324,70.751495 315.781555,70.751495 L344.04181,70.751495 C346.400516,70.751495 346.894928,69.1210693 346.894928,67.7520891 L346.894928,29.1840594 C346.894928,28.8520396 347.165045,28.5825743 347.497869,28.5825743 C347.830692,28.5825743 348.10081,28.8520396 348.10081,29.1840594 L348.10081,67.7512871 C348.10081,70.3833861 346.583006,71.9544653 344.04181,71.9544653 C344.04181,71.9544653 238.546573,72.3945197 238.546573,71.4239591 Z" id="Shape-2" transform="translate(293.304465, 50.318281) scale(-1, 1) translate(-293.304465, -50.318281) "></path>
                        <path d="M213.184882,25.5222178 C212.852059,25.5222178 212.581941,25.2527525 212.581941,24.9207327 L212.581941,9.31660396 C212.581941,8.98458416 212.852059,8.71511881 213.184882,8.71511881 C213.517706,8.71511881 213.787824,8.98458416 213.787824,9.31660396 L213.787824,24.9207327 C213.787824,25.2527525 213.517706,25.5222178 213.184882,25.5222178 L213.184882,25.5222178 Z" id="Shape"></path>
                        <path d="M239.530196,7.67655446 C239.197373,7.67655446 238.927255,7.40708911 238.927255,7.07506931 L238.927255,2.23191089 C238.927255,1.76916832 238.548608,1.39384158 238.083941,1.39384158 L214.627922,1.39384158 C214.164863,1.39384158 213.787824,1.7699703 213.787824,2.23191089 L213.787824,7.07506931 C213.787824,7.40708911 213.517706,7.67655446 213.184882,7.67655446 C212.852059,7.67655446 212.581941,7.40708911 212.581941,7.07506931 L212.581941,2.23191089 C212.581941,1.10673267 213.50002,0.190871287 214.627922,0.190871287 L238.084745,0.190871287 C239.214255,0.190871287 240.133941,1.10673267 240.133941,2.23191089 L240.133941,7.07506931 C240.133137,7.40708911 239.86302,7.67655446 239.530196,7.67655446 L239.530196,7.67655446 Z" id="Shape"></path>
                        <path d="M239.530196,71.9544653 C239.197373,71.9544653 238.927255,71.685 238.927255,71.3529802 L238.927255,9.51148515 C238.927255,9.17946535 239.197373,8.91 239.530196,8.91 C239.86302,8.91 240.133137,9.17946535 240.133137,9.51148515 L240.133137,71.3529802 C240.133137,71.685 239.86302,71.9544653 239.530196,71.9544653 L239.530196,71.9544653 Z" id="Shape"></path>
                        <path d="M195.488961,71.3858614 C195.488961,71.0538416 195.759078,70.7843762 196.091902,70.7843762 C197.657137,70.7843762 198.354941,69.9952277 198.354941,68.2252574 L198.354941,49.6738515 C198.354941,49.3418317 198.625059,49.0723663 198.957882,49.0723663 C199.290706,49.0723663 199.560824,49.3418317 199.560824,49.6738515 L199.560824,68.2244554 C199.561627,71.4981386 197.387824,71.9873465 196.091902,71.9873465 C195.759078,71.9873465 195.488961,71.7178812 195.488961,71.3858614 Z" id="Shape"></path>
                        <path d="M209.531863,71.8606337 C209.199039,71.8606337 208.928922,71.5911683 208.928922,71.2591485 L208.928922,44.4866436 C208.928922,44.024703 208.551882,43.6501782 208.08802,43.6501782 L200.405745,43.6501782 C199.940275,43.6501782 199.560824,44.024703 199.560824,44.4866436 L199.560824,45.5909703 C199.560824,45.9229901 199.290706,46.1924554 198.957882,46.1924554 C198.625059,46.1924554 198.354941,45.9229901 198.354941,45.5909703 L198.354941,44.4866436 C198.354941,43.3622673 199.275431,42.4472079 200.405745,42.4472079 L208.08802,42.4472079 C209.216725,42.4472079 210.134804,43.3622673 210.134804,44.4866436 L210.134804,71.2591485 C210.134804,71.5911683 209.864686,71.8606337 209.531863,71.8606337 L209.531863,71.8606337 Z" id="Shape"></path>
                        <path d="M240.609863,9.91808911 L212.103608,9.91808911 C211.770784,9.91808911 211.500667,9.64862376 211.500667,9.31660396 L211.500667,7.07587129 C211.500667,6.74385149 211.770784,6.47438614 212.103608,6.47438614 L240.609863,6.47438614 C240.942686,6.47438614 241.212804,6.74385149 241.212804,7.07587129 L241.212804,9.31660396 C241.212804,9.64862376 240.942686,9.91808911 240.609863,9.91808911 L240.609863,9.91808911 Z M212.706549,8.71511881 L240.006922,8.71511881 L240.006922,7.67735644 L212.706549,7.67735644 L212.706549,8.71511881 L212.706549,8.71511881 Z" id="Shape"></path>
                        <g transform="translate(211.039216, 17.643564)" id="Shape">
                            <path d="M14.329098,7.37982178 C12.3723529,7.37982178 10.7813922,5.79270297 10.7813922,3.84068317 C10.7813922,1.88786139 12.3723529,0.299138614 14.329098,0.299138614 C16.2890588,0.299138614 17.8840392,1.88786139 17.8840392,3.84068317 C17.8840392,5.79190099 16.2898627,7.37982178 14.329098,7.37982178 L14.329098,7.37982178 Z M14.329098,1.50210891 C13.038,1.50210891 11.9872745,2.55109901 11.9872745,3.84068317 C11.9872745,5.12866337 13.038,6.17685149 14.329098,6.17685149 C15.6242157,6.17685149 16.6781569,5.12866337 16.6781569,3.84068317 C16.6781569,2.55109901 15.6250196,1.50210891 14.329098,1.50210891 L14.329098,1.50210891 Z"></path>
                            <path d="M18.2377647,23.893396 L10.301451,23.893396 C10.1310196,23.893396 9.96862745,23.8212178 9.85366667,23.694505 C9.7395098,23.569396 9.68403922,23.4001782 9.70172549,23.2309604 L10.8416863,12.0184752 L0.622235294,10.3511584 C0.328,10.3030396 0.113352941,10.0480099 0.116568627,9.75047525 L0.128627451,8.69506931 C0.132647059,8.36545545 0.401156863,8.10080198 0.730764706,8.1 L18.101902,8.08716832 L18.1027059,8.08716832 C18.3591569,8.08716832 18.5882745,8.24916832 18.6718824,8.49056436 L23.2100196,21.464198 C23.3000588,21.7208317 23.2051961,22.0063366 22.980098,22.1595149 L21.9333922,22.8692673 C21.791902,22.964703 21.617451,22.9975842 21.4510392,22.9566832 C21.2846275,22.9157822 21.1439412,22.8075149 21.063549,22.6575446 L18.1485294,17.254604 L18.8366863,23.2229406 C18.8559804,23.3937624 18.8021176,23.5645842 18.6871569,23.691297 C18.5738039,23.8196139 18.409,23.893396 18.2377647,23.893396 L18.2377647,23.893396 Z M10.9687059,22.6904257 L17.5616667,22.6904257 L16.5913333,14.2784554 C16.5583725,13.9921485 16.7344314,13.7218812 17.0101765,13.6360693 C17.2883333,13.5494554 17.5857843,13.6705545 17.7216471,13.9247822 L21.8079804,21.5002871 L21.9197255,21.424901 L17.6758235,9.29094059 L1.66813725,9.3029703 L11.5973725,10.9229703 C11.9125098,10.974297 12.1319804,11.260604 12.0998235,11.5773861 L10.9687059,22.6904257 L10.9687059,22.6904257 Z"></path>
                        </g>
                        <path d="M237.502706,42.3862574 L213.353706,42.3862574 C213.020882,42.3862574 212.750765,42.1167921 212.750765,41.7847723 C212.750765,41.4527525 213.020882,41.1832871 213.353706,41.1832871 L236.899765,41.1832871 L236.899765,15.3531089 L213.353706,15.3531089 C213.020882,15.3531089 212.750765,15.0836436 212.750765,14.7516238 C212.750765,14.419604 213.020882,14.1501386 213.353706,14.1501386 L237.502706,14.1501386 C237.835529,14.1501386 238.105647,14.419604 238.105647,14.7516238 L238.105647,41.7847723 C238.105647,42.1167921 237.835529,42.3862574 237.502706,42.3862574 L237.502706,42.3862574 Z" id="Shape"></path>
                        <path d="M226.294431,26.7259901 L224.217902,26.7259901 L225.010569,27.6651089 L224.217902,34.4963762 L225.257373,35.5325347 L226.294431,34.4963762 L225.500157,27.6651089 L226.294431,26.7259901 Z" id="Shape"></path>
                        <g transform="translate(165.828152, 28.354376) rotate(26.000000) translate(-165.828152, -28.354376) translate(117.592857, 25.547445)" id="Shape">
                            <path d="M13.377634,5.19442574 C12.7484508,5.19442574 12.1250136,5.11743564 11.6998122,4.97067327 L1.33409103,1.3850198 C0.587115555,1.12678218 0.733637666,0.749049505 1.65873806,0.538930693 C2.57809248,0.332019802 3.93701324,0.371316832 4.68973468,0.629554455 L15.0554558,4.21520792 C15.8024313,4.47344554 15.6559092,4.85117822 14.7308088,5.06129703 C14.3314642,5.15031683 13.8545491,5.19442574 13.377634,5.19442574 L13.377634,5.19442574 Z"></path>
                            <path d="M26.2801988,5.19442574 C25.6510156,5.19442574 25.0275784,5.11743564 24.6023769,4.97067327 L14.2452747,1.3850198 C13.4982993,1.12678218 13.6448214,0.749049505 14.5699218,0.538930693 C15.4921492,0.332019802 16.848197,0.371316832 17.6009184,0.629554455 L27.9580206,4.21520792 C28.7049961,4.47344554 28.558474,4.85117822 27.6333736,5.06129703 C27.234029,5.15031683 26.7571139,5.19442574 26.2801988,5.19442574 L26.2801988,5.19442574 Z"></path>
                            <path d="M37.5049417,4.97067327 L27.1507125,1.3850198 C26.403737,1.12678218 26.5502591,0.747445545 27.4753595,0.538930693 C28.394714,0.332019802 29.7565077,0.371316832 30.5063562,0.629554455 L40.8605854,4.21520792 C41.6075608,4.47344554 41.4610387,4.85278218 40.5359383,5.06129703 C40.1365938,5.15031683 39.6596787,5.19442574 39.1827635,5.19442574 C38.5535804,5.19442574 37.9301431,5.11743564 37.5049417,4.97067327 Z"></path>
                            <path d="M52.0882013,5.19442574 C51.4590181,5.19442574 50.8355809,5.11743564 50.4103795,4.97067327 L40.0561503,1.3850198 C39.3091748,1.12678218 39.4556969,0.747445545 40.3807973,0.538930693 C41.3030247,0.332019802 42.6590725,0.371316832 43.4117939,0.629554455 L53.7660231,4.21520792 C54.5129986,4.47344554 54.3664765,4.85278218 53.4413761,5.06129703 C53.0420315,5.15031683 52.5651164,5.19442574 52.0882013,5.19442574 L52.0882013,5.19442574 Z"></path>
                            <path d="M64.9936391,5.19442574 C64.3644559,5.19442574 63.7410186,5.11743564 63.3158172,4.97067327 L52.961588,1.3850198 C52.2146125,1.12678218 52.3611346,0.747445545 53.286235,0.538930693 C54.2055895,0.332019802 55.5645102,0.371316832 56.3172317,0.629554455 L66.6714609,4.21520792 C67.4184364,4.47344554 67.2719142,4.85278218 66.3468139,5.06129703 C65.9474693,5.15031683 65.4705542,5.19442574 64.9936391,5.19442574 L64.9936391,5.19442574 Z"></path>
                            <path d="M77.9105687,5.19442574 C77.2813856,5.19442574 76.6579483,5.11743564 76.2327469,4.97067327 L65.8670258,1.3850198 C65.1200503,1.12678218 65.2665724,0.749049505 66.1916728,0.538930693 C67.1110272,0.332019802 68.469948,0.371316832 69.2226694,0.629554455 L79.5883906,4.21520792 C80.335366,4.47344554 80.1888439,4.85117822 79.2637435,5.06129703 C78.864399,5.15031683 78.3874838,5.19442574 77.9105687,5.19442574 L77.9105687,5.19442574 Z"></path>
                            <path d="M90.8045146,5.19442574 C90.1753314,5.19442574 89.5518942,5.11743564 89.1266927,4.97067327 L78.7724635,1.3850198 C78.025488,1.12678218 78.1720102,0.747445545 79.0971105,0.538930693 C80.016465,0.332019802 81.3753857,0.371316832 82.1281072,0.629554455 L92.4823364,4.21520792 C93.2293119,4.47344554 93.0827897,4.85278218 92.1576894,5.06129703 C91.7583448,5.15031683 91.2814297,5.19442574 90.8045146,5.19442574 L90.8045146,5.19442574 Z"></path>
                            <path d="M94.20038,5.50238614 L2.90273951,5.50238614 C1.71332473,5.50238614 0.748002579,5.23292079 0.748002579,4.90090099 L0.748002579,0.679277228 C0.748002579,0.347257426 1.71332473,0.0777920792 2.90273951,0.0777920792 L94.197507,0.0777920792 C95.3869218,0.0777920792 96.3522439,0.347257426 96.3522439,0.679277228 L96.3522439,4.90090099 C96.3551169,5.23292079 95.3897948,5.50238614 94.20038,5.50238614 L94.20038,5.50238614 Z M5.05747645,4.29941584 L92.0427701,4.29941584 L92.0427701,1.28076238 L5.05747645,1.28076238 L5.05747645,4.29941584 L5.05747645,4.29941584 Z"></path>
                        </g>
                    </g>
                </g>
            </g>
            <g id="mot-maybe-2" sketch:type="MSLayerGroup" transform="translate(949.000000, 89.000000)">
                <path d="M6.63932537,21.1780389 C6.61457595,19.8168207 6.70738489,18.5793681 6.91775498,17.4656441 C7.12812507,16.3519201 7.71591503,15.2877109 8.6811425,14.2729846 C9.22562979,13.7037479 9.79485796,13.1468943 10.3888441,12.602407 C10.9828302,12.0579197 11.5273094,11.5072533 12.0222978,10.9503913 C12.5172862,10.3935293 12.9318329,9.81811387 13.2659501,9.22412773 C13.6000673,8.6301416 13.7671233,7.98666627 13.7671233,7.29368245 C13.7671233,6.62544805 13.6371908,6.00053451 13.3773219,5.41892308 C13.117453,4.83731166 12.7400299,4.32995611 12.2450415,3.89684122 C11.750053,3.46372633 11.1437013,3.12342688 10.425968,2.87593266 C9.7082348,2.62843844 8.89151612,2.50469318 7.97578749,2.50469318 C7.06005887,2.50469318 6.24334018,2.66556201 5.52560694,2.9873045 C4.80787369,3.30904699 4.2077092,3.75452991 3.72509547,4.32376662 C3.24248173,4.89300334 2.87743323,5.55504045 2.62993901,6.30989783 C2.38244478,7.06475521 2.27107406,7.88766116 2.29582348,8.77864036 L0.0312626615,8.77864036 C-0.0677350276,7.54116925 0.0683847531,6.41508742 0.439626087,5.40036111 C0.810867422,4.3856348 1.36153381,3.51323075 2.09164176,2.78312279 C2.82174972,2.05301483 3.69415377,1.48997392 4.70888008,1.09398316 C5.7236064,0.697992408 6.8373137,0.5 8.05003539,0.5 C9.31225592,0.5 10.444525,0.667056095 11.4468766,1.0011733 C12.4492282,1.3352905 13.2968832,1.80552247 13.989867,2.41188331 C14.6828509,3.01824416 15.2149555,3.75452843 15.5861968,4.62075821 C15.9574381,5.48698799 16.143056,6.43982645 16.143056,7.47930219 C16.143056,8.56827677 15.9017528,9.50255344 15.419139,10.2821602 C14.9365253,11.061767 14.3487353,11.7856768 13.6557515,12.4539112 C12.9627677,13.1221456 12.2450452,13.7965572 11.5025625,14.4771663 C10.7600799,15.1577755 10.1166045,15.9188088 9.57211725,16.7602891 C9.15137707,17.4037741 8.91626108,18.1153093 8.86676224,18.8949161 C8.81726339,19.6745229 8.79251434,20.4355563 8.79251434,21.1780389 L6.63932537,21.1780389 Z M6.41658168,27.9345974 L6.41658168,24.66769 L9.12662987,24.66769 L9.12662987,27.9345974 L6.41658168,27.9345974 Z" id="?" sketch:type="MSShapeGroup"></path>
            </g>
        </g>
    </g>
</svg>