<?xml version="1.0" encoding="UTF-8" standalone="no"?>
<svg width="80px" height="85px" viewBox="0 0 80 85" version="1.1" xmlns="http://www.w3.org/2000/svg" xmlns:xlink="http://www.w3.org/1999/xlink" xmlns:sketch="http://www.bohemiancoding.com/sketch/ns">
    <!-- Generator: Sketch 3.2.2 (9983) - http://www.bohemiancoding.com/sketch -->
    <title>marker-resize</title>
    <desc>Created with Sketch.</desc>
    <defs></defs>
    <g id="Page-1" stroke="none" stroke-width="1" fill="none" fill-rule="evenodd" sketch:type="MSPage">
        <g id="marker-resize" sketch:type="MSLayerGroup" transform="translate(1.000000, 1.000000)">
            <g id="ic_plus-2-+-Shape-14" stroke-width="0.7" stroke="#4D4D4D" fill="#FFFFFF" sketch:type="MSShapeGroup">
                <g id="ic_plus-2">
                    <path d="M45.0507603,77.931046 L39.3482143,84 L33.756223,78.0487043 C14.6968217,75.4741914 0,59.0622106 0,39.2 C0,17.5504378 17.4608948,0 39,0 C60.5391052,0 78,17.5504378 78,39.2 C78,58.780964 63.7164422,75.0087161 45.0507603,77.931046 Z" id="Triangle-27"></path>
                </g>
            </g>
            <g id="resize" transform="translate(39.000000, 38.759533) rotate(-45.000000) translate(-39.000000, -38.759533) translate(22.942475, 23.113739)" fill="#4D4D4D" sketch:type="MSShapeGroup">
                <path d="M11.3751138,11.3604231 L0.990713142,0.977544747 C0.767712739,0.753621861 0.767712739,0.390491291 0.990713142,0.167942165 L0.990713142,0.167942165 C1.21417145,-0.0559807215 1.5772912,-0.0559807215 1.80029161,0.167942165 L1.80029161,0.167942165 L12.1846923,10.5508205 C12.4076927,10.7747434 12.4076927,11.1374161 12.1846923,11.3604231 L12.1846923,11.3604231 C12.0729631,11.4726135 11.926891,11.5284798 11.7799031,11.5284798 L11.7799031,11.5284798 C11.633373,11.5284798 11.4873009,11.4726135 11.3751138,11.3604231 L11.3751138,11.3604231 L11.3751138,11.3604231 Z" id="Shape"></path>
                <path d="M0.82346284,9.32874605 L0.82346284,0.552808029 C0.82346284,0.247657997 1.0082479,0 1.23519426,0 L1.23519426,0 C1.46247,0 1.64692568,0.247657997 1.64692568,0.552808029 L1.64692568,0.552808029 L1.64692568,9.32874605 C1.64692568,9.63389608 1.46181123,9.88155407 1.23519426,9.88155407 L1.23519426,9.88155407 C1.0082479,9.88155407 0.82346284,9.63389608 0.82346284,9.32874605 L0.82346284,9.32874605 L0.82346284,9.32874605 Z" id="Shape"></path>
                <path d="M1.37676264,0.82346284 C1.07070072,0.82346284 0.82346284,0.638751663 0.82346284,0.411566793 L0.82346284,0.411566793 C0.82346284,0.184711177 1.07070072,0 1.37587807,0 L1.37587807,0 L10.1521594,0 C10.4564522,0 10.7041323,0.184711177 10.7050169,0.411566793 L10.7050169,0.411566793 C10.7050169,0.638751663 10.4564522,0.823133586 10.1521594,0.823133586 L10.1521594,0.823133586 L1.37676264,0.82346284 L1.37676264,0.82346284 Z" id="Shape"></path>
                <path d="M0.991406672,31.124462 C0.767481562,30.9005592 0.767481562,30.5379189 0.991406672,30.3144739 L0.991406672,30.3144739 L11.3748461,19.9306919 C11.5973974,19.7072469 11.9605316,19.7072469 12.1839988,19.9306919 L12.1839988,19.9306919 C12.4079239,20.1532211 12.4079239,20.5163193 12.1839988,20.7402221 L12.1839988,20.7402221 L1.80055937,31.124462 C1.68882578,31.2361845 1.54274784,31.2915879 1.39575406,31.2915879 L1.39575406,31.2915879 C1.24967612,31.2915879 1.10314026,31.2361845 0.991406672,31.124462 L0.991406672,31.124462 L0.991406672,31.124462 Z" id="Shape"></path>
                <path d="M1.37587807,30.4681251 C1.07114301,30.4681251 0.82346284,30.2830106 0.82346284,30.0560643 L0.82346284,30.0560643 C0.82346284,29.8291179 1.07114301,29.6446622 1.37587807,29.6446622 L1.37587807,29.6446622 L10.1517171,29.6446622 C10.4573367,29.6446622 10.7050169,29.8291179 10.7050169,30.0560643 L10.7050169,30.0560643 C10.7050169,30.2826812 10.4573367,30.4681251 10.1517171,30.4681251 L10.1517171,30.4681251 L1.37587807,30.4681251 L1.37587807,30.4681251 Z" id="Shape"></path>
                <path d="M0.82346284,29.9148253 L0.82346284,21.1394285 C0.82346284,20.8338089 1.00791852,20.586571 1.23486487,20.586571 L1.23486487,20.586571 C1.46214062,20.586571 1.64692568,20.8338089 1.64692568,21.1385439 L1.64692568,21.1385439 L1.64692568,29.9148253 C1.64692568,30.219118 1.46214062,30.4672405 1.23552364,30.4681251 L1.23552364,30.4681251 C1.00791852,30.4681251 0.82346284,30.2195603 0.82346284,29.9148253 L0.82346284,29.9148253 L0.82346284,29.9148253 Z" id="Shape"></path>
                <path d="M30.3146544,31.1244421 L19.9303568,20.7403386 C19.7073586,20.5173249 19.7073586,20.1541835 19.9303568,19.9307119 L19.9303568,19.9307119 C20.1542708,19.7072402 20.5160132,19.7072402 20.7403851,19.9307119 L20.7403851,19.9307119 L31.1246827,30.3148154 C31.347223,30.5373712 31.347223,30.9005126 31.1246827,31.1244421 L31.1246827,31.1244421 C31.0129546,31.2361779 30.8664261,31.2915879 30.7194396,31.2915879 L30.7194396,31.2915879 C30.5724531,31.2915879 30.4259245,31.2361779 30.3146544,31.1244421 L30.3146544,31.1244421 L30.3146544,31.1244421 Z" id="Shape"></path>
                <path d="M30.4681251,29.9157346 L30.4681251,21.1402883 C30.4681251,20.8346823 30.6529101,20.586571 30.8795271,20.586571 L30.8795271,20.586571 C31.1064735,20.586571 31.2915879,20.8346823 31.2915879,21.1402883 L31.2915879,21.1402883 L31.2915879,29.9157346 C31.2915879,30.220456 31.1064735,30.4681251 30.8795271,30.4681251 L30.8795271,30.4681251 C30.6522514,30.4681251 30.4681251,30.2208982 30.4681251,29.9157346 L30.4681251,29.9157346 L30.4681251,29.9157346 Z" id="Shape"></path>
                <path d="M21.9624738,30.4681251 C21.6581674,30.4681251 21.4100338,30.2836694 21.4100338,30.056723 L21.4100338,30.056723 C21.4100338,29.8291179 21.6581674,29.6446622 21.9624738,29.6446622 L21.9624738,29.6446622 L30.7382633,29.6446622 C31.043012,29.6446622 31.2915879,29.8291179 31.2915879,30.056723 L31.2915879,30.056723 C31.2915879,30.2836694 31.043012,30.4681251 30.7382633,30.4681251 L30.7382633,30.4681251 L21.9624738,30.4681251 L21.9624738,30.4681251 Z" id="Shape"></path>
                <path d="M19.9303751,11.3613489 C19.7073525,11.1374394 19.7073525,10.7752462 19.9303751,10.5513367 L19.9303751,10.5513367 L30.3148911,0.16724532 C30.5379137,-0.05574844 30.9010695,-0.05574844 31.1250079,0.16724532 L31.1250079,0.16724532 C31.3471146,0.391154865 31.3471146,0.753348015 31.1250079,0.97725756 L31.1250079,0.97725756 L20.7404919,11.3613489 C20.6292096,11.4730747 20.482665,11.5284798 20.3352045,11.5284798 L20.3352045,11.5284798 C20.1886599,11.5284798 20.0416574,11.4730747 19.9303751,11.3613489 L19.9303751,11.3613489 L19.9303751,11.3613489 Z" id="Shape"></path>
                <path d="M21.9633089,0.82346284 C21.6581452,0.82346284 21.4100338,0.638348393 21.4100338,0.411402035 L21.4100338,0.411402035 C21.4100338,0.184455676 21.6581452,0 21.9633089,0 L21.9633089,0 L30.7383129,0 C31.0430343,0 31.2915879,0.184455676 31.2915879,0.411402035 L31.2915879,0.411402035 C31.2915879,0.638677778 31.0430343,0.82346284 30.7383129,0.82346284 L30.7383129,0.82346284 L21.9633089,0.82346284 L21.9633089,0.82346284 Z" id="Shape"></path>
                <path d="M30.4681251,9.32950645 L30.4681251,0.552489382 C30.4681251,0.247713414 30.6529101,0 30.8795271,0 L30.8795271,0 C31.1064735,0 31.2915879,0.247713414 31.2915879,0.552489382 L31.2915879,0.552489382 L31.2915879,9.3290641 C31.2915879,9.63428241 31.1064735,9.88155348 30.8795271,9.88155348 L30.8795271,9.88155348 C30.6522514,9.88199583 30.4681251,9.63472476 30.4681251,9.32950645 L30.4681251,9.32950645 L30.4681251,9.32950645 Z" id="Shape"></path>
            </g>
        </g>
    </g>
</svg>