<?xml version="1.0" encoding="UTF-8" standalone="no"?>
<svg width="80px" height="85px" viewBox="0 0 80 85" version="1.1" xmlns="http://www.w3.org/2000/svg" xmlns:xlink="http://www.w3.org/1999/xlink" xmlns:sketch="http://www.bohemiancoding.com/sketch/ns">
    <!-- Generator: Sketch 3.2.2 (9983) - http://www.bohemiancoding.com/sketch -->
    <title>marker-mot</title>
    <desc>Created with Sketch.</desc>
    <defs></defs>
    <g id="Page-1" stroke="none" stroke-width="1" fill="none" fill-rule="evenodd" sketch:type="MSPage">
        <g id="marker-mot" sketch:type="MSLayerGroup" transform="translate(1.000000, 1.000000)">
            <g id="ic_plus-2-+-Shape-14" stroke-width="0.7" stroke="#3AB7AA" fill="#FFFFFF" sketch:type="MSShapeGroup">
                <g id="ic_plus-2">
                    <path d="M45.0507603,77.931046 L39.3482143,84 L33.756223,78.0487043 C14.6968217,75.4741914 0,59.0622106 0,39.2 C0,17.5504378 17.4608948,0 39,0 C60.5391052,0 78,17.5504378 78,39.2 C78,58.780964 63.7164422,75.0087161 45.0507603,77.931046 Z" id="Triangle-27"></path>
                </g>
            </g>
            <path d="M44.8403912,27.9543581 C44.8660539,27.7293581 44.6071617,27.9543581 44.8403912,27.9543581 Z M44.6746032,27.7193232 C44.8996032,27.6936605 44.6746032,27.9525527 44.6746032,27.7193232 Z M34.6519274,48.1974726 L34.6519274,46.3167876 L34.6519274,43.8092075 L34.6519274,43.2519675 L34.6519274,42.4857625 L34.6519274,41.1623175 L34.6519274,37.4706025 L34.6519274,35.5202624 L34.6519274,33.3609574 L34.6519274,31.0623424 L34.6519274,28.8333823 L34.6519274,28.1368323 L34.6519274,27.3706273 L34.6519274,26.7437323 L34.6519274,26.3258023 L32.9569161,26.3258023 L32.88322,29.7388974 L32.88322,31.6195824 L32.88322,35.4506074 L32.88322,46.1078226 L32.88322,46.1774776 L32.88322,47.1526476 L32.88322,47.7795426 L32.9569161,48.6154026 L33.6201814,48.6154026 L34.6519274,48.6154026 L34.6519274,48.1974726 Z M33.5687112,47.6406534 C33.3437112,47.6149907 33.5687112,47.8738829 33.5687112,47.6406534 L33.5687112,47.6406534 Z M33.564881,26.630913 C33.5905437,26.405913 33.3316515,26.630913 33.564881,26.630913 L33.564881,26.630913 Z M33.399093,48.4360485 C33.3424173,48.3581686 33.1318318,48.2566132 33.399093,48.4360485 L33.399093,48.4360485 Z M33.4213189,27.4407031 C33.1963189,27.4150405 33.4213189,27.6739327 33.4213189,27.4407031 L33.4213189,27.4407031 Z M33.1043084,46.9441034 C33.3293084,46.9184407 33.1043084,47.1773329 33.1043084,46.9441034 L33.1043084,46.9441034 Z M33.3253968,44.5061784 C33.5503968,44.4805157 33.3253968,44.7394079 33.3253968,44.5061784 L33.3253968,44.5061784 Z M33.937192,47.8496184 C33.712192,47.8239557 33.937192,48.0828479 33.937192,47.8496184 Z M37.5997732,27.9975223 C37.1300524,28.2944769 36.7199539,28.8858945 36.5680272,29.4602774 L36.5680272,30.1568274 L36.6417234,30.1568274 C36.6829291,31.2247399 37.5514198,31.9564319 38.484127,32.1768224 C38.8628554,32.1893011 38.9479973,32.2396428 39.1473923,32.1768224 C41.2371712,32.1459228 41.7761989,30.0413232 40.9160998,28.4154523 C40.6109622,27.8386417 39.6252619,27.8054251 39.1473923,27.5795923 C38.4319712,27.4964333 38.055535,27.8539323 37.5997732,27.9975223 Z M39.8106576,31.8986232 C40.0356576,31.8729605 39.8106576,32.1318527 39.8106576,31.8986232 L39.8106576,31.8986232 Z M35.2414966,27.0920073 L35.2414966,27.5795923 L35.2414966,29.4602774 L35.2414966,29.9478624 L35.3151927,33.5002674 L40.8424036,33.5002674 L42.7585034,33.3609574 L42.7585034,32.8037174 L42.7585034,31.6195824 L42.7585034,28.9030373 L42.7585034,27.7885573 L42.7585034,26.3258023 L39.8106576,26.3258023 L35.8310658,26.3258023 L35.2414966,27.0920073 Z M37.2312925,27.6492473 C37.694445,27.4030411 38.4545969,27.0153746 39.0736961,27.1616623 C40.678311,27.1901681 41.6208821,28.154484 41.9478458,29.3906223 C41.9771747,31.0616488 41.2440335,32.1895969 39.9580499,32.5947524 C38.1357287,32.8008442 36.6423504,32.3179105 36.0521542,30.6444124 C36.0430756,30.1855834 35.9468558,29.7986359 36.0521542,29.5995874 C36.1142603,28.7889795 36.6120649,27.9418834 37.2312925,27.6492473 L37.2312925,27.6492473 Z M39.9580499,33.1524132 C40.1830499,33.1267505 39.9580499,33.3856427 39.9580499,33.1524132 L39.9580499,33.1524132 Z M39.8109976,33.3177931 C39.7853349,33.0927931 40.0442271,33.3177931 39.8109976,33.3177931 L39.8109976,33.3177931 Z M39.5895692,33.2220682 C39.8145692,33.1964055 39.5895692,33.4552977 39.5895692,33.2220682 L39.5895692,33.2220682 Z M40.2750604,33.0131032 C40.0500604,32.9874405 40.2750604,33.2463327 40.2750604,33.0131032 L40.2750604,33.0131032 Z M39.0736961,33.0131032 C39.2986961,32.9874405 39.0736961,33.2463327 39.0736961,33.0131032 L39.0736961,33.0131032 Z M36.3469388,24.3058073 L36.9365079,24.3058073 L36.9365079,24.3754623 L38.8526077,24.3754623 L41.2845805,24.3754623 L41.2845805,24.3058073 C41.2845805,24.3058073 44.4344585,22.8997963 46.4433107,22.4251223 C46.7532288,22.4613862 47.0307615,22.3554673 47.106576,22.3554673 L47.5487528,22.3554673 C47.602889,20.9796847 48.2753424,22.196551 48.3594104,22.3554673 C49.4718612,22.5036765 50.4965986,22.3554673 50.4965986,22.3554673 L51.4546485,22.3554673 L52.9285714,22.4251222 L52.7811791,23.3306373 L52.9285714,23.7485673 L51.0124717,23.7485673 L49.3911565,23.8182223 L48.8015873,23.8182223 L48.8015873,23.7485673 C48.4229981,23.7878625 48.4236233,23.7182214 48.2120181,23.8182223 C48.3682704,24.3665382 47.7591492,24.6338708 47.5487528,24.2361523 L47.5487528,23.8182223 C46.6545437,23.8280211 46.8061177,23.7860761 46.4433107,23.9575323 C44.4320768,24.3120234 43.4206904,25.4204911 41.5793651,25.7685623 L36.5680272,25.7685623 L36.5680272,25.6989073 C35.7623792,25.6627942 35.2222398,25.4808419 34.6519274,25.2113223 C34.5619341,25.168793 34.2911717,24.8006936 34.3571429,24.8630473 C34.5362589,25.0323414 33.9318588,24.8013755 33.6201814,24.6540823 C33.1669369,24.4398869 32.6209593,24.1818675 32.1462585,23.9575323 C31.86879,24.012411 31.5011714,23.8495206 31.3356009,23.8182223 C30.9321534,23.7803113 30.7208674,23.7672552 30.4512472,23.8182223 C30.0126994,25.2932833 29.7782678,23.8241593 29.7142857,23.7485673 C29.6582773,23.6823959 28.3877551,23.7485673 28.3877551,23.7485673 L25.0714286,23.7485673 L25.0714286,22.3554673 L25.4399093,22.3554673 L26.3979592,22.3554673 L28.0929705,22.3554673 C28.0929705,22.3554673 29.1872865,22.4686721 29.7142857,22.3554673 C29.8836697,22.3190819 29.7102993,22.0147279 29.7879819,21.8678822 C30.0315423,21.4074727 30.4512472,22.0024996 30.4512472,22.3554673 L30.9671202,22.3554673 L30.9671202,22.4251223 L31.7040816,22.4251223 C33.5824341,22.7108835 36.3469388,24.3058073 36.3469388,24.3058073 Z M44.601247,23.914368 C44.5755843,23.689368 44.8344765,23.914368 44.601247,23.914368 L44.601247,23.914368 Z M49.0967118,23.566093 C49.0710492,23.341093 49.3299414,23.566093 49.0967118,23.566093 L49.0967118,23.566093 Z M49.9807256,23.6096781 C50.2057256,23.5840154 49.9807256,23.8429076 49.9807256,23.6096781 Z M35.2414966,46.1774776 L35.2414966,40.4657675 C35.2660601,40.4654809 35.2414966,40.4193308 35.2414966,40.3961125 C35.6172134,39.8515528 35.2414966,39.584228 35.2414966,39.4905975 L35.2414966,38.6547375 L35.3151927,38.6547375 C35.2864526,38.314846 35.7223855,36.9316571 35.9784581,37.0526725 C36.3194569,37.2138225 35.9618331,37.6570523 35.9047619,37.8188775 C35.7973214,38.1235243 36.3194695,38.1494235 36.1995465,38.3761175 C36.0354887,38.6862407 35.8552538,38.7701158 36.0521542,39.1423225 C36.1993843,39.4206358 35.7966366,39.4951701 35.9047619,39.6995625 C35.9974024,39.8746836 36.192557,40.0112135 36.1258503,40.3264575 C36.1235397,40.3373774 35.83684,40.5408801 35.9047619,40.6050775 C36.2384468,40.9204647 35.9929247,41.1909523 35.9047619,41.4409375 C35.7974467,41.7452291 36.2261468,41.7583009 36.1258503,42.1374875 C36.1156147,42.176185 35.9138278,42.3207463 35.9047619,42.3464525 C35.8323734,42.5517098 36.3375025,42.8429563 36.1995465,42.9733475 C36.1500477,43.020132 35.8232898,43.3069235 35.9047619,43.4609325 C36.0066382,43.6535123 36.2092358,43.6241075 36.1258503,44.0181725 C36.1256603,44.0190707 35.9113093,44.2147607 35.9047619,44.2271375 C35.8019211,44.4215406 36.3023873,44.5899745 36.1995465,44.7843776 C36.1528379,44.8726722 35.9429841,45.0242737 35.9047619,45.1326526 C35.7689547,45.5177332 36.3248976,45.4041153 36.1995465,45.7595476 C36.1749245,45.8293631 35.823941,46.0246994 35.9047619,46.1774776 C35.9271597,46.2198169 36.1148256,46.4144168 36.1258503,46.4560976 C36.2244278,46.8287854 35.785887,46.8155784 35.9047619,47.1526476 C35.9166715,47.1864171 36.2844117,47.4903659 36.1995465,47.5705776 C36.1258503,47.6402326 35.9784581,47.6402326 35.9047619,47.7098876 C35.7721739,48.2947976 36.0692653,48.0905083 36.1995465,48.3367826 C36.2803674,48.4895608 35.9293839,48.684897 35.9047619,48.7547126 C35.7872189,49.0880052 36.2142621,49.1030991 36.1258503,49.5209176 C36.1106155,49.5929146 35.9395026,49.5249013 35.9047619,49.5905726 C35.781212,49.8241227 36.108071,50.1310082 36.1995465,50.2174676 C36.2602069,50.2748017 35.8441015,50.5084086 35.9047619,50.5657426 C36.102917,50.7530318 35.6620576,50.5002693 35.9047619,50.8443626 C36.4530863,51.621748 35.6797218,51.1117777 35.9047619,51.7498776 C35.9293839,51.8196932 36.2803674,52.0150295 36.1995465,52.1678077 C36.1640209,52.2349627 35.9284421,52.3792825 35.9047619,52.4464277 C35.7903575,52.7708208 36.3317542,52.8234066 36.1995465,53.0733227 C36.1604784,53.1471743 35.9607267,53.2461508 35.9047619,53.3519427 C35.7891424,53.5705016 36.2016343,53.7619793 36.1258503,54.0484927 C36.1148256,54.0901734 35.9271597,54.2847734 35.9047619,54.3271127 C35.836396,54.4563467 36.1086652,54.6104164 36.1258503,54.6753877 C36.2320316,55.0768228 35.7932955,55.0201761 35.9047619,55.4415927 C35.9325847,55.5467812 36.2162298,55.6032523 36.1258503,55.8595227 C36.0643709,56.0338474 35.8174407,56.0169761 35.9047619,56.3471077 C35.9091359,56.3636442 36.1224874,56.470525 36.1258503,56.4864177 C36.2092358,56.8804827 36.0066382,56.8510779 35.9047619,57.0436577 C35.8143909,57.2144887 36.1896332,57.5084364 36.1258503,57.8098627 C36.1180547,57.8467037 35.8290384,57.8776015 35.9047619,57.9491727 C35.9085128,57.952718 36.245773,58.6238769 36.0521542,58.7153777 C35.8355856,58.8177242 35.3623882,57.5257552 35.3151927,57.3919327 C34.9988466,55.7153024 35.6504912,52.6309596 35.2414966,51.4712576 C35.4127755,51.147416 35.2414966,51.0383538 35.2414966,50.9836726 C35.2265567,50.2213396 35.3668529,50.1133294 35.2414966,49.5209176 C35.2147929,49.0794594 35.3387542,49.1475265 35.2414966,48.9636776 C35.1556029,48.2902822 35.3627954,48.3571122 35.2414966,48.1278176 L35.2414966,46.1774776 Z M37.452381,43.9485175 C37.3853934,43.6550769 37.5530877,42.7423198 37.3049887,42.6250725 C37.1981315,42.0511811 37.3982873,42.3093973 37.5260771,42.0678325 C37.6180268,41.8940173 37.2410051,41.6736577 37.3049887,41.3712825 C37.329077,41.2574453 37.4392254,41.1747517 37.5260771,41.0926625 C37.6285892,40.9957717 37.1530674,40.7529487 37.2312925,40.6050775 C37.2837217,40.5059691 37.4953099,40.3440427 37.5260771,40.2568025 C37.618765,39.9939863 37.3387466,39.8707793 37.2312925,39.7692175 C37.1585476,39.7004616 37.5163104,39.378981 37.5260771,39.3512875 C37.6110585,39.1103231 37.3262963,38.9534967 37.2312925,38.8637025 C37.1479569,38.7849366 37.5010875,38.423356 37.5260771,38.3761175 C37.6043022,38.2282463 37.1287804,37.9854233 37.2312925,37.8885325 C37.4305835,37.7001697 37.5876137,37.3894547 37.3786848,37.1919825 C37.2286737,37.0501972 37.5918529,35.9692769 37.3786848,35.8685374 C36.9620256,35.6716316 36.3849689,36.9493072 36.4206349,36.9830175 C36.487832,37.0465297 36.6866954,37.2498455 36.7154195,37.3312925 C36.7824319,37.5213056 36.5011694,37.7427591 36.4206349,37.8188775 C36.378233,37.8589543 36.7113726,38.1518527 36.7154195,38.1671525 C36.8028834,38.4978235 36.5054946,38.5639797 36.4206349,38.7243925 C36.347649,38.8623599 36.6869946,39.0617239 36.7154195,39.1423225 C36.7777259,39.3189919 36.4984652,39.626 36.4206349,39.6995625 C36.3973611,39.7215601 36.7077483,40.0260857 36.7154195,40.0478375 C36.8342944,40.3849067 36.3957536,40.3716996 36.4943311,40.7443875 C36.5045667,40.7830849 36.7063536,40.9276463 36.7154195,40.9533525 C36.7801786,41.1369765 36.3663269,41.5289175 36.4206349,41.5802475 C36.4783079,41.634758 36.6997555,41.7996474 36.7154195,41.8588675 C36.7645155,42.0444829 36.384306,42.4514257 36.4206349,42.4857625 C36.5428654,42.6012904 36.7905839,42.7588315 36.7154195,43.0430025 C36.7113726,43.0583023 36.378233,43.3512007 36.4206349,43.3912775 C36.5352407,43.4995989 36.7844402,43.6875739 36.7154195,43.9485175 C36.6921773,44.0363886 36.3445208,44.2225668 36.4206349,44.3664475 C36.4900079,44.4975854 36.8200028,44.5574872 36.7154195,44.8540326 C36.6907975,44.9238481 36.339814,45.1191844 36.4206349,45.2719626 C36.4666517,45.3589495 36.6758405,45.4383566 36.7154195,45.5505826 C36.805799,45.806853 36.5221539,45.8633241 36.4943311,45.9685126 C36.4032122,46.3130019 36.6663243,46.2704855 36.7154195,46.4560976 C36.8347115,46.9071001 36.3833224,46.7329615 36.4943311,47.1526476 C36.5130328,47.2233524 36.7896228,47.4303089 36.7154195,47.5705776 C36.6402008,47.7127657 36.424607,47.7945596 36.4943311,48.0581626 C36.5013895,48.0848483 36.7119708,48.2540891 36.7154195,48.2671276 C36.7861056,48.5343678 36.5508743,48.6640395 36.4943311,48.8243676 C36.3891262,49.1226753 36.6815099,49.0444421 36.7154195,49.1726426 C36.8061798,49.5157762 36.5333214,49.5128184 36.4943311,49.6602276 C36.382496,50.083038 36.667553,49.8971906 36.7154195,50.0781576 C36.7961424,50.3833432 36.5515278,50.4732167 36.4943311,50.6353976 C36.4109233,50.8718997 36.6815101,50.9251276 36.7154195,51.0533276 C36.8269236,51.4748865 36.4491348,51.4554768 36.6417234,51.8195326 C36.6927775,51.9160417 36.7507196,52.1040052 36.7154195,52.2374627 C36.7113726,52.2527625 36.378233,52.5456608 36.4206349,52.5857377 C36.5585654,52.7161047 36.8036661,52.8093473 36.7154195,53.1429777 C36.6815101,53.2711777 36.4109233,53.3244056 36.4943311,53.5609077 C36.5033969,53.5866139 36.7051839,53.7311752 36.7154195,53.7698727 C36.8061798,54.1130062 36.5333214,54.1100484 36.4943311,54.2574577 C36.3729727,54.7162722 36.825855,54.5017642 36.7154195,55.0236627 C36.703112,55.0818255 36.4061022,55.2051561 36.4943311,55.3719377 C36.5008785,55.3843145 36.7152294,55.5800045 36.7154195,55.5809027 C36.806897,56.0132092 36.5612969,55.9482616 36.4943311,56.1381427 C36.3882614,56.4389027 36.6881846,56.3577105 36.7154195,56.4864177 C36.8030429,56.9005105 36.3895664,56.9555632 36.4943311,57.2526227 C36.5470583,57.4021306 36.8058797,57.3982087 36.7154195,57.7402077 C36.7051839,57.7789052 36.5033969,57.9234665 36.4943311,57.9491727 C36.3760117,58.2846667 36.9037001,58.2704874 36.7154195,58.7153777 C36.7088039,58.7310099 36.4155058,58.9146471 36.4943311,59.0636527 C36.627091,59.3146128 36.8823023,59.6301036 37.1575964,59.7602028 C37.3166385,59.8353633 37.5621973,59.4460673 37.5260771,59.4119277 C37.4841173,59.3722688 37.1591487,58.9925306 37.2312925,58.9243427 C37.5516616,58.6215412 37.4754598,57.6445243 37.3049887,57.3222777 C37.1981315,56.7483863 37.3982873,57.0066025 37.5260771,56.7650377 C37.5885354,56.646971 37.2750687,56.1795184 37.2312925,56.1381427 C37.1707015,56.0808742 37.4499129,55.9408412 37.452381,55.9291777 C37.5710919,55.3681707 37.1862777,55.7239797 37.3049887,55.1629727 C37.3085125,55.1463195 37.6377614,54.8506028 37.5260771,54.7450427 C37.4032502,54.628951 37.3541194,54.4432043 37.2312925,54.3271127 C37.1859945,54.2842986 37.5806576,53.9942905 37.5260771,53.8395277 C37.5195009,53.8208809 37.1885521,53.5316494 37.2312925,53.4912527 C37.2605271,53.4636212 37.5647918,53.0071961 37.5260771,52.9340127 C37.4868492,52.859859 37.2225834,52.3460609 37.3049887,52.3071177 C37.3838789,52.2698355 37.6102074,52.1875316 37.5260771,52.0284977 C37.3979126,51.7862246 37.2032819,50.6618723 37.3786848,50.4960876 C37.4819459,50.3984889 37.4648309,49.1088712 37.3049887,49.0333326 C37.1981315,48.4594412 37.3982873,48.7176574 37.5260771,48.4760926 C37.6086932,48.3199209 37.1179769,47.9562995 37.2312925,47.8491976 C37.7429488,47.3655981 37.1779346,47.4744625 37.3049887,46.8740276 C37.3749602,46.5433543 37.593869,46.5201721 37.2312925,46.1774776 C37.1552206,46.105577 37.6249811,45.6440632 37.5260771,45.5505826 C37.427608,45.457513 37.2970025,45.396176 37.2312925,45.2719626 C37.1586914,45.1347225 37.4653687,44.841757 37.5260771,44.7843776 C37.56594,44.7467005 37.3081132,44.4508686 37.3049887,44.4361026 C37.2231316,44.0492604 37.3595324,44.1240319 37.452381,43.9485175 Z M37.010544,59.3687635 C36.9848814,59.1437635 37.2437736,59.3687635 37.010544,59.3687635 L37.010544,59.3687635 Z M37.2535185,58.4371786 C37.0285185,58.4115159 37.2535185,58.6704081 37.2535185,58.4371786 L37.2535185,58.4371786 Z M38.7973073,52.3071177 C38.82297,52.5321177 38.5640778,52.3071177 38.7973073,52.3071177 L38.7973073,52.3071177 Z M38.1156463,42.0678325 C38.1412238,41.8305281 37.8912406,41.7132869 37.8208617,41.5802475 C37.7532151,41.4523732 38.0799755,41.229747 38.1156463,41.1623175 C38.3059622,40.8025577 37.6123271,40.662867 38.1156463,40.1871475 C38.2237739,40.0849491 37.6512995,39.7205167 37.8945578,39.4905975 C37.9285578,39.4584619 38.1755893,39.1989785 38.1156463,39.1423225 C38.0605007,39.0902008 37.7025343,38.8224958 37.8208617,38.6547375 C37.8950736,38.5495237 38.2099785,38.504286 38.1156463,38.2368075 C38.0869222,38.1553605 37.8880587,37.9520447 37.8208617,37.8885325 C37.7809142,37.8507755 38.0377056,37.5563044 38.0419501,37.5402575 C38.1188794,37.2494141 37.7341388,37.0772972 37.8208617,36.9133624 C37.8798993,36.8017619 38.0566086,36.676688 38.1156463,36.5650874 C38.231643,36.3458155 37.7589645,36.1248535 37.968254,35.7292274 C38.0503195,35.5740966 38.6873936,35.4161594 38.8526077,35.5202624 C38.9461875,35.579228 38.6435584,35.9850894 38.6315193,36.0078474 C38.5240124,36.2110709 38.9313174,36.3371678 38.8526077,36.6347424 C38.8502322,36.6437233 38.6415847,36.8246805 38.6315193,36.8437074 C38.4024975,37.2766341 39.2573488,37.1577104 38.5578231,37.8188775 C38.3823848,37.9846956 38.8127474,38.0347066 38.8526077,38.0974975 C39.0751194,38.4480145 38.5050711,38.6246737 38.6315193,38.8637025 C38.827805,39.2347472 38.8210116,40.1772195 38.6315193,40.5354225 C38.5251129,40.7365655 38.9440566,40.9030147 38.8526077,41.1623175 C38.8352915,41.2114176 38.4821569,41.6480405 38.5578231,41.7195575 C38.5592836,41.7209379 38.8145326,41.8925352 38.9263039,41.9981775 C38.9495777,42.0201751 38.6391905,42.3247008 38.6315193,42.3464525 C38.5535303,42.5675899 38.9921566,42.8414509 38.9263039,42.9036925 C38.8939362,42.9342853 38.593325,43.3551776 38.6315193,43.3912775 C39.0370861,43.774605 38.5466069,44.056024 38.7052154,44.5057576 C38.7096378,44.5182973 38.9117473,44.7009642 38.9263039,44.7147226 C38.9802558,44.765716 38.6488606,45.0998717 38.6315193,45.1326526 C38.5589182,45.2698926 38.8655955,45.5628581 38.9263039,45.6202376 C39.028816,45.7171284 38.5532942,45.9599514 38.6315193,46.1078226 C38.7080627,46.2525148 38.8093362,46.4151988 38.9263039,46.5257526 C38.9420732,46.5406572 38.6446234,46.9189116 38.6315193,46.9436826 C38.5917584,47.0188437 38.8894789,47.4312239 38.6315193,47.9188526 C38.5589182,48.0560926 38.8655955,48.3490582 38.9263039,48.4064376 C38.9690443,48.4468343 38.6380955,48.7360658 38.6315193,48.7547126 C38.5123623,49.0925816 38.9633335,49.1722993 38.8526077,49.3816076 C38.5267888,49.9975127 38.9712415,49.8657902 38.8526077,50.4264326 C38.8309244,50.5289042 38.5413637,50.5887271 38.6315193,50.8443626 C38.6625939,50.9324745 39.0362861,51.0543899 38.9263039,51.2622926 C38.8809304,51.3480634 38.5247629,51.4784179 38.6315193,51.6802226 C38.7014085,51.8123364 38.916005,51.9977792 38.8526077,52.2374627 C38.8185082,52.3663813 38.3997381,52.3666663 38.7052154,52.6553927 C39.1241275,53.0513336 38.4340249,53.5135529 38.6315193,53.7002177 C38.7590277,53.8207342 39.0476253,53.6573383 38.8526077,54.1181477 C38.7616511,54.3330702 38.5344867,54.5983804 38.5578231,54.6057327 C38.7484531,54.6657916 38.804859,54.6096514 38.8526077,54.7450427 C39.0157553,55.2076466 38.4552839,55.2750212 38.9263039,55.7202127 C38.9948976,55.7850451 38.3336421,56.2411637 38.8526077,56.4864177 C38.9166355,57.2343561 38.8658049,56.7525642 38.6315193,56.9740027 C38.5488661,57.0521235 38.8893236,57.5659453 38.9263039,57.6008977 C38.9495777,57.6228953 38.6391905,57.927421 38.6315193,57.9491727 C38.5692129,58.1258421 38.8484736,58.4328503 38.9263039,58.5064127 C38.9733156,58.5508466 38.6590278,58.8983426 38.6315193,58.9243427 C38.5747238,58.9780238 38.9099756,59.4582265 38.8526077,59.6208928 C38.8434642,59.6468191 38.584296,59.8744915 38.5578231,59.8995128 C38.3415483,60.1039281 38.9711641,60.0569925 38.7789116,60.1781328 C38.6518001,60.2582269 38.0786379,60.0968181 37.8945578,60.0388228 C37.6313472,59.955897 38.1064331,59.6644327 38.1156463,59.6208928 C38.1186547,59.6066754 37.9539196,58.7714844 38.1156463,58.9243427 C38.2427552,59.0444816 37.7802261,58.9627501 37.8945578,58.8546877 C38.1970351,58.5687969 38.0806824,58.3340561 37.8208617,58.0884827 C37.7784597,58.0484059 38.1115994,57.7555075 38.1156463,57.7402077 C38.2353831,57.2875235 37.6115091,57.2415304 37.968254,56.9043477 C38.2348702,56.6523514 37.8045306,56.2232333 37.8208617,56.2077977 C37.8385866,56.1910448 38.1122296,55.9420947 38.1156463,55.9291777 C38.2061064,55.5871787 37.9472851,55.5911005 37.8945578,55.4415927 C37.7826839,55.1243748 38.2124698,55.0414446 38.1156463,54.6753877 C38.0878235,54.5701992 37.8041784,54.5137281 37.8945578,54.2574577 C37.9033795,54.232444 38.1027336,54.0851065 38.1156463,54.0484927 C38.2345212,53.7114235 37.7959803,53.7246305 37.8945578,53.3519427 C37.943653,53.1663306 38.2067651,53.208847 38.1156463,52.8643577 C38.0825986,52.7394158 37.7693885,52.6133839 37.8945578,52.3767727 C37.9352338,52.2998817 38.1973164,52.1904178 38.1156463,51.9588427 C38.0956281,51.9020812 37.8586944,51.7517389 37.8208617,51.6802226 C37.7478758,51.5422552 38.0872214,51.3428912 38.1156463,51.2622926 C38.2228696,50.9582615 37.7152722,50.8349965 37.8208617,50.6353976 C37.8635099,50.5547785 38.2085954,50.3235171 38.1156463,50.1478126 C37.6559742,49.2788809 38.2696721,49.6790371 38.1156463,49.2422976 C38.1033571,49.2074517 37.7640134,48.8780986 37.8208617,48.8243676 C37.9013962,48.7482492 38.1826586,48.5267958 38.1156463,48.3367826 C38.1033571,48.3019367 37.7640134,47.9725836 37.8208617,47.9188526 C37.9127569,47.8319965 38.0742002,47.6880978 38.1156463,47.5705776 C38.2157939,47.2866095 37.888217,47.2799714 37.8208617,47.1526476 C37.7222436,46.9662269 38.2312682,46.7443162 38.1156463,46.5257526 C38.0707921,46.4409635 37.7362522,46.1981074 37.8208617,46.0381676 C37.864346,45.9559679 38.063937,45.8572951 38.1156463,45.7595476 C38.1918682,45.615463 37.7483657,45.2011732 37.8208617,45.1326526 C37.8848542,45.0721691 38.0914653,44.9225975 38.1156463,44.8540326 C38.2013183,44.61111 37.8817491,44.4815448 37.8208617,44.3664475 C37.7585264,44.2486133 38.0804259,43.9454407 38.1156463,43.8788625 C38.1940819,43.7305934 37.8563481,43.5280135 37.8208617,43.4609325 C37.7108794,43.2530298 38.0845717,43.1311144 38.1156463,43.0430025 C38.2863939,42.5588485 37.6547831,42.9390158 38.1156463,42.0678325 L38.1156463,42.0678325 Z M38.4107708,59.2294535 C38.3851081,59.0044535 38.6440003,59.2294535 38.4107708,59.2294535 L38.4107708,59.2294535 Z M38.2814343,52.4032634 C38.307097,52.1782634 38.0482048,52.4032634 38.2814343,52.4032634 L38.2814343,52.4032634 Z M38.5800491,58.4371786 C38.3550491,58.4115159 38.5800491,58.6704081 38.5800491,58.4371786 L38.5800491,58.4371786 Z M38.7274414,59.2730386 C38.5024414,59.2473759 38.7274414,59.5062681 38.7274414,59.2730386 L38.7274414,59.2730386 Z M38.1893424,59.9695886 C38.4143424,59.9439259 38.1893424,60.2028181 38.1893424,59.9695886 L38.1893424,59.9695886 Z M37.968254,55.2330485 C38.193254,55.2073858 37.968254,55.466278 37.968254,55.2330485 L37.968254,55.2330485 Z M38.1378722,38.8641233 C37.9128722,38.8384606 38.1378722,39.0973528 38.1378722,38.8641233 Z M40.1791383,44.5754126 C39.9808259,44.1642309 40.3514191,41.8706294 40.031746,41.7195575 C39.698486,40.9859515 40.1939952,41.4544238 40.2528345,41.2319725 C40.3439533,40.8874832 40.0808412,40.9299996 40.031746,40.7443875 C40.0057511,40.6461097 40.3731028,39.3256509 40.031746,39.0030125 C40.4178019,38.6753939 39.9070331,37.9742531 40.031746,37.6795675 C40.0770824,37.5724416 40.3866268,37.4577483 40.1791383,37.2616375 C39.8396582,36.9407728 40.3854696,36.6765016 40.2528345,36.4257774 C40.2101863,36.3451583 39.8651008,36.1138969 39.9580499,35.9381924 C39.9803902,35.8959618 40.3340323,35.7315909 40.1054422,35.6595724 C39.539684,35.4813275 39.4168132,35.5682081 39.2210884,35.9381924 C39.1732036,36.0287106 39.4303111,36.311262 39.4421769,36.3561224 C39.5424733,36.7353091 39.1137733,36.7483809 39.2210884,37.0526725 C39.2301543,37.0783787 39.4319412,37.22294 39.4421769,37.2616375 C39.532637,37.6036365 39.2738157,37.5997146 39.2210884,37.7492225 C39.1187248,38.0394739 39.5012798,38.1947384 39.2210884,38.7243925 C39.1516039,38.8557411 39.6030094,39.1992742 39.515873,39.2816325 C39.4706345,39.3243903 39.1671452,39.667247 39.2210884,39.7692175 C39.3001384,39.9186479 39.349996,39.8997919 39.515873,39.9781825 C39.593331,40.0147878 39.1733116,40.6089165 39.2210884,40.7443875 C39.2276646,40.7630343 39.5586134,41.0522658 39.515873,41.0926625 C39.4046485,41.197788 39.2708295,41.2998969 39.2210884,41.4409375 C39.1454583,41.6553864 39.4258342,41.843421 39.515873,41.9285225 C39.6013949,42.0093548 39.1372251,42.4064979 39.4421769,42.6947275 C39.643506,43.3131698 39.3020984,43.0222643 39.2210884,43.2519675 C39.1163238,43.5490271 39.5298003,43.6040798 39.4421769,44.0181725 C39.4419868,44.0190707 39.2276359,44.2147607 39.2210884,44.2271375 C39.1514621,44.3587543 39.4278902,44.5078961 39.4421769,44.5754126 C39.5255623,44.9694776 39.3229647,44.9400728 39.2210884,45.1326526 C39.146952,45.2727948 39.5043399,45.5354309 39.4421769,45.8292026 C39.3990089,46.0332069 39.0342989,46.1936866 39.4421769,46.3864426 C39.57859,46.9990588 39.3430468,46.713141 39.2210884,46.9436826 C39.168584,47.0429333 39.4727332,47.4601484 39.515873,47.5009226 C39.5511308,47.534247 39.1482031,47.9203852 39.2210884,48.0581626 C39.2484411,48.1098682 39.4689859,48.2924666 39.515873,48.3367826 C39.634627,48.4490247 39.1509012,48.8310005 39.2210884,48.9636776 C39.2652928,49.0472385 39.4395568,49.1701663 39.515873,49.2422976 C39.6148483,49.3358456 39.2444875,49.6856507 39.2210884,49.7298826 C39.0731459,50.0095428 39.8427748,50.2371171 39.2947846,50.4960876 C39.6024908,51.4071241 39.0537497,52.0604473 39.4421769,52.7947027 C39.57859,53.4073189 39.3430468,53.1214011 39.2210884,53.3519427 C39.0830547,53.6128719 39.694472,53.8301119 39.4421769,54.1878027 C39.1541911,54.5960937 39.6618364,54.8160483 39.2210884,55.2326277 C39.1481622,55.301555 39.5785246,55.6818745 39.515873,55.8595227 C39.476294,55.9717487 39.2671052,56.0511558 39.2210884,56.1381427 C39.0842433,56.3968251 39.6198996,56.4700709 39.515873,56.7650377 C39.476294,56.8772637 39.2671052,56.9566708 39.2210884,57.0436577 C39.136479,57.2035975 39.4710189,57.4464536 39.515873,57.5312427 C39.5884741,57.6684827 39.2817968,57.9614483 39.2210884,58.0188277 C39.2044484,58.0345553 39.502599,58.4938666 39.515873,58.5064127 C39.5554256,58.5437965 39.2107391,58.8351241 39.3684807,59.1333077 C39.5167515,59.4135883 39.052568,60.3075057 39.7369615,60.1781328 C40.5051376,60.0329222 39.9243371,58.2218661 40.2528345,57.6008977 C40.3105692,57.4917601 40.0671762,57.3865721 40.031746,57.2526227 C39.9331685,56.8799349 40.3717094,56.8931419 40.2528345,56.5560727 C40.1904745,56.3792513 39.9222557,56.5520882 40.031746,56.1381427 C40.0640385,56.0160561 40.3339804,55.8806465 40.2528345,55.6505577 C40.2289221,55.5827544 40.0014541,55.3843309 39.9580499,55.3022827 C39.8619849,55.1206883 40.2278929,55.1179584 40.2528345,55.0236627 C40.3435947,54.6805291 40.0707364,54.6834869 40.031746,54.5360777 C39.9563781,54.2511372 40.1579627,54.0584999 40.3265306,53.9788377 C40.4672197,53.9123505 40.0625942,53.7763455 40.031746,53.6305627 C39.9131517,53.0701066 40.4379198,53.0392938 39.9580499,52.5857377 C39.8794178,52.5114173 40.3346627,52.1831801 40.2528345,52.0284977 C40.2397304,52.0037266 39.9422805,51.6254723 39.9580499,51.6105676 C40.0530139,51.520811 40.3282245,51.2670956 40.2528345,51.0533276 C40.2161122,50.9492019 39.9982577,50.9203686 39.9580499,50.8443626 C39.8414554,50.6239606 40.21117,50.4355372 40.2528345,50.3567776 C40.4628907,49.9597021 39.6158745,50.0532948 40.2528345,49.4512626 C40.3310156,49.3773685 39.8798687,48.8982617 39.9580499,48.8243676 C39.9845228,48.7993464 40.243691,48.571674 40.2528345,48.5457476 C40.3339804,48.3156588 40.0640385,48.1802492 40.031746,48.0581626 C39.8911785,47.5267248 40.4368361,47.4658694 39.9580499,47.0133376 C39.8979418,46.9565255 40.1705482,46.8206108 40.1791383,46.8043726 C40.3993442,46.3881108 39.9210378,46.4567176 40.031746,46.0381676 C40.0410455,46.0030095 40.2401902,45.7954002 40.2528345,45.7595476 C40.3331407,45.5318398 40.0741,45.4617121 40.031746,45.3416176 C39.9032779,44.977347 40.2793485,44.954273 40.1791383,44.5754126 Z M39.7369615,38.2372283 C39.9619615,38.2115656 39.7369615,38.4704578 39.7369615,38.2372283 L39.7369615,38.2372283 Z M39.9065797,38.0282633 C39.6815797,38.0026006 39.9065797,38.2614928 39.9065797,38.0282633 L39.9065797,38.0282633 Z M39.8843537,59.2325737 C39.9410294,59.1546937 40.1516149,59.0531383 39.8843537,59.2325737 L39.8843537,59.2325737 Z M40.1119036,59.4815828 C39.9878994,59.1816294 39.9695562,59.2928101 40.1119036,59.4815828 L40.1119036,59.4815828 Z M39.7553572,38.5419182 C39.7810199,38.3169182 39.5221277,38.5419182 39.7553572,38.5419182 L39.7553572,38.5419182 Z M39.9580499,38.1671525 C40.2575417,38.2610098 40.0265902,38.2136544 39.9580499,38.1671525 L39.9580499,38.1671525 Z M39.9065797,38.3765383 C39.6815797,38.3508756 39.9065797,38.6097678 39.9065797,38.3765383 L39.9065797,38.3765383 Z M39.515873,54.3271127 C39.5937529,54.3806805 39.6953083,54.5797185 39.515873,54.3271127 L39.515873,54.3271127 Z M40.053972,52.2378835 C39.828972,52.2122208 40.053972,52.471113 40.053972,52.2378835 L40.053972,52.2378835 Z M39.7369615,56.0689085 C39.9619615,56.0432458 39.7369615,56.302138 39.7369615,56.0689085 L39.7369615,56.0689085 Z M39.9065797,58.9247636 C39.6815797,58.8991009 39.9065797,59.1579931 39.9065797,58.9247636 Z M40.6950113,44.0878275 C40.8326618,44.3933626 40.6173623,45.3266732 40.6213152,45.3416176 C40.6821941,45.57178 40.960219,45.272428 40.8424036,45.8292026 C40.8207203,45.9316742 40.5311596,45.991497 40.6213152,46.2471326 C40.6740424,46.3966404 40.9328638,46.3927186 40.8424036,46.7347176 C40.8145808,46.8399061 40.5309357,46.8963771 40.6213152,47.1526476 C40.6740424,47.3021554 40.9328638,47.2982336 40.8424036,47.6402326 C40.8084942,47.7684327 40.5379075,47.8216605 40.6213152,48.0581626 C40.7038676,48.2922394 40.9488017,48.0429292 40.8424036,48.5457476 C40.8346992,48.5821575 40.6414311,48.786342 40.6213152,48.8243676 C40.5293655,48.9981828 40.9063872,49.2185424 40.8424036,49.5209176 C40.8143905,49.6533026 40.4333153,49.5834659 40.6213152,49.9388476 C40.6885224,50.0658913 40.9250781,50.1138687 40.8424036,50.4264326 C40.7945371,50.6073997 40.5094801,50.4215523 40.6213152,50.8443626 C40.6256892,50.8608991 40.8390407,50.9677799 40.8424036,50.9836726 C40.960219,51.5404472 40.6821941,51.2410952 40.6213152,51.4712576 C40.5301963,51.815747 40.7933085,51.7732305 40.8424036,51.9588427 C40.9195775,52.2506109 40.5203968,52.4646236 40.6213152,52.6553927 C40.6978007,52.7999755 40.9301072,52.8114003 40.8424036,53.1429777 C40.8084942,53.2711777 40.5379075,53.3244056 40.6213152,53.5609077 C40.6272706,53.5777941 40.8416584,53.7663508 40.8424036,53.7698727 C40.9438647,54.2493599 40.7529858,54.070782 40.6213152,54.2574577 C40.3654258,54.6202441 40.718212,54.3948328 40.7687075,54.4664227 C40.9598884,54.7374689 40.4177722,56.1547261 40.9160998,56.6257277 C40.989026,56.694655 40.5586636,57.0749745 40.6213152,57.2526227 C40.9885571,58.2939351 40.4594674,57.6992192 40.6213152,58.1581377 C40.6310819,58.1858313 40.9888447,58.5073118 40.9160998,58.5760677 C40.5467073,58.9252045 40.6274643,59.0694647 40.9160998,59.3422727 C40.9491996,59.3735575 40.6993848,59.6946814 40.7687075,59.7602028 C40.7940764,59.7841805 41.4586854,59.3170249 41.5056689,59.2726177 C41.5435054,59.2368561 41.307578,58.9505249 41.3582766,58.8546877 C41.5841596,58.4276946 41.645364,58.6311724 41.4319728,58.2277927 C41.7974164,57.9284141 41.3713054,56.0971581 41.5793651,55.9988327 C41.6015307,55.6045269 41.5348762,55.5388533 41.3582766,55.3719377 C41.2514933,55.2710098 41.8043644,54.8880492 41.5793651,54.6753877 C41.4811036,54.5825144 41.4565382,54.419986 41.3582766,54.3271127 C41.2968681,54.2690715 41.6451448,54.0709396 41.6530612,54.0484927 C41.7779364,53.6944099 41.2500275,53.454256 41.6530612,53.0733227 C41.7249935,53.0053348 41.3756465,52.6882273 41.3582766,52.6553927 C41.27137,52.4911104 41.5452542,52.3715985 41.5793651,52.3071177 C41.7757303,51.9359226 41.2310243,51.5915321 41.6530612,51.1926376 C41.7451527,51.105596 41.2980325,50.7619933 41.3582766,50.7050526 C41.4933862,50.5773518 41.5916478,50.4148235 41.7267574,50.2871226 C41.7868655,50.2303105 41.5142591,50.0943959 41.5056689,50.0781576 C41.3779867,49.8367961 41.4954814,49.6794854 41.5793651,49.5209176 L41.5793651,49.1029876 L41.4319728,49.1029876 C41.3101856,48.6213923 41.5474635,48.6757071 41.6530612,48.4760926 C41.741479,48.3089538 41.2167313,47.9829813 41.3582766,47.8491976 C41.4293909,47.7819829 41.8008415,47.5711276 41.6530612,47.3616126 C41.5658096,47.2379118 41.2470521,47.1184631 41.3582766,47.0133376 C41.4254737,46.9498253 41.6243372,46.7465095 41.6530612,46.6650626 C41.7382842,46.4234135 41.4600445,46.3797945 41.4319728,46.2471326 C41.3712996,45.9604019 41.4984566,45.7254634 41.4319728,45.4112726 C41.36819,45.1098462 41.7434322,44.8158986 41.6530612,44.6450676 C41.5734223,44.4945237 41.352152,44.4592579 41.4319728,44.1574825 C41.4429975,44.1158018 41.6306634,43.9212018 41.6530612,43.8788625 C41.7412901,43.712081 41.4442802,43.5887504 41.4319728,43.5305875 C41.3679892,43.2282123 41.7450109,43.0078528 41.6530612,42.8340375 C41.5511849,42.6414577 41.3485873,42.6708626 41.4319728,42.2767975 C41.5235265,41.8441309 41.724547,40.9512634 41.3582766,40.6050775 C41.3158024,40.5649323 41.6407045,40.2801607 41.6530612,40.2568025 C41.7226099,40.1253326 41.4652368,39.9017524 41.4319728,39.8388725 C41.2321963,39.4612291 41.7834645,39.5120802 41.6530612,39.1423225 C41.6247798,39.0621308 41.27995,38.9421106 41.3582766,38.7940475 C41.4294319,38.6595406 41.5884879,38.4981824 41.6530612,38.3761175 C41.6687449,38.3464702 41.2894121,37.7400891 41.2845805,37.7492225 C41.1889806,37.9299378 41.8641901,37.5308441 41.5793651,37.2616375 C41.1194684,36.8269593 41.798235,36.7698588 41.6530612,36.4954324 C41.6134632,36.4205792 40.7325591,35.8330486 40.6213152,35.9381924 C40.5023246,36.0506581 40.9092727,36.4451355 40.8424036,36.6347424 C40.8182227,36.7033074 40.6116116,36.852879 40.547619,36.9133624 C40.5303054,36.9297267 40.8335061,37.3060636 40.8424036,37.3312925 C40.9555625,37.6521539 40.5159092,37.6593092 40.6213152,37.9581875 C40.6377985,38.0049258 40.7912907,38.1884973 40.8424036,38.2368075 C40.8975924,38.28897 41.0306654,38.0354442 41.0634921,38.0974975 C41.14199,38.2458845 40.5268585,38.5762491 40.6213152,38.9333575 C40.6247639,38.946396 40.8353451,39.1156368 40.8424036,39.1423225 C40.9297248,39.4724541 40.6827947,39.4555828 40.6213152,39.6299075 C40.5159092,39.9287857 40.9555625,39.9359411 40.8424036,40.2568025 C40.7863859,40.4156403 40.4223597,40.5563418 40.547619,40.6747325 C40.6116116,40.735216 40.8182227,40.8847875 40.8424036,40.9533525 C40.9327831,41.2096229 40.649138,41.266094 40.6213152,41.3712825 C40.530855,41.7132815 40.7896764,41.7093597 40.8424036,41.8588675 C40.9494691,42.162451 40.5142498,42.2518341 40.6213152,42.5554175 C40.6827947,42.7297422 40.9297248,42.712871 40.8424036,43.0430025 C40.8267397,43.1022226 40.605292,43.2671121 40.547619,43.3216225 C40.5303054,43.3379868 40.8335061,43.7143237 40.8424036,43.7395525 C40.9115814,43.9357058 40.739802,44.0031583 40.6950113,44.0878275 Z M41.1594142,48.5461684 C40.9344142,48.5205057 41.1594142,48.7793979 41.1594142,48.5461684 L41.1594142,48.5461684 Z M41.4541988,37.2620583 C41.2291988,37.2363956 41.4541988,37.4952878 41.4541988,37.2620583 L41.4541988,37.2620583 Z M40.9897959,50.7050526 C40.6903041,50.79891 40.9212556,50.7515546 40.9897959,50.7050526 L40.9897959,50.7050526 Z M41.3582766,39.1427433 C41.5832766,39.1170806 41.3582766,39.3759728 41.3582766,39.1427433 L41.3582766,39.1427433 Z M41.2108844,58.5068336 C41.4358844,58.4811709 41.2108844,58.7400631 41.2108844,58.5068336 L41.2108844,58.5068336 Z M41.3724956,59.3422727 C41.2786383,59.0592037 41.3259937,59.2774909 41.3724956,59.3422727 L41.3724956,59.3422727 Z M41.063832,59.0901435 C41.0381693,58.8651435 41.2970615,59.0901435 41.063832,59.0901435 Z M42.6848073,38.7940475 L42.6848073,38.3761175 L42.537415,38.3761175 C42.537415,38.3761175 42.2905497,37.2163458 42.0952381,37.4009475 C41.8577727,37.6253913 42.3081381,37.4783419 42.1689342,37.6099125 C42.1455095,37.6320527 41.8320397,37.7790766 41.9478458,37.8885325 C42.0806277,38.0140332 42.3307272,38.0430533 42.2426304,38.3761175 C42.2377422,38.3945982 41.8933956,38.812238 41.9478458,38.8637025 C41.9769442,38.8912053 42.2809714,39.1757389 42.2426304,39.2119775 C42.1994906,39.2527517 41.8953413,39.6699667 41.9478458,39.7692175 C41.9833322,39.8362985 42.321066,40.0388783 42.2426304,40.1871475 C42.1882709,40.2899049 41.9951266,40.4460462 41.9478458,40.5354225 C41.8652297,40.6915942 42.355946,41.0552156 42.2426304,41.1623175 C42.1786379,41.222801 41.9720268,41.3723725 41.9478458,41.4409375 C41.8830539,41.6246546 42.3170626,41.9278269 42.2426304,41.9981775 C42.1932405,42.0448591 41.9645911,42.2989714 41.9478458,42.3464525 C41.8035142,42.7557039 42.4919993,42.7376528 42.0952381,43.1126575 C41.7742402,43.4160535 42.1333821,43.5330372 42.2426304,43.7395525 C42.4277978,44.08958 41.7515065,44.2505296 42.2426304,44.7147226 C42.3297668,44.7970808 41.8783613,45.1406139 41.9478458,45.2719626 C42.0087332,45.3870598 42.3283024,45.516625 42.2426304,45.7595476 C42.2030514,45.8717736 41.9938626,45.9511807 41.9478458,46.0381676 C41.838412,46.2450336 42.3396384,46.3899969 42.2426304,46.6650626 C42.1985451,46.7900661 42.0376268,46.8588248 41.9478458,46.9436826 C41.8425799,47.0431762 42.2201492,47.3887707 42.2426304,47.4312676 C42.2634901,47.4706993 42.1162066,47.7897415 42.0952381,47.8491976 C42.0062601,48.1014941 42.2982503,48.3709526 42.2426304,48.4760926 C42.20741,48.5426707 41.8855105,48.8458433 41.9478458,48.9636776 C41.9721398,49.0096013 42.3638367,49.2670476 42.2426304,49.3816076 C42.1973919,49.4243655 41.8939026,49.7672221 41.9478458,49.8691926 C41.9885745,49.9461833 42.2019017,50.070822 42.2426304,50.1478126 C42.3381451,50.3283669 41.8570272,50.6888691 41.9478458,50.7747076 C42.0436174,50.8652275 42.1798754,51.0043551 42.2426304,51.1229826 C42.321066,51.2712518 41.9833322,51.4738317 41.9478458,51.5409126 C41.7626784,51.8909401 42.4389697,52.0518897 41.9478458,52.5160827 C41.9083115,52.5534491 42.3019527,52.9611839 42.2426304,53.0733227 C42.1835928,53.1849232 42.0068834,53.3099971 41.9478458,53.4215977 C41.8830718,53.5440419 42.2032867,53.7651551 42.2426304,53.8395277 C42.3168337,53.9797964 42.0402437,54.1867528 42.021542,54.2574577 C41.9120517,54.6714031 42.1802704,54.4985663 42.2426304,54.6753877 C42.4446453,55.2481999 41.816461,54.9146122 42.2426304,55.7202127 C42.3704235,55.9617837 41.840446,56.0744316 41.9478458,56.2774527 C41.9833714,56.3446077 42.2189502,56.4889275 42.2426304,56.5560727 C42.3330098,56.8123432 42.0493647,56.8688142 42.021542,56.9740027 C41.9212455,57.3531893 42.3499456,57.3662612 42.2426304,57.6705527 C42.1000969,58.0747057 41.8434681,58.0594836 42.2426304,58.4367577 C42.4384023,58.6217944 42.7585034,57.0436577 42.7585034,57.0436577 L42.7585034,56.0684877 L42.7585034,54.9540077 L42.7585034,54.3271127 L42.7585034,52.2374627 C42.8094207,51.4824422 42.643038,50.9233204 42.7585034,50.7050526 C42.812254,50.1479454 42.7585034,50.0085026 42.7585034,50.0085026 L42.7585034,48.1278176 L42.7585034,46.8043726 L42.7585034,45.1326526 L42.6848072,43.5969775 L42.6848072,42.3464528 L42.6848072,41.5989537 L42.7585034,40.5354225 L42.6848073,39.0030125 L42.6848073,38.7940475 Z M43.3480726,32.5250974 L43.3480726,31.9678574 L43.3480726,31.0623424 L43.3480726,30.5051024 L43.3480726,28.7637273 L43.3480726,27.9278673 L43.3480726,26.3258023 L45.11678,26.4651123 L45.11678,28.3457973 L45.11678,31.6195824 L45.11678,32.1768224 L45.11678,33.7788874 L45.11678,35.7292274 L45.11678,36.3561224 L45.11678,38.0974975 L45.11678,39.8388725 L45.11678,41.9285225 L45.11678,43.1823125 L45.11678,43.8788625 L45.11678,45.3416176 L45.11678,46.8043726 L45.11678,48.6154026 L43.3480726,48.6154026 L43.3480726,47.0133376 L43.3480726,45.7595476 L43.3480726,45.2023076 L43.3480726,43.3216225 L43.3480726,41.4409375 L43.3480726,40.8836975 L43.3480726,39.9781825 L43.3480726,39.3512875 L43.3480726,37.6795675 L43.3480726,33.4306124 L43.3480726,32.5250974 Z" id="mot-8" fill="#3AB7AA" sketch:type="MSShapeGroup"></path>
        </g>
    </g>
</svg>