<?xml version="1.0" encoding="UTF-8" standalone="no"?>
<svg width="80px" height="86px" viewBox="0 0 80 86" version="1.1" xmlns="http://www.w3.org/2000/svg" xmlns:xlink="http://www.w3.org/1999/xlink" xmlns:sketch="http://www.bohemiancoding.com/sketch/ns">
    <!-- Generator: Sketch 3.2.2 (9983) - http://www.bohemiancoding.com/sketch -->
    <title>marker-resize</title>
    <desc>Created with Sketch.</desc>
    <defs></defs>
    <g id="Page-1" stroke="none" stroke-width="1" fill="none" fill-rule="evenodd" sketch:type="MSPage">
        <g id="marker-resize" sketch:type="MSLayerGroup" transform="translate(1.000000, 1.177000)">
            <g id="ic_plus-2-+-Shape-14" stroke-width="0.7" stroke="#4D4D4D" fill="#4D4D4D" sketch:type="MSShapeGroup">
                <g id="ic_plus-2">
                    <path d="M45.0507603,77.931046 L39.3482143,84 L33.756223,78.0487043 C14.6968217,75.4741914 0,59.0622106 0,39.2 C0,17.5504378 17.4608948,0 39,0 C60.5391052,0 78,17.5504378 78,39.2 C78,58.780964 63.7164422,75.0087161 45.0507603,77.931046 Z" id="Triangle-27"></path>
                </g>
            </g>
            <g id="resize" transform="translate(38.856232, 38.697118) rotate(-45.000000) translate(-38.856232, -38.697118) translate(22.856232, 22.197118)" fill="#FFFFFF" sketch:type="MSShapeGroup">
                <path d="M11.3751138,12.3604231 L0.990713142,1.97754475 C0.767712739,1.75362186 0.767712739,1.39049129 0.990713142,1.16794216 L0.990713142,1.16794216 C1.21417145,0.944019278 1.5772912,0.944019278 1.80029161,1.16794216 L1.80029161,1.16794216 L12.1846923,11.5508205 C12.4076927,11.7747434 12.4076927,12.1374161 12.1846923,12.3604231 L12.1846923,12.3604231 C12.0729631,12.4726135 11.926891,12.5284798 11.7799031,12.5284798 L11.7799031,12.5284798 C11.633373,12.5284798 11.4873009,12.4726135 11.3751138,12.3604231 L11.3751138,12.3604231 L11.3751138,12.3604231 Z" id="Shape"></path>
                <path d="M0.82346284,10.328746 L0.82346284,1.55280803 C0.82346284,1.247658 1.0082479,1 1.23519426,1 L1.23519426,1 C1.46247,1 1.64692568,1.247658 1.64692568,1.55280803 L1.64692568,1.55280803 L1.64692568,10.328746 C1.64692568,10.6338961 1.46181123,10.8815541 1.23519426,10.8815541 L1.23519426,10.8815541 C1.0082479,10.8815541 0.82346284,10.6338961 0.82346284,10.328746 L0.82346284,10.328746 L0.82346284,10.328746 Z" id="Shape"></path>
                <path d="M1.37676264,1.82346284 C1.07070072,1.82346284 0.82346284,1.63875166 0.82346284,1.41156679 L0.82346284,1.41156679 C0.82346284,1.18471118 1.07070072,1 1.37587807,1 L1.37587807,1 L10.1521594,1 C10.4564522,1 10.7041323,1.18471118 10.7050169,1.41156679 L10.7050169,1.41156679 C10.7050169,1.63875166 10.4564522,1.82313359 10.1521594,1.82313359 L10.1521594,1.82313359 L1.37676264,1.82346284 L1.37676264,1.82346284 Z" id="Shape"></path>
                <path d="M0.991406672,32.124462 C0.767481562,31.9005592 0.767481562,31.5379189 0.991406672,31.3144739 L0.991406672,31.3144739 L11.3748461,20.9306919 C11.5973974,20.7072469 11.9605316,20.7072469 12.1839988,20.9306919 L12.1839988,20.9306919 C12.4079239,21.1532211 12.4079239,21.5163193 12.1839988,21.7402221 L12.1839988,21.7402221 L1.80055937,32.124462 C1.68882578,32.2361845 1.54274784,32.2915879 1.39575406,32.2915879 L1.39575406,32.2915879 C1.24967612,32.2915879 1.10314026,32.2361845 0.991406672,32.124462 L0.991406672,32.124462 L0.991406672,32.124462 Z" id="Shape"></path>
                <path d="M1.37587807,31.4681251 C1.07114301,31.4681251 0.82346284,31.2830106 0.82346284,31.0560643 L0.82346284,31.0560643 C0.82346284,30.8291179 1.07114301,30.6446622 1.37587807,30.6446622 L1.37587807,30.6446622 L10.1517171,30.6446622 C10.4573367,30.6446622 10.7050169,30.8291179 10.7050169,31.0560643 L10.7050169,31.0560643 C10.7050169,31.2826812 10.4573367,31.4681251 10.1517171,31.4681251 L10.1517171,31.4681251 L1.37587807,31.4681251 L1.37587807,31.4681251 Z" id="Shape"></path>
                <path d="M0.82346284,30.9148253 L0.82346284,22.1394285 C0.82346284,21.8338089 1.00791852,21.586571 1.23486487,21.586571 L1.23486487,21.586571 C1.46214062,21.586571 1.64692568,21.8338089 1.64692568,22.1385439 L1.64692568,22.1385439 L1.64692568,30.9148253 C1.64692568,31.219118 1.46214062,31.4672405 1.23552364,31.4681251 L1.23552364,31.4681251 C1.00791852,31.4681251 0.82346284,31.2195603 0.82346284,30.9148253 L0.82346284,30.9148253 L0.82346284,30.9148253 Z" id="Shape"></path>
                <path d="M30.3146544,32.1244421 L19.9303568,21.7403386 C19.7073586,21.5173249 19.7073586,21.1541835 19.9303568,20.9307119 L19.9303568,20.9307119 C20.1542708,20.7072402 20.5160132,20.7072402 20.7403851,20.9307119 L20.7403851,20.9307119 L31.1246827,31.3148154 C31.347223,31.5373712 31.347223,31.9005126 31.1246827,32.1244421 L31.1246827,32.1244421 C31.0129546,32.2361779 30.8664261,32.2915879 30.7194396,32.2915879 L30.7194396,32.2915879 C30.5724531,32.2915879 30.4259245,32.2361779 30.3146544,32.1244421 L30.3146544,32.1244421 L30.3146544,32.1244421 Z" id="Shape"></path>
                <path d="M30.4681251,30.9157346 L30.4681251,22.1402883 C30.4681251,21.8346823 30.6529101,21.586571 30.8795271,21.586571 L30.8795271,21.586571 C31.1064735,21.586571 31.2915879,21.8346823 31.2915879,22.1402883 L31.2915879,22.1402883 L31.2915879,30.9157346 C31.2915879,31.220456 31.1064735,31.4681251 30.8795271,31.4681251 L30.8795271,31.4681251 C30.6522514,31.4681251 30.4681251,31.2208982 30.4681251,30.9157346 L30.4681251,30.9157346 L30.4681251,30.9157346 Z" id="Shape"></path>
                <path d="M21.9624738,31.4681251 C21.6581674,31.4681251 21.4100338,31.2836694 21.4100338,31.056723 L21.4100338,31.056723 C21.4100338,30.8291179 21.6581674,30.6446622 21.9624738,30.6446622 L21.9624738,30.6446622 L30.7382633,30.6446622 C31.043012,30.6446622 31.2915879,30.8291179 31.2915879,31.056723 L31.2915879,31.056723 C31.2915879,31.2836694 31.043012,31.4681251 30.7382633,31.4681251 L30.7382633,31.4681251 L21.9624738,31.4681251 L21.9624738,31.4681251 Z" id="Shape"></path>
                <path d="M19.9303751,12.3613489 C19.7073525,12.1374394 19.7073525,11.7752462 19.9303751,11.5513367 L19.9303751,11.5513367 L30.3148911,1.16724532 C30.5379137,0.94425156 30.9010695,0.94425156 31.1250079,1.16724532 L31.1250079,1.16724532 C31.3471146,1.39115487 31.3471146,1.75334802 31.1250079,1.97725756 L31.1250079,1.97725756 L20.7404919,12.3613489 C20.6292096,12.4730747 20.482665,12.5284798 20.3352045,12.5284798 L20.3352045,12.5284798 C20.1886599,12.5284798 20.0416574,12.4730747 19.9303751,12.3613489 L19.9303751,12.3613489 L19.9303751,12.3613489 Z" id="Shape"></path>
                <path d="M21.9633089,1.82346284 C21.6581452,1.82346284 21.4100338,1.63834839 21.4100338,1.41140203 L21.4100338,1.41140203 C21.4100338,1.18445568 21.6581452,1 21.9633089,1 L21.9633089,1 L30.7383129,1 C31.0430343,1 31.2915879,1.18445568 31.2915879,1.41140203 L31.2915879,1.41140203 C31.2915879,1.63867778 31.0430343,1.82346284 30.7383129,1.82346284 L30.7383129,1.82346284 L21.9633089,1.82346284 L21.9633089,1.82346284 Z" id="Shape"></path>
                <path d="M30.4681251,10.3295064 L30.4681251,1.55248938 C30.4681251,1.24771341 30.6529101,1 30.8795271,1 L30.8795271,1 C31.1064735,1 31.2915879,1.24771341 31.2915879,1.55248938 L31.2915879,1.55248938 L31.2915879,10.3290641 C31.2915879,10.6342824 31.1064735,10.8815535 30.8795271,10.8815535 L30.8795271,10.8815535 C30.6522514,10.8819958 30.4681251,10.6347248 30.4681251,10.3295064 L30.4681251,10.3295064 L30.4681251,10.3295064 Z" id="Shape"></path>
            </g>
        </g>
    </g>
</svg>