<?xml version="1.0" encoding="UTF-8" standalone="no"?>
<svg width="80px" height="85px" viewBox="0 0 80 85" version="1.1" xmlns="http://www.w3.org/2000/svg" xmlns:xlink="http://www.w3.org/1999/xlink" xmlns:sketch="http://www.bohemiancoding.com/sketch/ns">
    <!-- Generator: Sketch 3.2.2 (9983) - http://www.bohemiancoding.com/sketch -->
    <title>marker-mot-crossed-active</title>
    <desc>Created with Sketch.</desc>
    <defs></defs>
    <g id="Page-1" stroke="none" stroke-width="1" fill="none" fill-rule="evenodd" sketch:type="MSPage">
        <g id="marker-mot-crossed-active" sketch:type="MSLayerGroup" transform="translate(1.000000, 1.000000)">
            <g id="ic_plus-2-+-Shape-14" stroke-width="0.7" stroke="#D84B6C" fill="#D84B6C" sketch:type="MSShapeGroup">
                <g id="ic_plus-2">
                    <path d="M45.0507603,77.931046 L39.3482143,84 L33.756223,78.0487043 C14.6968217,75.4741914 0,59.0622106 0,39.2 C0,17.5504378 17.4608948,0 39,0 C60.5391052,0 78,17.5504378 78,39.2 C78,58.780964 63.7164422,75.0087161 45.0507603,77.931046 Z" id="Triangle-27"></path>
                </g>
            </g>
            <g id="mot-crossed-3" transform="translate(18.803571, 20.300000)" sketch:type="MSShapeGroup">
                <path d="M0.88359375,0.15880662 L39.5092634,40.6159495" id="Line-8" stroke="#FFFFFF" stroke-width="1.26" stroke-linecap="square"></path>
                <path d="M0,39.5694416 L40.3928571,1.0395635" id="Line-9" stroke="#FFFFFF" stroke-width="1.26" stroke-linecap="square"></path>
                <path d="M26.1528414,7.12509471 C26.1785041,6.90009471 25.9196119,7.12509471 26.1528414,7.12509471 Z M25.9842014,6.88189739 C26.2092014,6.85623469 25.9842014,7.1151269 25.9842014,6.88189739 Z M15.538694,28.5815791 L15.538694,26.5887201 L15.538694,23.9315749 L15.538694,23.3410982 L15.538694,22.5291927 L15.538694,21.1268105 L15.538694,17.2149022 L15.538694,15.1482337 L15.538694,12.8601365 L15.538694,10.42442 L15.538694,8.06251313 L15.538694,7.32441723 L15.538694,6.51251175 L15.538694,5.84822544 L15.538694,5.4053679 L13.7721744,5.4053679 L13.6953692,9.0220378 L13.6953692,11.0148967 L13.6953692,15.0744241 L13.6953692,26.3672914 L13.6953692,26.441101 L13.6953692,27.4744352 L13.6953692,28.1387215 L13.7721744,29.0244366 L14.4634212,29.0244366 L15.538694,29.0244366 L15.538694,28.5815791 Z M14.4055609,27.99144 C14.1805609,27.9657773 14.4055609,28.2246695 14.4055609,27.99144 L14.4055609,27.99144 Z M14.4016456,5.7227125 C14.4273083,5.4977125 14.1684161,5.7227125 14.4016456,5.7227125 L14.4016456,5.7227125 Z M14.2330056,28.8284204 C14.1739389,28.7505404 13.9544694,28.648985 14.2330056,28.8284204 L14.2330056,28.8284204 Z M14.2519505,6.58665903 C14.0269505,6.56099634 14.2519505,6.81988854 14.2519505,6.58665903 L14.2519505,6.58665903 Z M13.9257848,27.2533441 C14.1507848,27.2276814 13.9257848,27.4865737 13.9257848,27.2533441 L13.9257848,27.2533441 Z M14.1562004,24.6700085 C14.3812004,24.6443458 14.1562004,24.903238 14.1562004,24.6700085 L14.1562004,24.6700085 Z M14.7895869,28.2128688 C14.5645869,28.1872061 14.7895869,28.4460983 14.7895869,28.2128688 Z M18.6109021,7.17679805 C18.1213649,7.49146455 17.6939653,8.11815737 17.5356293,8.72679944 L17.5356293,9.46489533 L17.6124345,9.46489533 C17.6553786,10.5965038 18.5605087,11.3718377 19.5325645,11.6053734 C19.9272705,11.6185964 20.0160043,11.6719407 20.2238113,11.6053734 C22.4017527,11.5726309 22.9635207,9.3425019 22.0671361,7.61965559 C21.7491256,7.008441 20.721841,6.97324313 20.2238113,6.73394052 C19.4782084,6.6458215 19.0858913,7.0246436 18.6109021,7.17679805 Z M20.9150581,11.3104728 C21.1400581,11.2848101 20.9150581,11.5437023 20.9150581,11.3104728 L20.9150581,11.3104728 Z M16.1531356,6.21727339 L16.1531356,6.73394052 L16.1531356,8.72679944 L16.1531356,9.24346656 L16.2299408,13.0077556 L21.9903309,13.0077556 L23.9872662,12.8601365 L23.9872662,12.2696597 L23.9872662,11.0148967 L23.9872662,8.13632272 L23.9872662,6.95536928 L23.9872662,5.4053679 L20.9150581,5.4053679 L16.7675772,5.4053679 L16.1531356,6.21727339 Z M18.2268761,6.80775011 C18.7095678,6.54685881 19.5017886,6.13606991 20.1470061,6.29108298 C21.8193156,6.32128904 22.8016514,7.34312174 23.1424089,8.65298985 C23.1729752,10.4236851 22.4089045,11.6189099 21.0686685,12.048231 C19.1694682,12.2666152 17.613088,11.7548768 16.9979928,9.98156246 C16.9885313,9.49536655 16.8882522,9.0853395 16.9979928,8.87441862 C17.0627191,8.01546185 17.5815248,7.11784052 18.2268761,6.80775011 L18.2268761,6.80775011 Z M21.0686685,12.6390454 C21.2936685,12.6133827 21.0686685,12.8722749 21.0686685,12.6390454 L21.0686685,12.6390454 Z M20.9153359,12.8084331 C20.8896732,12.5834331 21.1485654,12.8084331 20.9153359,12.8084331 L20.9153359,12.8084331 Z M20.6846425,12.712855 C20.9096425,12.6871923 20.6846425,12.9460845 20.6846425,12.712855 L20.6846425,12.712855 Z M21.3948342,12.4914262 C21.1698342,12.4657635 21.3948342,12.7246557 21.3948342,12.4914262 L21.3948342,12.4914262 Z M20.1470061,12.4914262 C20.3720061,12.4657635 20.1470061,12.7246557 20.1470061,12.4914262 L20.1470061,12.4914262 Z M17.3052136,3.2648898 L17.9196553,3.2648898 L17.9196553,3.33869939 L19.9165905,3.33869939 L22.4511621,3.33869939 L22.4511621,3.2648898 C22.4511621,3.2648898 25.7339256,1.775017 27.8275262,1.27203088 C28.1505191,1.31045779 28.4397601,1.19822129 28.518773,1.19822129 L28.9796042,1.19822129 C29.0360243,-0.259620094 29.7368468,1.02982648 29.8244615,1.19822129 C30.9838438,1.35527051 32.0518123,1.19822129 32.0518123,1.19822129 L33.0502799,1.19822129 L34.5863839,1.27203085 L34.4327735,2.23155555 L34.5863839,2.67441308 L32.5894487,2.67441308 L30.8997343,2.74822267 L30.2852927,2.74822267 L30.2852927,2.67441308 C29.8907317,2.71605207 29.8913833,2.64225722 29.670851,2.74822267 C29.8336952,3.32924302 29.1988767,3.61252073 28.9796042,3.19108021 L28.9796042,2.74822267 C28.0476707,2.75860598 28.2056391,2.71415911 27.8275262,2.89584185 C25.7314434,3.27147664 24.6773892,4.44605923 22.7583829,4.81489118 L17.5356293,4.81489118 L17.5356293,4.74108159 C16.695993,4.70281453 16.1330664,4.51000958 15.538694,4.22441447 C15.4449041,4.17934855 15.1627189,3.78929377 15.2314732,3.85536652 C15.4181457,4.03475826 14.7882474,3.79001632 14.4634212,3.63393775 C13.9910554,3.40696662 13.4220444,3.13355759 12.9273172,2.89584185 C12.6381429,2.95399381 12.2550155,2.78138775 12.08246,2.74822267 C11.661992,2.70805048 11.4417924,2.69421562 11.1607975,2.74822267 C10.7037485,4.31126408 10.4594269,2.75451379 10.3927455,2.67441308 C10.3343743,2.60429485 9.01025191,2.67441308 9.01025191,2.67441308 L5.55401786,2.67441306 L5.55401786,1.19822129 L5.93804386,1.19822129 L6.93651148,1.19822129 L8.70303111,1.19822129 C8.70303111,1.19822129 9.84351352,1.31817822 10.3927455,1.19822129 C10.5692754,1.15966567 10.3885909,0.83715844 10.4695507,0.681554162 C10.7233864,0.193683357 11.1607975,0.824200805 11.1607975,1.19822129 L11.698434,1.19822129 L11.698434,1.27203088 L12.466486,1.27203088 C14.4240814,1.57483644 17.3052136,3.2648898 17.3052136,3.2648898 Z M25.9076739,2.84413851 C25.8820112,2.61913851 26.1409035,2.84413851 25.9076739,2.84413851 L25.9076739,2.84413851 Z M30.5927912,2.47509056 C30.5671285,2.25009056 30.8260207,2.47509056 30.5927912,2.47509056 L30.5927912,2.47509056 Z M31.5141759,2.5271316 C31.7391759,2.5014689 31.5141759,2.76036111 31.5141759,2.5271316 Z M16.1531356,26.441101 L16.1531356,20.3887146 C16.1787354,20.3884109 16.1531356,20.3395082 16.1531356,20.314905 C16.5447029,19.737865 16.1531356,19.4545954 16.1531356,19.3553803 L16.1531356,18.4696653 L16.2299408,18.4696653 C16.1999882,18.1095009 16.654312,16.6438113 16.9211876,16.7720447 C17.2765724,16.9428066 16.9038614,17.412473 16.8443824,17.5839502 C16.7324093,17.9067678 17.2765855,17.9342118 17.1516032,18.1744269 C16.9806243,18.5030476 16.7927857,18.5919254 16.9979928,18.9863324 C17.1514342,19.2812458 16.7316956,19.3602257 16.8443824,19.5768091 C16.9409312,19.7623753 17.1443189,19.9070486 17.074798,20.2410954 C17.0723899,20.2526666 16.7735951,20.4683074 16.8443824,20.5363338 C17.1921447,20.8705324 16.9362646,21.1571532 16.8443824,21.4220489 C16.7325399,21.74449 17.1793257,21.7583415 17.074798,22.1601448 C17.0641306,22.2011503 16.8538308,22.354334 16.8443824,22.3815735 C16.76894,22.5990735 17.2953793,22.9076914 17.1516032,23.0458598 C17.1000163,23.0954348 16.7594733,23.399332 16.8443824,23.562527 C16.9505567,23.7665932 17.1617013,23.7354345 17.074798,24.1530037 C17.0746,24.1539554 16.8512061,24.3613174 16.8443824,24.3744324 C16.737203,24.5804307 17.2587827,24.7589109 17.1516032,24.9649092 C17.1029241,25.0584702 16.8842172,25.2191139 16.8443824,25.3339571 C16.7028459,25.7420059 17.2822426,25.6216113 17.1516032,25.9982434 C17.1259425,26.0722232 16.7601519,26.2792103 16.8443824,26.441101 C16.8677252,26.4859656 17.0633082,26.6921725 17.074798,26.7363393 C17.1775343,27.1312562 16.7204925,27.1172614 16.8443824,27.4744352 C16.8567944,27.5102189 17.2400488,27.8322969 17.1516032,27.9172928 C17.074798,27.9911023 16.9211876,27.9911023 16.8443824,28.0649119 C16.7062008,28.684709 17.0158258,28.4682348 17.1516032,28.7291982 C17.2358338,28.8910889 16.8700432,29.098076 16.8443824,29.1720558 C16.7218805,29.5252277 17.1669397,29.5412219 17.074798,29.9839613 C17.0589205,30.0602525 16.8805888,29.9881825 16.8443824,30.0577709 C16.7156202,30.3052511 17.0562686,30.6304409 17.1516032,30.7220572 C17.2148227,30.7828109 16.7811629,31.0303513 16.8443824,31.0911051 C17.0508972,31.2895652 16.591439,31.0217266 16.8443824,31.3863435 C17.4158393,32.2100962 16.6098485,31.6697086 16.8443824,32.3458681 C16.8700432,32.4198479 17.2358338,32.626835 17.1516032,32.7887257 C17.114579,32.8598862 16.8690617,33.012814 16.8443824,33.083964 C16.7251516,33.4277056 17.2893884,33.4834279 17.1516032,33.7482503 C17.110887,33.8265068 16.9027082,33.9313868 16.8443824,34.0434887 C16.7238853,34.2750836 17.1537791,34.4779821 17.074798,34.7815846 C17.0633082,34.8257514 16.8677252,35.0319583 16.8443824,35.076823 C16.7731324,35.2137652 17.0568879,35.3770244 17.074798,35.4458709 C17.1854588,35.8712497 16.7282135,35.8112243 16.8443824,36.2577764 C16.873379,36.3692389 17.1689904,36.4290782 17.074798,36.7006339 C17.0107249,36.8853562 16.7533774,36.8674787 16.8443824,37.2173011 C16.8489409,37.2348238 17.0712932,37.3480796 17.074798,37.3649202 C17.1617013,37.7824894 16.9505567,37.7513307 16.8443824,37.9553969 C16.7501989,38.1364172 17.1412717,38.4478974 17.074798,38.7673024 C17.0666735,38.8063408 16.7654643,38.8390815 16.8443824,38.9149216 C16.8482916,38.9186783 17.19978,39.6298687 16.9979928,39.7268271 C16.7722878,39.8352781 16.2791273,38.4662492 16.2299408,38.3244449 C15.9002488,36.5478116 16.5793847,33.2795025 16.1531356,32.0506298 C16.3316404,31.7074725 16.1531356,31.5919053 16.1531356,31.5339626 C16.1375655,30.7261601 16.2837804,30.6117076 16.1531356,29.9839613 C16.1253053,29.5161722 16.2544963,29.5882991 16.1531356,29.3934845 C16.0636183,28.6799243 16.2795517,28.7507404 16.1531356,28.5077695 L16.1531356,26.441101 Z M18.4572917,24.0791941 C18.3874781,23.7682511 18.562247,22.8010524 18.3036813,22.6768119 C18.1923161,22.0686906 18.400916,22.3423081 18.5340969,22.0863352 C18.6299257,21.9021527 18.2369984,21.6686497 18.3036813,21.3482393 C18.3287858,21.2276122 18.4435811,21.1399863 18.5340969,21.0530009 C18.6409337,20.950331 18.1453509,20.6930248 18.2268761,20.5363338 C18.2815171,20.4313141 18.5020317,20.2597295 18.5340969,20.1672858 C18.6306951,19.888794 18.3388634,19.7582382 18.2268761,19.6506187 C18.1510622,19.5777618 18.5239181,19.2371065 18.5340969,19.2077612 C18.6226635,18.9524244 18.3258878,18.786244 18.2268761,18.691094 C18.1400247,18.6076301 18.5080531,18.224483 18.5340969,18.1744269 C18.6156221,18.0177359 18.1200392,17.7604297 18.2268761,17.6577598 C18.4345746,17.4581621 18.5982296,17.1289144 18.3804865,16.9196639 C18.2241467,16.7694218 18.6026476,15.6240298 18.3804865,15.5172817 C17.9462495,15.3086314 17.3448482,16.6625142 17.3820188,16.6982351 C17.4520508,16.7655356 17.6593038,16.9809782 17.6892397,17.0672831 C17.7590791,17.2686296 17.4659509,17.5032917 17.3820188,17.5839502 C17.3378281,17.6264174 17.6850221,17.9367858 17.6892397,17.9529981 C17.7803934,18.3033921 17.4704585,18.3734943 17.3820188,18.5434749 C17.3059538,18.6896714 17.6596156,18.9009265 17.6892397,18.9863324 C17.7541746,19.1735393 17.4631326,19.498859 17.3820188,19.5768091 C17.3577632,19.6001188 17.6812448,19.9228079 17.6892397,19.9458571 C17.8131296,20.3030309 17.3560878,20.289036 17.4588241,20.683953 C17.4694915,20.7249585 17.6797913,20.8781422 17.6892397,20.9053817 C17.7567308,21.0999581 17.3254197,21.5152764 17.3820188,21.569668 C17.4421249,21.6274298 17.6729149,21.8021541 17.6892397,21.8649064 C17.7404069,22.0615929 17.3441573,22.4928079 17.3820188,22.5291927 C17.5094059,22.6516113 17.7675751,22.818549 17.6892397,23.1196694 C17.6850221,23.1358818 17.3378281,23.4462501 17.3820188,23.4887174 C17.5014596,23.6034996 17.7611721,23.8026864 17.6892397,24.0791941 C17.6650169,24.1723062 17.3026937,24.3695891 17.3820188,24.5220516 C17.4543185,24.6610112 17.798235,24.7244859 17.6892397,25.0387188 C17.6635789,25.1126985 17.2977883,25.3196856 17.3820188,25.4815763 C17.429977,25.5737516 17.6479909,25.6578949 17.6892397,25.7768147 C17.783432,26.0483704 17.4878206,26.1082097 17.4588241,26.2196722 C17.3638611,26.5847087 17.6380733,26.5396563 17.6892397,26.7363393 C17.8135643,27.2142419 17.3431322,27.0297168 17.4588241,27.4744352 C17.4783148,27.5493573 17.7665734,27.7686577 17.6892397,27.9172928 C17.6108477,28.0679617 17.3861585,28.1546342 17.4588241,28.4339599 C17.4661803,28.4622373 17.6856454,28.6415725 17.6892397,28.6553886 C17.7629079,28.9385685 17.5177527,29.0759745 17.4588241,29.2458654 C17.3491809,29.5619657 17.6538995,29.4790662 17.6892397,29.6149133 C17.7838289,29.9785132 17.4994593,29.9753789 17.4588241,30.1315804 C17.3422709,30.5796094 17.6393538,30.3826771 17.6892397,30.574438 C17.773368,30.8978264 17.5184337,30.9930604 17.4588241,31.1649147 C17.3718976,31.415523 17.6538997,31.4719257 17.6892397,31.6077722 C17.8054478,32.0544751 17.411721,32.0339076 17.6124345,32.4196777 C17.6656424,32.5219431 17.7260289,32.7211177 17.6892397,32.8625353 C17.6850221,32.8787476 17.3378281,33.189116 17.3820188,33.2315832 C17.5257683,33.369726 17.7812092,33.4685301 17.6892397,33.8220599 C17.6538997,33.9579065 17.3718976,34.0143091 17.4588241,34.2649175 C17.4682724,34.292157 17.6785722,34.4453407 17.6892397,34.4863462 C17.7838289,34.8499461 17.4994593,34.8468118 17.4588241,35.0030134 C17.3323459,35.489194 17.8043341,35.2618916 17.6892397,35.8149188 C17.676413,35.8765508 17.3668731,36.0072375 17.4588241,36.1839668 C17.4656477,36.1970818 17.6890416,36.4044438 17.6892397,36.4053956 C17.7845763,36.8634871 17.528615,36.7946657 17.4588241,36.9958723 C17.3482795,37.3145712 17.6608558,37.2285362 17.6892397,37.3649202 C17.7805597,37.8037117 17.3496396,37.862048 17.4588241,38.1768257 C17.5137757,38.335251 17.7835161,38.3310952 17.6892397,38.6934928 C17.6785722,38.7344984 17.4682724,38.8876821 17.4588241,38.9149216 C17.3355131,39.2704262 17.8854633,39.2554011 17.6892397,39.7268271 C17.6823449,39.7433917 17.3766734,39.9379819 17.4588241,40.095875 C17.5971848,40.3618037 17.8631629,40.696112 18.1500709,40.8339709 C18.3158226,40.9136144 18.5717409,40.5010988 18.5340969,40.464923 C18.4903669,40.4228986 18.1516886,40.0205108 18.2268761,39.9482559 C18.5607607,39.6273936 18.4813441,38.5921024 18.3036813,38.2506353 C18.1923161,37.642514 18.400916,37.9161315 18.5340969,37.6601586 C18.5991901,37.5350498 18.272499,37.0397158 18.2268761,36.9958723 C18.1637289,36.935188 18.4547195,36.7868027 18.4572917,36.7744435 C18.5810107,36.1799752 18.1799622,36.5570064 18.3036813,35.962538 C18.3073538,35.9448915 18.6504929,35.6315367 18.5340969,35.5196805 C18.4060882,35.3966645 18.3548847,35.1998389 18.2268761,35.076823 C18.179667,35.0314552 18.59098,34.7241495 18.5340969,34.5601558 C18.5272432,34.5403968 18.1823325,34.2339141 18.2268761,34.1911079 C18.257344,34.1618283 18.5744448,33.6781797 18.5340969,33.6006312 C18.493214,33.5220546 18.2177996,32.9776109 18.3036813,32.9363448 C18.3858997,32.896839 18.6217764,32.8096261 18.5340969,32.6411065 C18.4005255,32.384383 18.1976838,31.1929684 18.3804865,31.0172955 C18.4881039,30.9138755 18.4702668,29.5473383 18.3036813,29.4672941 C18.1923161,28.8591728 18.400916,29.1327904 18.5340969,28.8768174 C18.6201984,28.7113308 18.10878,28.3260211 18.2268761,28.2125311 C18.7601178,27.7000872 18.1712672,27.8154448 18.3036813,27.1791969 C18.3766048,26.8288005 18.6047487,26.8042355 18.2268761,26.441101 C18.1475948,26.3649119 18.6371734,25.8758709 18.5340969,25.7768147 C18.4314736,25.6781939 18.2953582,25.6131985 18.2268761,25.4815763 C18.1512121,25.3361506 18.4708273,25.025711 18.5340969,24.9649092 C18.5756415,24.9249849 18.3069376,24.611508 18.3036813,24.5958612 C18.2183708,24.1859458 18.3605261,24.265177 18.4572917,24.0791941 Z M17.9967382,40.4132197 C17.9710755,40.1882197 18.2299677,40.4132197 17.9967382,40.4132197 L17.9967382,40.4132197 Z M18.2458209,39.4319264 C18.0208209,39.4062637 18.2458209,39.6651559 18.2458209,39.4319264 L18.2458209,39.4319264 Z M19.8548149,32.9363448 C19.8804776,33.1613448 19.6215854,32.9363448 19.8548149,32.9363448 L19.8548149,32.9363448 Z M19.1485385,22.0863352 C19.1751951,21.8348767 18.9146657,21.7106426 18.8413177,21.569668 C18.7708173,21.4341666 19.1113629,21.1982618 19.1485385,21.1268105 C19.3468833,20.7455927 18.6239855,20.5975702 19.1485385,20.0934762 C19.2612277,19.9851822 18.6646021,19.5990132 18.9181229,19.3553803 C18.9535572,19.3213281 19.2110103,19.0463677 19.1485385,18.9863324 C19.0910665,18.931102 18.7179984,18.6474296 18.8413177,18.4696653 C18.9186605,18.358176 19.2468504,18.3102401 19.1485385,18.0268077 C19.1186026,17.9405029 18.9113496,17.7250603 18.8413177,17.6577598 C18.7996849,17.6177508 19.0673097,17.305716 19.0717333,17.2887118 C19.151908,16.980521 18.7509362,16.7981382 18.8413177,16.6244255 C18.902846,16.5061685 19.0870102,16.3736346 19.1485385,16.2553776 C19.2694288,16.0230271 18.7768092,15.7888858 18.9949281,15.3696625 C19.0804557,15.2052788 19.7444064,15.0379215 19.9165905,15.1482337 C20.0141182,15.2107163 19.698722,15.6407855 19.6861749,15.6649009 C19.5741326,15.8802456 19.9986208,16.0138637 19.9165905,16.3291872 C19.9141148,16.3387037 19.6966649,16.5304542 19.6861749,16.5506159 C19.4474913,17.0093646 20.3384066,16.8833477 19.6093697,17.5839502 C19.4265301,17.7596586 19.8750486,17.8126525 19.9165905,17.8791886 C20.1484894,18.2506123 19.5543922,18.4378083 19.6861749,18.691094 C19.8907414,19.0842698 19.8836614,20.0829561 19.6861749,20.4625242 C19.5752795,20.6756645 20.0118974,20.8520415 19.9165905,21.1268105 C19.8985437,21.1788392 19.5305113,21.6415045 19.6093697,21.7172872 C19.6108917,21.7187499 19.8769091,21.9005823 19.9933957,22.0125256 C20.0176514,22.0358352 19.6941698,22.3585244 19.6861749,22.3815735 C19.6048957,22.6159007 20.0620266,22.9060962 19.9933957,22.9720502 C19.9596625,23.0044678 19.6463693,23.4504643 19.6861749,23.4887174 C20.1088515,23.8949085 19.5976803,24.1931128 19.7629801,24.6696708 C19.7675891,24.6829585 19.9782251,24.8765206 19.9933957,24.8910996 C20.0496237,24.9451346 19.7042478,25.299221 19.6861749,25.3339571 C19.6105109,25.4793828 19.9301262,25.7898224 19.9933957,25.8506242 C20.1002325,25.9532942 19.6046497,26.2106004 19.6861749,26.3672914 C19.7659474,26.5206138 19.8714934,26.6930012 19.9933957,26.8101489 C20.0098303,26.8259425 19.6998318,27.2267579 19.6861749,27.2530064 C19.6447366,27.3326506 19.9550172,27.7696273 19.6861749,28.2863407 C19.6105109,28.4317664 19.9301262,28.742206 19.9933957,28.8030078 C20.0379392,28.845814 19.6930285,29.1522968 19.6861749,29.1720558 C19.5619909,29.5300771 20.0319876,29.6145495 19.9165905,29.8363421 C19.5770261,30.4889829 20.0402291,30.3494039 19.9165905,30.9434859 C19.8939924,31.0520695 19.5922159,31.1154605 19.6861749,31.3863435 C19.7185604,31.4797108 20.1080178,31.6088979 19.9933957,31.829201 C19.9461081,31.9200875 19.5749147,32.0582172 19.6861749,32.2720585 C19.7590126,32.4120522 19.9826623,32.6085558 19.9165905,32.8625353 C19.8810524,32.9991433 19.4446154,32.9994452 19.7629801,33.3053928 C20.1995651,33.7249498 19.4803487,34.2147382 19.6861749,34.4125366 C19.8190626,34.5402414 20.1198354,34.3670997 19.9165905,34.8553942 C19.8217966,35.0831358 19.5850487,35.3642705 19.6093697,35.3720613 C19.8080418,35.4357024 19.8668273,35.3762137 19.9165905,35.5196805 C20.0866208,36.0098766 19.5025046,36.0812697 19.9933957,36.5530147 C20.0648833,36.6217141 19.375731,37.105038 19.9165905,37.3649202 C19.9833195,38.1574695 19.9303444,37.6469411 19.6861749,37.8815874 C19.6000348,37.9643677 19.9548553,38.5088365 19.9933957,38.5458737 C20.0176514,38.5691833 19.6941698,38.8918725 19.6861749,38.9149216 C19.62124,39.1021285 19.9122819,39.4274482 19.9933957,39.5053983 C20.0423908,39.5524825 19.714844,39.920705 19.6861749,39.9482559 C19.6269834,40.0051387 19.9763785,40.5139833 19.9165905,40.6863518 C19.9070612,40.7138245 19.6369594,40.9550765 19.6093697,40.9815901 C19.3839708,41.1981979 20.0401485,41.1484628 19.8397853,41.2768285 C19.7073114,41.3616999 19.1099689,41.1906638 18.9181229,41.1292093 C18.6438081,41.0413374 19.1389366,40.7324887 19.1485385,40.6863518 C19.1516738,40.6712865 18.9799889,39.7862802 19.1485385,39.9482559 C19.2810098,40.0755605 18.7989677,39.988954 18.9181229,39.8744463 C19.2333609,39.5715034 19.1120996,39.3227615 18.8413177,39.0625408 C18.7971269,39.0200736 19.1443209,38.7097052 19.1485385,38.6934928 C19.2733267,38.2138082 18.623133,38.1650718 18.9949281,37.8077778 C19.2727922,37.5407511 18.8242976,37.0860381 18.8413177,37.0696819 C18.8597903,37.0519297 19.1449777,36.788131 19.1485385,36.7744435 C19.2428149,36.4120459 18.9730746,36.4162016 18.9181229,36.2577764 C18.8015293,35.921638 19.2494468,35.8337614 19.1485385,35.4458709 C19.1195419,35.3344084 18.8239305,35.2745691 18.9181229,35.0030134 C18.9273167,34.9765077 19.135081,34.8203823 19.1485385,34.7815846 C19.2724285,34.4244108 18.8153867,34.4384056 18.9181229,34.0434887 C18.9692892,33.8468057 19.2435014,33.8918581 19.1485385,33.5268216 C19.1140966,33.3944275 18.787673,33.2608784 18.9181229,33.0101544 C18.9605149,32.9286773 19.2336541,32.8126845 19.1485385,32.5672969 C19.1276758,32.5071499 18.8807464,32.3478404 18.8413177,32.2720585 C18.7652527,32.125862 19.1189144,31.9146069 19.1485385,31.829201 C19.2602853,31.5070359 18.7312737,31.3764186 18.8413177,31.1649147 C18.8857651,31.079487 19.2454089,30.834432 19.1485385,30.6482476 C18.669474,29.7274882 19.3090623,30.1515118 19.1485385,29.6887229 C19.1357308,29.6517986 18.7820711,29.3028012 18.8413177,29.2458654 C18.9252497,29.1652069 19.2183779,28.9305448 19.1485385,28.7291982 C19.1357308,28.6922739 18.7820711,28.3432765 18.8413177,28.2863407 C18.9370897,28.1943041 19.1053439,28.0418224 19.1485385,27.9172928 C19.2529111,27.6163874 18.9115146,27.6093533 18.8413177,27.4744352 C18.7385392,27.2768955 19.2690382,27.0417488 19.1485385,26.8101489 C19.1017921,26.7203026 18.7531387,26.4629612 18.8413177,26.2934818 C18.8866365,26.2063793 19.0946477,26.1018211 19.1485385,25.9982434 C19.227976,25.8455649 18.7657633,25.4065647 18.8413177,25.3339571 C18.9080099,25.2698661 19.1233374,25.1113733 19.1485385,25.0387188 C19.2378248,24.781307 18.9047738,24.6440139 18.8413177,24.5220516 C18.7763526,24.3971891 19.1118322,24.0759337 19.1485385,24.0053845 C19.2302831,23.8482718 18.8783011,23.633609 18.8413177,23.562527 C18.7266955,23.3422238 19.1161529,23.2130367 19.1485385,23.1196694 C19.3264896,22.6066379 18.6682326,23.0094804 19.1485385,22.0863352 L19.1485385,22.0863352 Z M19.456037,40.2656005 C19.4303743,40.0406005 19.6892666,40.2656005 19.456037,40.2656005 L19.456037,40.2656005 Z M19.3171785,33.0322607 C19.3428412,32.8072607 19.083949,33.0322607 19.3171785,33.0322607 L19.3171785,33.0322607 Z M19.6283146,39.4319264 C19.4033146,39.4062637 19.6283146,39.6651559 19.6283146,39.4319264 L19.6283146,39.4319264 Z M19.781925,40.3176415 C19.556925,40.2919788 19.781925,40.550871 19.781925,40.3176415 L19.781925,40.3176415 Z M19.2253437,41.0557374 C19.4503437,41.0300747 19.2253437,41.2889669 19.2253437,41.0557374 L19.2253437,41.0557374 Z M18.9949281,36.0366853 C19.2199281,36.0110226 18.9949281,36.2699148 18.9949281,36.0366853 L18.9949281,36.0366853 Z M19.1674834,18.6914317 C18.9424834,18.665769 19.1674834,18.9246612 19.1674834,18.6914317 Z M21.2990841,24.7434804 C21.0924054,24.3077738 21.478633,21.8773698 21.1454737,21.7172872 C20.7981542,20.9399251 21.3145678,21.4363395 21.3758893,21.2006201 C21.4708522,20.8355836 21.1966401,20.8806359 21.1454737,20.683953 C21.1183822,20.5798133 21.5012315,19.1805955 21.1454737,18.8387132 C21.5478163,18.4915538 21.0154995,17.7485932 21.1454737,17.436331 C21.1927227,17.3228156 21.515326,17.2012814 21.2990841,16.9934735 C20.9452822,16.6534708 21.51412,16.373437 21.3758893,16.1077584 C21.3314419,16.0223307 20.9717981,15.7772757 21.0686685,15.5910913 C21.0919513,15.5463418 21.4605126,15.3721669 21.2222789,15.2958529 C20.6326529,15.1069766 20.5045984,15.1990392 20.3006165,15.5910913 C20.2507115,15.6870084 20.5186657,15.9864126 20.5310321,16.0339488 C20.6355598,16.4357521 20.188774,16.4496036 20.3006165,16.7720447 C20.3100648,16.7992842 20.5203647,16.9524679 20.5310321,16.9934735 C20.6253085,17.3558711 20.3555682,17.3517153 20.3006165,17.5101406 C20.1939344,17.8177042 20.5926285,17.9822295 20.3006165,18.5434749 C20.2282006,18.6826578 20.6986498,19.046681 20.6078373,19.1339516 C20.5606903,19.1792597 20.2443975,19.5425662 20.3006165,19.6506187 C20.3830014,19.808962 20.4349624,19.7889813 20.6078373,19.8720475 C20.6885631,19.9108361 20.2508241,20.5404018 20.3006165,20.683953 C20.3074701,20.703712 20.6523808,21.0101947 20.6078373,21.0530009 C20.4919205,21.1643966 20.3524561,21.2725958 20.3006165,21.4220489 C20.2217957,21.6492886 20.5139999,21.8485385 20.6078373,21.938716 C20.6969671,22.0243695 20.2132152,22.4452003 20.5310321,22.7506215 C20.7408548,23.4059509 20.3850441,23.0976942 20.3006165,23.3410982 C20.1914321,23.6558759 20.6223521,23.7142123 20.5310321,24.1530037 C20.530834,24.1539554 20.3074401,24.3613174 20.3006165,24.3744324 C20.2280528,24.5138995 20.5161427,24.6719369 20.5310321,24.7434804 C20.6179354,25.1610495 20.4067907,25.1298909 20.3006165,25.3339571 C20.2233525,25.4824582 20.5958177,25.7607593 20.5310321,26.072053 C20.486043,26.2882252 20.1059468,26.4582768 20.5310321,26.6625297 C20.6732002,27.3116856 20.42772,27.0087142 20.3006165,27.2530064 C20.245897,27.358177 20.5628775,27.8002769 20.6078373,27.8434832 C20.6445826,27.8787953 20.2246563,28.2879647 20.3006165,28.4339599 C20.3291231,28.4887495 20.5589721,28.682239 20.6078373,28.7291982 C20.7316012,28.848135 20.2274682,29.2528939 20.3006165,29.3934845 C20.3466858,29.4820294 20.5283015,29.6122892 20.6078373,29.6887229 C20.7109881,29.7878506 20.3250027,30.1585199 20.3006165,30.20539 C20.1464326,30.5017306 20.9485302,30.7428787 20.3774217,31.0172955 C20.6981092,31.982671 20.1262182,32.6749618 20.5310321,33.453012 C20.6732002,34.1021678 20.42772,33.7991964 20.3006165,34.0434887 C20.1567595,34.3199811 20.793971,34.5501785 20.5310321,34.9292038 C20.2308969,35.3618474 20.7599585,35.5949212 20.3006165,36.0363476 C20.2246137,36.1093861 20.673132,36.5123899 20.6078373,36.7006339 C20.5665886,36.8195537 20.3485746,36.903697 20.3006165,36.9958723 C20.1579982,37.2699838 20.7162525,37.3475984 20.6078373,37.6601586 C20.5665886,37.7790783 20.3485746,37.8632217 20.3006165,37.9553969 C20.2124376,38.1248764 20.5610909,38.3822177 20.6078373,38.4720641 C20.6835013,38.6174898 20.363886,38.9279294 20.3006165,38.9887312 C20.2832744,39.0053969 20.5940032,39.4921038 20.6078373,39.5053983 C20.6490586,39.5450118 20.2898305,39.8537157 20.4542269,40.1696846 C20.6087528,40.4666826 20.1249866,41.4139179 20.8382529,41.2768285 C21.6388365,41.1229568 21.0335334,39.2038798 21.3758893,38.5458737 C21.4360597,38.4302265 21.1823986,38.3187645 21.1454737,38.1768257 C21.0427375,37.7819088 21.4997793,37.7959036 21.3758893,37.4387298 C21.3108985,37.2513619 21.0313643,37.4345076 21.1454737,36.9958723 C21.1791285,36.8665038 21.4604586,36.7230177 21.3758893,36.4792052 C21.3509682,36.4073578 21.1139038,36.1970992 21.0686685,36.1101572 C20.9685508,35.9177315 21.3498955,35.9148389 21.3758893,35.8149188 C21.4704785,35.451319 21.186109,35.4544532 21.1454737,35.2982517 C21.0669262,34.9963158 21.2770151,34.7921887 21.4526945,34.707775 C21.5993189,34.6373222 21.1776232,34.4932051 21.1454737,34.3387271 C21.0218761,33.7448424 21.5687829,33.7121918 21.0686685,33.2315832 C20.9867191,33.15283 21.4611697,32.805015 21.3758893,32.6411065 C21.3622324,32.614858 21.0522339,32.2140426 21.0686685,32.198249 C21.1676388,32.1031388 21.4544599,31.8342905 21.3758893,31.6077722 C21.3376178,31.4974359 21.1105726,31.4668829 21.0686685,31.3863435 C20.9471552,31.1527955 21.3324671,30.9531336 21.3758893,30.8696763 C21.5948073,30.4489172 20.7120576,30.5480922 21.3758893,29.9101517 C21.4573688,29.8318502 20.9871891,29.3241669 21.0686685,29.2458654 C21.0962582,29.2193517 21.3663601,28.9780998 21.3758893,28.950627 C21.4604586,28.7068145 21.1791285,28.5633284 21.1454737,28.4339599 C20.998976,27.8708243 21.5676535,27.8063392 21.0686685,27.326816 C21.0060246,27.2666154 21.2901316,27.122594 21.2990841,27.1053873 C21.52858,26.6642975 21.030095,26.7369964 21.1454737,26.2934818 C21.1551655,26.2562267 21.3627116,26.0362345 21.3758893,25.9982434 C21.4595834,25.7569539 21.1896145,25.6826434 21.1454737,25.5553859 C21.0115858,25.1693883 21.4035219,25.1449381 21.2990841,24.7434804 Z M20.8382529,18.0271454 C21.0632529,18.0014827 20.8382529,18.2603749 20.8382529,18.0271454 L20.8382529,18.0271454 Z M21.0108082,17.8057167 C20.7858082,17.780054 21.0108082,18.0389462 21.0108082,17.8057167 L21.0108082,17.8057167 Z M20.9918633,40.2689068 C21.05093,40.1910268 21.2703995,40.0894714 20.9918633,40.2689068 L20.9918633,40.2689068 Z M21.2247942,40.5387326 C21.10079,40.2208885 21.0824468,40.3387005 21.2247942,40.5387326 L21.2247942,40.5387326 Z M20.8532825,18.3441523 C20.8789452,18.1191523 20.620053,18.3441523 20.8532825,18.3441523 L20.8532825,18.3441523 Z M21.0686685,17.9529981 C21.3807951,18.0468555 21.1401003,17.9995001 21.0686685,17.9529981 L21.0686685,17.9529981 Z M21.0108082,18.1747646 C20.7858082,18.1491019 21.0108082,18.4079941 21.0108082,18.1747646 L21.0108082,18.1747646 Z M20.6078373,35.076823 C20.6857172,35.1335859 20.7872726,35.3444955 20.6078373,35.076823 L20.6078373,35.076823 Z M21.1644186,32.862873 C20.9394186,32.8372103 21.1644186,33.0961025 21.1644186,32.862873 L21.1644186,32.862873 Z M20.8382529,36.9224004 C21.0632529,36.8967377 20.8382529,37.1556299 20.8382529,36.9224004 L20.8382529,36.9224004 Z M21.0108082,39.9485936 C20.7858082,39.9229309 21.0108082,40.1818231 21.0108082,39.9485936 Z M21.8367205,24.2268133 C21.9801781,24.550572 21.7557957,25.5395501 21.7599153,25.5553859 C21.8233626,25.7992764 22.1131166,25.4820695 21.9903309,26.072053 C21.9677328,26.1806366 21.6659563,26.2440275 21.7599153,26.5149105 C21.814867,26.6733358 22.0846074,26.6691801 21.9903309,27.0315777 C21.9613344,27.1430401 21.665723,27.2028795 21.7599153,27.4744352 C21.814867,27.6328605 22.0846074,27.6287047 21.9903309,27.9911023 C21.9549909,28.1269489 21.6729888,28.1833515 21.7599153,28.4339599 C21.8459504,28.6819982 22.1012176,28.4178179 21.9903309,28.950627 C21.9823014,28.9892086 21.7808798,29.2055717 21.7599153,29.2458654 C21.6640865,29.4300478 22.0570138,29.6635508 21.9903309,29.9839613 C21.961136,30.1242424 21.5639842,30.0502403 21.7599153,30.4268188 C21.8299578,30.56144 22.0764932,30.612279 21.9903309,30.9434859 C21.940445,31.1352468 21.6433622,30.9383145 21.7599153,31.3863435 C21.7644738,31.4038663 21.9868261,31.517122 21.9903309,31.5339626 C22.1131166,32.1239461 21.8233626,31.8067393 21.7599153,32.0506298 C21.6649524,32.4156663 21.9391646,32.3706139 21.9903309,32.5672969 C22.0707606,32.8764678 21.6547394,33.1032453 21.7599153,33.3053928 C21.8396276,33.4585994 22.0817345,33.4707055 21.9903309,33.8220599 C21.9549909,33.9579065 21.6729888,34.0143091 21.7599153,34.2649175 C21.7661219,34.2828111 21.9895542,34.4826143 21.9903309,34.4863462 C22.0960724,34.9944326 21.8971408,34.8052034 21.7599153,35.0030134 C21.4932306,35.3874383 21.8608999,35.1485823 21.9135257,35.2244421 C22.1127721,35.511655 21.5477854,37.0134448 22.0671361,37.5125394 C22.143139,37.5855779 21.6946206,37.9885817 21.7599153,38.1768257 C22.1426503,39.2802474 21.5912396,38.6500596 21.7599153,39.1363504 C21.7700941,39.1656957 22.14295,39.506351 22.0671361,39.5792079 C21.6821599,39.949169 21.7663238,40.1020336 22.0671361,40.3911134 C22.1016323,40.4242642 21.8412785,40.7645415 21.9135257,40.8339709 C21.9399648,40.8593789 22.6326121,40.3643597 22.6815777,40.3173038 C22.7210104,40.2794091 22.4751298,39.9759997 22.5279673,39.8744463 C22.7633797,39.421985 22.8271662,39.6375993 22.6047725,39.21016 C22.9856333,38.8929248 22.5415457,36.9524431 22.7583829,36.8482531 C22.7814837,36.4304289 22.7120171,36.3608382 22.5279673,36.1839668 C22.4166791,36.0770191 22.9928745,35.6712166 22.7583829,35.4458709 C22.655976,35.3474581 22.6303743,35.1752357 22.5279673,35.076823 C22.4639681,35.0153199 22.8269377,34.8053704 22.8351881,34.7815846 C22.9653315,34.4063824 22.4151514,34.1519045 22.8351881,33.7482503 C22.9101551,33.6762073 22.5460699,33.3401859 22.5279673,33.3053928 C22.4373943,33.1313119 22.722833,33.0046716 22.7583829,32.9363448 C22.9630324,32.5430098 22.3953465,32.178078 22.8351881,31.7553914 C22.9311647,31.6631582 22.4651816,31.2990612 22.5279673,31.2387243 C22.6687769,31.1034067 22.7711838,30.9311843 22.9119933,30.7958667 C22.9746373,30.7356661 22.6905303,30.5916447 22.6815777,30.574438 C22.5485089,30.3186804 22.6709604,30.1519869 22.7583829,29.9839613 L22.7583829,29.5411037 L22.6047725,29.5411037 C22.4778475,29.0307836 22.7251355,29.088338 22.8351881,28.8768174 C22.9273361,28.6997096 22.3804506,28.3542943 22.5279673,28.2125311 C22.6020817,28.1413074 22.9892028,27.9178756 22.8351881,27.695864 C22.7442555,27.564785 22.4120506,27.4382117 22.5279673,27.326816 C22.5979992,27.2595156 22.8052523,27.044073 22.8351881,26.9577681 C22.9240064,26.7017057 22.6340285,26.6554851 22.6047725,26.5149105 C22.5415397,26.2110778 22.6740611,25.9621263 22.6047725,25.6291955 C22.5382989,25.3097905 22.9293717,24.9983102 22.8351881,24.81729 C22.7521894,24.6577669 22.5215843,24.6203977 22.6047725,24.3006229 C22.6162624,24.2564561 22.8118454,24.0502491 22.8351881,24.0053845 C22.9271391,23.8286552 22.6175992,23.6979685 22.6047725,23.6363366 C22.5380896,23.3159261 22.931017,23.0824231 22.8351881,22.8982407 C22.7290139,22.6941744 22.5178692,22.7253331 22.6047725,22.3077639 C22.7001887,21.8492908 22.9096898,20.903168 22.5279673,20.5363338 C22.4837012,20.4937942 22.8223102,20.1920372 22.8351881,20.1672858 C22.9076709,20.0279743 22.6394399,19.7910587 22.6047725,19.7244283 C22.396568,19.3242602 22.9710928,19.3781444 22.8351881,18.9863324 C22.8057136,18.9013576 22.4463363,18.7741789 22.5279673,18.6172845 C22.6021245,18.4747549 22.7678906,18.3037724 22.8351881,18.1744269 C22.8515334,18.1430114 22.4561976,17.5004625 22.4511621,17.5101406 C22.3515291,17.7016348 23.055224,17.278737 22.7583829,16.9934735 C22.2790844,16.5328689 22.9864865,16.4723626 22.8351881,16.181568 C22.7939196,16.1022501 21.8758523,15.4796761 21.7599153,15.5910913 C21.6359049,15.710265 22.0600211,16.1282711 21.9903309,16.3291872 C21.9651298,16.4018417 21.7498023,16.5603345 21.6831101,16.6244255 C21.665066,16.6417659 21.981058,17.0405494 21.9903309,17.0672831 C22.1082637,17.4072823 21.6500625,17.4148645 21.7599153,17.7315694 C21.777094,17.7810955 21.9370617,17.9756161 21.9903309,18.0268077 C22.047848,18.0820815 22.186535,17.8134342 22.2207465,17.8791886 C22.3025561,18.0364262 21.6614738,18.3864954 21.7599153,18.7649036 C21.7635095,18.7787198 21.9829747,18.958055 21.9903309,18.9863324 C22.081336,19.3361548 21.8239884,19.3182772 21.7599153,19.5029995 C21.6500625,19.8197044 22.1082637,19.8272866 21.9903309,20.1672858 C21.93195,20.3355976 21.5525664,20.4846912 21.6831101,20.6101434 C21.7498023,20.6742344 21.9651298,20.8327272 21.9903309,20.9053817 C22.0845233,21.1769375 21.7889119,21.2367768 21.7599153,21.3482393 C21.6656389,21.7106369 21.9353792,21.7064811 21.9903309,21.8649064 C22.1019132,22.1865972 21.6483331,22.2813115 21.7599153,22.6030023 C21.8239884,22.7877246 22.081336,22.7698471 21.9903309,23.1196694 C21.9740061,23.1824217 21.7432161,23.3571461 21.6831101,23.4149078 C21.665066,23.4322481 21.981058,23.8310317 21.9903309,23.8577653 C22.0624272,24.0656182 21.8834008,24.137094 21.8367205,24.2268133 Z M22.3164966,28.9509647 C22.0914966,28.925302 22.3164966,29.1841942 22.3164966,28.9509647 L22.3164966,28.9509647 Z M22.6237174,16.9938112 C22.3987174,16.9681485 22.6237174,17.2270407 22.6237174,16.9938112 L22.6237174,16.9938112 Z M22.1439413,31.2387243 C21.8318147,31.3325816 22.0725095,31.2852262 22.1439413,31.2387243 L22.1439413,31.2387243 Z M22.5279673,18.9866701 C22.7529673,18.9610074 22.5279673,19.2198996 22.5279673,18.9866701 L22.5279673,18.9866701 Z M22.3743569,39.505736 C22.5993569,39.4800733 22.3743569,39.7389655 22.3743569,39.505736 L22.3743569,39.505736 Z M22.5405057,40.3911134 C22.4466483,40.0911606 22.4940037,40.3224676 22.5405057,40.3911134 L22.5405057,40.3911134 Z M22.2210243,40.1179813 C22.1953616,39.8929813 22.4542538,40.1179813 22.2210243,40.1179813 Z M23.910461,18.6172845 L23.910461,18.1744269 L23.7568506,18.1744269 C23.7568506,18.1744269 23.4995707,16.9454804 23.2960193,17.1410927 C23.0485359,17.3789236 23.517901,17.2231033 23.3728245,17.3625214 C23.3484116,17.3859822 23.0217173,17.5417754 23.1424089,17.6577598 C23.2807925,17.790746 23.5414432,17.821497 23.4496297,18.1744269 C23.4445353,18.1940099 23.0856616,18.63656 23.1424089,18.691094 C23.172735,18.7202373 23.4895883,19.0217419 23.4496297,19.060142 C23.40467,19.1033482 23.0876894,19.5454481 23.1424089,19.6506187 C23.1793924,19.7217007 23.5313744,19.9363636 23.4496297,20.0934762 C23.3929769,20.2023626 23.1916844,20.367817 23.1424089,20.4625242 C23.0563074,20.6280108 23.5677258,21.0133205 23.4496297,21.1268105 C23.3829375,21.1909015 23.16761,21.3493943 23.1424089,21.4220489 C23.0748836,21.6167238 23.527202,21.9379788 23.4496297,22.0125256 C23.3981563,22.0619915 23.1598607,22.3312603 23.1424089,22.3815735 C22.9919884,22.8152348 23.7095189,22.796107 23.2960193,23.193479 C22.9614793,23.5149711 23.3357725,23.6389324 23.4496297,23.8577653 C23.6426089,24.2286703 22.9377866,24.3992197 23.4496297,24.8910996 C23.5404422,24.9783701 23.0699931,25.3423933 23.1424089,25.4815763 C23.205865,25.6035386 23.5389161,25.7408317 23.4496297,25.9982434 C23.408381,26.1171632 23.1903671,26.2013065 23.1424089,26.2934818 C23.0283584,26.5126864 23.5507303,26.666296 23.4496297,26.9577681 C23.4036846,27.0902275 23.2359775,27.1630873 23.1424089,27.2530064 C23.0327021,27.3584344 23.4262001,27.7246419 23.4496297,27.7696736 C23.4713695,27.8114572 23.3178725,28.1495288 23.2960193,28.2125311 C23.2032876,28.4798759 23.5075961,28.7654063 23.4496297,28.8768174 C23.4129235,28.9473666 23.0774439,29.268622 23.1424089,29.3934845 C23.1677279,29.4421474 23.5759495,29.7149491 23.4496297,29.8363421 C23.4024827,29.8816502 23.08619,30.2449567 23.1424089,30.3530092 C23.1848559,30.434592 23.4071828,30.5666648 23.4496297,30.6482476 C23.549174,30.839571 23.0477589,31.2215755 23.1424089,31.3125339 C23.2422209,31.4084529 23.3842273,31.5558787 23.4496297,31.6815818 C23.5313744,31.8386945 23.1793924,32.0533573 23.1424089,32.1244394 C22.9494298,32.4953443 23.6542521,32.6658937 23.1424089,33.1577736 C23.1012068,33.1973688 23.5114548,33.629423 23.4496297,33.7482503 C23.3881015,33.8665074 23.2039372,33.9990413 23.1424089,34.1172983 C23.0749023,34.2470457 23.4086262,34.4813472 23.4496297,34.5601558 C23.5269635,34.7087909 23.2387048,34.9280913 23.2192141,35.0030134 C23.1051047,35.4416487 23.384639,35.258503 23.4496297,35.4458709 C23.6601672,36.0528486 23.0054814,35.699364 23.4496297,36.5530147 C23.5828141,36.8089943 23.0304782,36.9283612 23.1424089,37.1434915 C23.1794332,37.2146519 23.4249505,37.3675798 23.4496297,37.4387298 C23.5438221,37.7102856 23.2482107,37.7701249 23.2192141,37.8815874 C23.1146865,38.2833907 23.5614723,38.2972421 23.4496297,38.6196833 C23.3010831,39.0479421 23.0336278,39.031812 23.4496297,39.4315887 C23.6536607,39.627662 23.9872662,37.9553969 23.9872662,37.9553969 L23.9872662,36.9220627 L23.9872662,35.7411093 L23.9872662,35.076823 L23.9872662,32.8625353 C24.0403316,32.0624814 23.8669295,31.4700107 23.9872662,31.2387243 C24.0432844,30.6483883 23.9872662,30.5006284 23.9872662,30.5006284 L23.9872662,28.5077695 L23.9872662,27.1053873 L23.9872662,25.3339571 L23.9104609,23.7066864 L23.9104609,22.3815738 L23.9104609,21.5894899 L23.9872661,20.4625242 L23.910461,18.8387132 L23.910461,18.6172845 Z M24.6017078,11.9744214 L24.6017078,11.3839447 L24.6017078,10.42442 L24.6017078,9.83394328 L24.6017078,7.98870354 L24.6017078,7.10298846 L24.6017078,5.4053679 L26.4450326,5.55298708 L26.4450326,7.545846 L26.4450326,11.0148967 L26.4450326,11.6053734 L26.4450326,13.302994 L26.4450326,15.3696625 L26.4450326,16.0339488 L26.4450326,17.8791886 L26.4450326,19.7244283 L26.4450326,21.938716 L26.4450326,23.2672886 L26.4450326,24.0053845 L26.4450326,25.5553859 L26.4450326,27.1053873 L26.4450326,29.0244366 L24.6017078,29.0244366 L24.6017078,27.326816 L24.6017078,25.9982434 L24.6017078,25.4077667 L24.6017078,23.4149078 L24.6017078,21.4220489 L24.6017078,20.8315721 L24.6017078,19.8720475 L24.6017078,19.2077612 L24.6017078,17.436331 L24.6017078,12.933946 L24.6017078,11.9744214 Z" id="mot-5" fill="#FFFFFF"></path>
            </g>
        </g>
    </g>
</svg>