<?xml version="1.0" encoding="UTF-8" standalone="no"?>
<svg width="12px" height="11px" viewBox="0 0 12 11" version="1.1" xmlns="http://www.w3.org/2000/svg" xmlns:xlink="http://www.w3.org/1999/xlink" xmlns:sketch="http://www.bohemiancoding.com/sketch/ns">
    <!-- Generator: Sketch 3.2.2 (9983) - http://www.bohemiancoding.com/sketch -->
    <title>resize</title>
    <desc>Created with Sketch.</desc>
    <defs></defs>
    <g id="Page-1" stroke="none" stroke-width="1" fill="none" fill-rule="evenodd" sketch:type="MSPage">
        <g id="resize" sketch:type="MSLayerGroup" transform="translate(6.000000, 5.679828) rotate(-45.000000) translate(-6.000000, -5.679828) translate(2.255816, 1.989907)" fill="#000000">
            <path d="M2.60931638,2.69244812 L0.148139453,0.231705298 C0.0952867688,0.17863556 0.0952867688,0.092573592 0.148139453,0.0398294352 L0.148139453,0.0398294352 C0.201100663,-0.0132403027 0.287162631,-0.0132403027 0.340015315,0.0398294352 L0.340015315,0.0398294352 L2.80119224,2.50057225 C2.85404493,2.55364199 2.85404493,2.63959543 2.80119224,2.69244812 L2.80119224,2.69244812 C2.77471164,2.71903725 2.7400915,2.73227755 2.70525431,2.73227755 L2.70525431,2.73227755 C2.67052565,2.73227755 2.63590551,2.71903725 2.60931638,2.69244812 L2.60931638,2.69244812 L2.60931638,2.69244812 Z" id="Shape" sketch:type="MSShapeGroup"></path>
            <path id="Shape" sketch:type="MSShapeGroup" d="M0.108527071,2.28927005 L0.108527071,0.135658839 C0.108527071,0.06077516 0.169410759,0 0.244185911,0 L0.244185911,0 C0.31906959,0 0.37984475,0.06077516 0.37984475,0.135658839 L0.37984475,0.135658839 L0.37984475,2.28927005 C0.37984475,2.36415372 0.318852536,2.42492889 0.244185911,2.42492889 L0.244185911,2.42492889 C0.169410759,2.42492889 0.108527071,2.36415372 0.108527071,2.28927005 L0.108527071,2.28927005 L0.108527071,2.28927005 Z"></path>
            <path id="Shape" sketch:type="MSShapeGroup" d="M0.244294438,0.271426206 C0.169193704,0.271426206 0.108527071,0.210542519 0.108527071,0.135658839 L0.108527071,0.135658839 C0.108527071,0.0608836871 0.169193704,0 0.244077384,0 L0.244077384,0 L2.39758006,0 C2.47224669,0 2.53302185,0.0608836871 2.5332389,0.135658839 L2.5332389,0.135658839 C2.5332389,0.210542519 2.47224669,0.271317679 2.39758006,0.271317679 L2.39758006,0.271317679 L0.244294438,0.271426206 L0.244294438,0.271426206 Z"></path>
            <path d="M0.148465034,7.3074533 C0.0953952958,7.25438357 0.0953952958,7.16843012 0.148465034,7.11546891 L0.148465034,7.11546891 L2.60931638,4.65429199 C2.66206054,4.60133078 2.7481225,4.60133078 2.80108371,4.65429199 L2.80108371,4.65429199 C2.85415345,4.70703614 2.85415345,4.79309811 2.80108371,4.84616785 L2.80108371,4.84616785 L0.340232369,7.3074533 C0.313751764,7.33393391 0.279131628,7.34706568 0.244294438,7.34706568 L0.244294438,7.34706568 C0.209674302,7.34706568 0.174945639,7.33393391 0.148465034,7.3074533 L0.148465034,7.3074533 L0.148465034,7.3074533 Z" id="Shape" sketch:type="MSShapeGroup"></path>
            <path id="Shape" sketch:type="MSShapeGroup" d="M0.244294438,7.34717421 C0.169519286,7.34717421 0.108744126,7.286182 0.108744126,7.21140685 L0.108744126,7.21140685 C0.108744126,7.13663169 0.169519286,7.07585653 0.244294438,7.07585653 L0.244294438,7.07585653 L2.39768859,7.07585653 C2.4726808,7.07585653 2.53345596,7.13663169 2.53345596,7.21140685 L2.53345596,7.21140685 C2.53345596,7.28607347 2.4726808,7.34717421 2.39768859,7.34717421 L2.39768859,7.34717421 L0.244294438,7.34717421 L0.244294438,7.34717421 Z"></path>
            <path id="Shape" sketch:type="MSShapeGroup" d="M0.108744126,7.21140685 L0.108744126,5.05812122 C0.108744126,4.98312901 0.169519286,4.92246238 0.244294438,4.92246238 L0.244294438,4.92246238 C0.319178117,4.92246238 0.380061804,4.98312901 0.380061804,5.05790417 L0.380061804,5.05790417 L0.380061804,7.21140685 C0.380061804,7.28607347 0.319178117,7.34695716 0.244511492,7.34717421 L0.244511492,7.34717421 C0.169519286,7.34717421 0.108744126,7.286182 0.108744126,7.21140685 L0.108744126,7.21140685 L0.108744126,7.21140685 Z"></path>
            <path d="M7.22388746,7.30734478 L4.76271053,4.8463849 C4.70985785,4.79353222 4.70985785,4.70747025 4.76271053,4.65450904 L4.76271053,4.65450904 C4.81578027,4.60154783 4.90151666,4.60154783 4.95469492,4.65450904 L4.95469492,4.65450904 L7.41587185,7.11546891 C7.468616,7.16821307 7.468616,7.25427504 7.41587185,7.30734478 L7.41587185,7.30734478 C7.38939124,7.33382538 7.35466258,7.34695716 7.31982539,7.34695716 L7.31982539,7.34695716 C7.2849882,7.34695716 7.25025954,7.33382538 7.22388746,7.30734478 L7.22388746,7.30734478 L7.22388746,7.30734478 Z" id="Shape" sketch:type="MSShapeGroup"></path>
            <path id="Shape" sketch:type="MSShapeGroup" d="M7.18427508,7.21151537 L7.18427508,5.05812122 C7.18427508,4.98312901 7.24515876,4.92224533 7.31982539,4.92224533 L7.31982539,4.92224533 C7.39460054,4.92224533 7.45559276,4.98312901 7.45559276,5.05812122 L7.45559276,5.05812122 L7.45559276,7.21151537 C7.45559276,7.28629052 7.39460054,7.34706568 7.31982539,7.34706568 L7.31982539,7.34706568 C7.24494171,7.34706568 7.18427508,7.28639905 7.18427508,7.21151537 L7.18427508,7.21151537 L7.18427508,7.21151537 Z"></path>
            <path id="Shape" sketch:type="MSShapeGroup" d="M5.16653976,7.34706568 C5.09187314,7.34706568 5.03098945,7.28629052 5.03098945,7.21151537 L5.03098945,7.21151537 C5.03098945,7.13652317 5.09187314,7.07574801 5.16653976,7.07574801 L5.16653976,7.07574801 L7.31982539,7.07574801 C7.39460054,7.07574801 7.45559276,7.13652317 7.45559276,7.21151537 L7.45559276,7.21151537 C7.45559276,7.28629052 7.39460054,7.34706568 7.31982539,7.34706568 L7.31982539,7.34706568 L5.16653976,7.34706568 L5.16653976,7.34706568 Z"></path>
            <path d="M4.76281906,2.69288222 C4.70996637,2.63981249 4.70996637,2.55396757 4.76281906,2.50089784 L4.76281906,2.50089784 L7.22377893,0.0397209082 C7.27663162,-0.0131317756 7.36269358,-0.0131317756 7.41576332,0.0397209082 L7.41576332,0.0397209082 C7.46839895,0.0927906461 7.46839895,0.17863556 7.41576332,0.231705298 L7.41576332,0.231705298 L4.95480345,2.69288222 C4.92843137,2.71936283 4.89370271,2.73249461 4.85875699,2.73249461 L4.85875699,2.73249461 C4.82402833,2.73249461 4.78919114,2.71936283 4.76281906,2.69288222 L4.76281906,2.69288222 L4.76281906,2.69288222 Z" id="Shape" sketch:type="MSShapeGroup"></path>
            <path id="Shape" sketch:type="MSShapeGroup" d="M5.16643124,0.271534733 C5.09154756,0.271534733 5.03066387,0.210542519 5.03066387,0.135767366 L5.03066387,0.135767366 C5.03066387,0.0609922142 5.09154756,0.000217054143 5.16643124,0.000217054143 L5.16643124,0.000217054143 L7.31971686,0.000217054143 C7.39449201,0.000217054143 7.45548423,0.0609922142 7.45548423,0.135767366 L7.45548423,0.135767366 C7.45548423,0.210651046 7.39449201,0.271534733 7.31971686,0.271534733 L7.31971686,0.271534733 L5.16643124,0.271534733 L5.16643124,0.271534733 Z"></path>
            <path id="Shape" sketch:type="MSShapeGroup" d="M7.18416655,2.28905299 L7.18416655,0.135658839 C7.18416655,0.0608836871 7.24505024,0.000108527071 7.31971686,0.000108527071 L7.31971686,0.000108527071 C7.39449201,0.000108527071 7.45548423,0.0608836871 7.45548423,0.135658839 L7.45548423,0.135658839 L7.45548423,2.28894446 C7.45548423,2.36382814 7.39449201,2.42449478 7.31971686,2.42449478 L7.31971686,2.42449478 C7.24483318,2.4246033 7.18416655,2.36393667 7.18416655,2.28905299 L7.18416655,2.28905299 L7.18416655,2.28905299 Z"></path>
        </g>
    </g>
</svg>