<?xml version="1.0" encoding="UTF-8" standalone="no"?>
<svg width="332px" height="115px" viewBox="0 0 332 115" version="1.1" xmlns="http://www.w3.org/2000/svg" xmlns:xlink="http://www.w3.org/1999/xlink" xmlns:sketch="http://www.bohemiancoding.com/sketch/ns">
    <!-- Generator: Sketch 3.2.2 (9983) - http://www.bohemiancoding.com/sketch -->
    <title>is-secure_no_is-moto_maybe</title>
    <desc>Created with Sketch.</desc>
    <defs></defs>
    <g id="Page-1" stroke="none" stroke-width="1" fill="none" fill-rule="evenodd" sketch:type="MSPage">
        <g id="Artboard-2" sketch:type="MSArtboardGroup" transform="translate(-1162.000000, -23.000000)" fill="#FFFFFF">
            <rect id="Rectangle-8" sketch:type="MSShapeGroup" x="1144" y="123" width="362" height="1"></rect>
            <g id="noun_127360_cc" sketch:type="MSLayerGroup" transform="translate(1281.000000, 70.000000)">
                <g id="Group" sketch:type="MSShapeGroup">
                    <path d="M25.725,13.62 C26.1,16.321 25.608,19.162 24.134,21.703 C23.979,21.972 23.814,22.232 23.643,22.485 L22.488,21.324 C22.577,21.185 22.664,21.043 22.748,20.898 C23.99,18.757 24.434,16.373 24.169,14.089 L25.725,13.62 L25.725,13.62 Z M19.538,4.404 C21.708,5.663 23.365,7.468 24.434,9.544 L22.869,10.017 C21.933,8.315 20.537,6.837 18.734,5.792 C13.454,2.728 6.691,4.524 3.627,9.804 C0.563,15.084 2.36,21.847 7.64,24.911 C11.482,27.14 16.109,26.796 19.525,24.41 L20.671,25.561 C16.74,28.439 11.32,28.899 6.836,26.297 C0.79,22.789 -1.268,15.044 2.241,8.999 C5.749,2.953 13.493,0.896 19.538,4.404 L19.538,4.404 Z M86.218,12.802 L80.745,9.207 L77.422,7.03 C77.368,7.1 77.308,7.166 77.245,7.23 C77.176,7.299 77.103,7.362 77.027,7.42 L82.799,16.221 C83.384,17.115 82.044,17.993 81.458,17.1 L75.376,7.826 C74.953,7.755 74.548,7.556 74.222,7.23 C74.149,7.157 74.083,7.081 74.023,7.001 C73.267,7.223 72.423,7.14 71.695,6.702 C70.311,5.871 69.863,4.076 70.695,2.693 L73.9,4.618 C73.988,4.472 74.095,4.334 74.222,4.207 C74.344,4.085 74.477,3.981 74.619,3.895 L72.695,0.694 C74.078,-0.137 75.874,0.31 76.705,1.694 C77.139,2.417 77.225,3.253 77.009,4.005 C77.091,4.066 77.17,4.133 77.244,4.208 C77.578,4.542 77.778,4.959 77.845,5.393 L81.623,7.868 L87.096,11.464 C87.992,12.048 87.111,13.389 86.218,12.802 L86.218,12.802 Z" id="Shape"></path>
                    <path d="M14.298,13.848 C14.344,13.883 32.841,8.403 32.841,8.403 L33.525,6.195 L31.521,2.553 C31.335,2.216 31.416,1.794 31.712,1.548 C32.008,1.303 32.439,1.303 32.734,1.549 L40.14,7.688 C40.446,7.941 40.52,8.381 40.314,8.721 C40.165,8.966 39.9,9.106 39.627,9.106 C39.524,9.106 39.419,9.086 39.318,9.044 L34.896,7.187 L34.418,8.73 L46.854,20.308 L47.642,17.909 L48.749,14.7 L46.655,13.115 L45.851,14.472 C45.4,15.234 44.417,15.486 43.655,15.034 C42.893,14.582 42.641,13.6 43.092,12.837 L48.964,2.919 C49.204,2.515 49.612,2.234 50.076,2.155 C50.539,2.077 51.018,2.207 51.376,2.509 L71.14,19.156 L76.638,12.18 L76.753,12.354 L78.491,15.007 L72.634,22.441 C72.364,22.782 71.969,23 71.536,23.044 C70.998,23.052 70.631,22.919 70.341,22.675 L63.536,16.944 C63.429,17.017 63.164,17.202 62.796,17.498 C59.334,20.278 57.922,23.298 56.963,27.582 L66.789,34.812 C67.335,35.215 67.66,35.855 67.66,36.535 L67.66,51.548 C67.661,52.729 66.703,53.686 65.523,53.686 C64.342,53.686 63.386,52.729 63.386,51.548 L63.385,37.615 L52.403,29.532 L51.973,31.301 C54.993,33.786 56.581,37.413 56.579,41.077 C56.58,43.735 55.742,46.423 54.015,48.707 C51.527,51.991 47.741,53.724 43.914,53.724 C41.253,53.724 38.567,52.887 36.285,51.157 C34.401,49.731 33.027,47.877 32.198,45.833 C31.315,45.764 30.533,45.145 30.297,44.24 C30.049,43.29 30.483,42.323 31.293,41.852 C31.276,41.588 31.269,41.322 31.269,41.057 C31.269,38.398 32.104,35.71 33.834,33.428 C36.321,30.141 40.108,28.407 43.934,28.409 L44.209,28.412 L45.354,24.891 L30.795,28.981 L30.801,29.177 C30.801,29.924 30.564,30.681 30.079,31.323 C29.382,32.243 28.318,32.732 27.247,32.732 C26.499,32.733 25.734,32.495 25.095,32.011 C24.172,31.313 23.681,30.245 23.684,29.173 C23.682,28.514 23.866,27.844 24.245,27.256 L13.787,16.748 C13.296,16.899 12.742,16.82 12.302,16.486 C11.573,15.934 11.43,14.897 11.981,14.169 C12.532,13.44 13.569,13.296 14.298,13.848 Z M47.476,11.727 L50.18,13.773 C50.456,13.982 50.565,14.346 50.453,14.674 C50.453,14.674 47.54,23.424 45.857,28.558 C46.619,28.675 47.376,28.863 48.116,29.123 C48.65,26.944 49.078,25.209 49.094,25.171 C50.324,20.072 53.244,15.219 57.535,11.889 L50.759,6.181 L47.476,11.727 L47.476,11.727 Z M45.352,30.105 L44.923,31.434 C44.442,32.94 44.278,34.49 44.278,35.878 C44.277,36.795 44.348,37.639 44.442,38.354 L45.958,37.959 L47.734,30.688 C46.957,30.403 46.157,30.209 45.352,30.105 L45.352,30.105 Z M42.878,38.761 C42.764,37.947 42.674,36.964 42.674,35.878 C42.674,34.365 42.849,32.655 43.396,30.947 L43.693,30.017 C40.429,30.089 37.236,31.593 35.112,34.397 C33.599,36.395 32.872,38.732 32.872,41.058 L32.875,41.361 L42.878,38.761 L42.878,38.761 Z M33.813,45.536 C34.546,47.2 35.701,48.705 37.255,49.881 C39.252,51.392 41.59,52.122 43.916,52.122 C47.264,52.121 50.563,50.613 52.738,47.742 C54.25,45.741 54.978,43.403 54.979,41.079 C54.977,38.122 53.802,35.203 51.547,33.063 L49.81,40.212 C49.624,40.976 49.029,41.58 48.27,41.776 L33.813,45.536 L33.813,45.536 Z M33.846,10.577 L29.037,26.104 C29.158,26.175 29.276,26.253 29.39,26.34 C29.796,26.647 30.119,27.025 30.351,27.444 C35.761,25.927 45.898,23.087 45.944,23.085 L46.256,22.13 L33.846,10.577 L33.846,10.577 Z M32.269,10.25 L14.924,15.486 L14.899,15.593 L25.392,26.138 C25.955,25.796 26.599,25.618 27.245,25.618 C27.332,25.618 27.419,25.621 27.507,25.627 L32.269,10.25 L32.269,10.25 Z M62.113,6.425 C62.522,4.038 64.399,2.378 66.306,2.716 C68.213,3.054 69.428,5.263 69.02,7.651 C68.612,10.039 66.735,11.699 64.827,11.36 C62.92,11.021 61.705,8.812 62.113,6.425 L62.113,6.425 Z" id="Shape"></path>
                </g>
            </g>
        </g>
    </g>
</svg>