<?xml version="1.0" encoding="UTF-8" standalone="no"?>
<svg width="332px" height="115px" viewBox="0 0 332 115" version="1.1" xmlns="http://www.w3.org/2000/svg" xmlns:xlink="http://www.w3.org/1999/xlink" xmlns:sketch="http://www.bohemiancoding.com/sketch/ns">
    <!-- Generator: Sketch 3.2.2 (9983) - http://www.bohemiancoding.com/sketch -->
    <title>mot-crossed</title>
    <desc>Created with Sketch.</desc>
    <defs></defs>
    <g id="Page-1" stroke="none" stroke-width="1" fill="none" fill-rule="evenodd" sketch:type="MSPage">
        <g id="Artboard-2" sketch:type="MSArtboardGroup" transform="translate(-12.000000, -23.000000)">
            <g id="mot-crossed-4" sketch:type="MSLayerGroup" transform="translate(7.000000, 52.000000)">
                <g id="cross" transform="translate(170.705882, 25.529095)" fill="#FFFFFF" sketch:type="MSShapeGroup">
                    <path d="M1.31173206,0.0609759905 L55.087896,53.7072772 L53.8372875,54.9548656 L0.0611235963,1.30856439 L1.31173206,0.0609759905 L1.31173206,0.0609759905 Z" id="Rectangle-3"></path>
                    <path d="M0.0611235963,53.7072772 L53.8372875,0.0609759905 L55.087896,1.30856439 L1.31173206,54.9548656 L0.0611235963,53.7072772 L0.0611235963,53.7072772 Z" id="Rectangle-4"></path>
                </g>
                <g id="mot-crossed" sketch:type="MSShapeGroup">
                    <g id="noun_59583_cc" transform="translate(175.088235, 36.833854) scale(-1, 1) translate(-175.088235, -36.833854) translate(0.588235, 0.333854)" fill="#FFFFFF">
                        <g id="Group">
                            <path d="M181.468569,71.9544653 C181.135745,71.9544653 0.343850373,72.0246466 0.343850373,71.0540861 C0.823024273,69.9875984 181.145738,70.751495 181.468569,70.751495 L209.728824,70.751495 C212.087529,70.751495 212.581941,69.1210693 212.581941,67.7520891 L212.581941,29.1840594 C212.581941,28.8520396 212.852059,28.5825743 213.184882,28.5825743 C213.517706,28.5825743 213.787824,28.8520396 213.787824,29.1840594 L213.787824,67.7512871 C213.787824,70.3833861 212.27002,71.9544653 209.728824,71.9544653 L181.468569,71.9544653 Z" id="Shape"></path>
                            <path d="M238.546573,71.4239591 C238.546573,71.3639797 238.285733,70.8027809 239.122745,70.7514967 C246.201178,70.3177967 281.125727,70.6908069 295.05295,70.6912468 C306.127752,70.6915967 315.64324,70.751495 315.781555,70.751495 L344.04181,70.751495 C346.400516,70.751495 346.894928,69.1210693 346.894928,67.7520891 L346.894928,29.1840594 C346.894928,28.8520396 347.165045,28.5825743 347.497869,28.5825743 C347.830692,28.5825743 348.10081,28.8520396 348.10081,29.1840594 L348.10081,67.7512871 C348.10081,70.3833861 346.583006,71.9544653 344.04181,71.9544653 C344.04181,71.9544653 238.546573,72.3945197 238.546573,71.4239591 Z" id="Shape-2" transform="translate(293.304465, 50.318281) scale(-1, 1) translate(-293.304465, -50.318281) "></path>
                            <path d="M213.184882,25.5222178 C212.852059,25.5222178 212.581941,25.2527525 212.581941,24.9207327 L212.581941,9.31660396 C212.581941,8.98458416 212.852059,8.71511881 213.184882,8.71511881 C213.517706,8.71511881 213.787824,8.98458416 213.787824,9.31660396 L213.787824,24.9207327 C213.787824,25.2527525 213.517706,25.5222178 213.184882,25.5222178 L213.184882,25.5222178 Z" id="Shape"></path>
                            <path d="M239.530196,7.67655446 C239.197373,7.67655446 238.927255,7.40708911 238.927255,7.07506931 L238.927255,2.23191089 C238.927255,1.76916832 238.548608,1.39384158 238.083941,1.39384158 L214.627922,1.39384158 C214.164863,1.39384158 213.787824,1.7699703 213.787824,2.23191089 L213.787824,7.07506931 C213.787824,7.40708911 213.517706,7.67655446 213.184882,7.67655446 C212.852059,7.67655446 212.581941,7.40708911 212.581941,7.07506931 L212.581941,2.23191089 C212.581941,1.10673267 213.50002,0.190871287 214.627922,0.190871287 L238.084745,0.190871287 C239.214255,0.190871287 240.133941,1.10673267 240.133941,2.23191089 L240.133941,7.07506931 C240.133137,7.40708911 239.86302,7.67655446 239.530196,7.67655446 L239.530196,7.67655446 Z" id="Shape"></path>
                            <path d="M239.530196,71.9544653 C239.197373,71.9544653 238.927255,71.685 238.927255,71.3529802 L238.927255,9.51148515 C238.927255,9.17946535 239.197373,8.91 239.530196,8.91 C239.86302,8.91 240.133137,9.17946535 240.133137,9.51148515 L240.133137,71.3529802 C240.133137,71.685 239.86302,71.9544653 239.530196,71.9544653 L239.530196,71.9544653 Z" id="Shape"></path>
                            <path d="M195.488961,71.3858614 C195.488961,71.0538416 195.759078,70.7843762 196.091902,70.7843762 C197.657137,70.7843762 198.354941,69.9952277 198.354941,68.2252574 L198.354941,49.6738515 C198.354941,49.3418317 198.625059,49.0723663 198.957882,49.0723663 C199.290706,49.0723663 199.560824,49.3418317 199.560824,49.6738515 L199.560824,68.2244554 C199.561627,71.4981386 197.387824,71.9873465 196.091902,71.9873465 C195.759078,71.9873465 195.488961,71.7178812 195.488961,71.3858614 Z" id="Shape"></path>
                            <path d="M209.531863,71.8606337 C209.199039,71.8606337 208.928922,71.5911683 208.928922,71.2591485 L208.928922,44.4866436 C208.928922,44.024703 208.551882,43.6501782 208.08802,43.6501782 L200.405745,43.6501782 C199.940275,43.6501782 199.560824,44.024703 199.560824,44.4866436 L199.560824,45.5909703 C199.560824,45.9229901 199.290706,46.1924554 198.957882,46.1924554 C198.625059,46.1924554 198.354941,45.9229901 198.354941,45.5909703 L198.354941,44.4866436 C198.354941,43.3622673 199.275431,42.4472079 200.405745,42.4472079 L208.08802,42.4472079 C209.216725,42.4472079 210.134804,43.3622673 210.134804,44.4866436 L210.134804,71.2591485 C210.134804,71.5911683 209.864686,71.8606337 209.531863,71.8606337 L209.531863,71.8606337 Z" id="Shape"></path>
                            <path d="M240.609863,9.91808911 L212.103608,9.91808911 C211.770784,9.91808911 211.500667,9.64862376 211.500667,9.31660396 L211.500667,7.07587129 C211.500667,6.74385149 211.770784,6.47438614 212.103608,6.47438614 L240.609863,6.47438614 C240.942686,6.47438614 241.212804,6.74385149 241.212804,7.07587129 L241.212804,9.31660396 C241.212804,9.64862376 240.942686,9.91808911 240.609863,9.91808911 L240.609863,9.91808911 Z M212.706549,8.71511881 L240.006922,8.71511881 L240.006922,7.67735644 L212.706549,7.67735644 L212.706549,8.71511881 L212.706549,8.71511881 Z" id="Shape"></path>
                            <g transform="translate(211.039216, 17.643564)" id="Shape">
                                <path d="M14.329098,7.37982178 C12.3723529,7.37982178 10.7813922,5.79270297 10.7813922,3.84068317 C10.7813922,1.88786139 12.3723529,0.299138614 14.329098,0.299138614 C16.2890588,0.299138614 17.8840392,1.88786139 17.8840392,3.84068317 C17.8840392,5.79190099 16.2898627,7.37982178 14.329098,7.37982178 L14.329098,7.37982178 Z M14.329098,1.50210891 C13.038,1.50210891 11.9872745,2.55109901 11.9872745,3.84068317 C11.9872745,5.12866337 13.038,6.17685149 14.329098,6.17685149 C15.6242157,6.17685149 16.6781569,5.12866337 16.6781569,3.84068317 C16.6781569,2.55109901 15.6250196,1.50210891 14.329098,1.50210891 L14.329098,1.50210891 Z"></path>
                                <path d="M18.2377647,23.893396 L10.301451,23.893396 C10.1310196,23.893396 9.96862745,23.8212178 9.85366667,23.694505 C9.7395098,23.569396 9.68403922,23.4001782 9.70172549,23.2309604 L10.8416863,12.0184752 L0.622235294,10.3511584 C0.328,10.3030396 0.113352941,10.0480099 0.116568627,9.75047525 L0.128627451,8.69506931 C0.132647059,8.36545545 0.401156863,8.10080198 0.730764706,8.1 L18.101902,8.08716832 L18.1027059,8.08716832 C18.3591569,8.08716832 18.5882745,8.24916832 18.6718824,8.49056436 L23.2100196,21.464198 C23.3000588,21.7208317 23.2051961,22.0063366 22.980098,22.1595149 L21.9333922,22.8692673 C21.791902,22.964703 21.617451,22.9975842 21.4510392,22.9566832 C21.2846275,22.9157822 21.1439412,22.8075149 21.063549,22.6575446 L18.1485294,17.254604 L18.8366863,23.2229406 C18.8559804,23.3937624 18.8021176,23.5645842 18.6871569,23.691297 C18.5738039,23.8196139 18.409,23.893396 18.2377647,23.893396 L18.2377647,23.893396 Z M10.9687059,22.6904257 L17.5616667,22.6904257 L16.5913333,14.2784554 C16.5583725,13.9921485 16.7344314,13.7218812 17.0101765,13.6360693 C17.2883333,13.5494554 17.5857843,13.6705545 17.7216471,13.9247822 L21.8079804,21.5002871 L21.9197255,21.424901 L17.6758235,9.29094059 L1.66813725,9.3029703 L11.5973725,10.9229703 C11.9125098,10.974297 12.1319804,11.260604 12.0998235,11.5773861 L10.9687059,22.6904257 L10.9687059,22.6904257 Z"></path>
                            </g>
                            <path d="M237.502706,42.3862574 L213.353706,42.3862574 C213.020882,42.3862574 212.750765,42.1167921 212.750765,41.7847723 C212.750765,41.4527525 213.020882,41.1832871 213.353706,41.1832871 L236.899765,41.1832871 L236.899765,15.3531089 L213.353706,15.3531089 C213.020882,15.3531089 212.750765,15.0836436 212.750765,14.7516238 C212.750765,14.419604 213.020882,14.1501386 213.353706,14.1501386 L237.502706,14.1501386 C237.835529,14.1501386 238.105647,14.419604 238.105647,14.7516238 L238.105647,41.7847723 C238.105647,42.1167921 237.835529,42.3862574 237.502706,42.3862574 L237.502706,42.3862574 Z" id="Shape"></path>
                            <path d="M226.294431,26.7259901 L224.217902,26.7259901 L225.010569,27.6651089 L224.217902,34.4963762 L225.257373,35.5325347 L226.294431,34.4963762 L225.500157,27.6651089 L226.294431,26.7259901 Z" id="Shape"></path>
                            <g transform="translate(165.828152, 28.354376) rotate(26.000000) translate(-165.828152, -28.354376) translate(117.592857, 25.547445)" id="Shape">
                                <path d="M13.377634,5.19442574 C12.7484508,5.19442574 12.1250136,5.11743564 11.6998122,4.97067327 L1.33409103,1.3850198 C0.587115555,1.12678218 0.733637666,0.749049505 1.65873806,0.538930693 C2.57809248,0.332019802 3.93701324,0.371316832 4.68973468,0.629554455 L15.0554558,4.21520792 C15.8024313,4.47344554 15.6559092,4.85117822 14.7308088,5.06129703 C14.3314642,5.15031683 13.8545491,5.19442574 13.377634,5.19442574 L13.377634,5.19442574 Z"></path>
                                <path d="M26.2801988,5.19442574 C25.6510156,5.19442574 25.0275784,5.11743564 24.6023769,4.97067327 L14.2452747,1.3850198 C13.4982993,1.12678218 13.6448214,0.749049505 14.5699218,0.538930693 C15.4921492,0.332019802 16.848197,0.371316832 17.6009184,0.629554455 L27.9580206,4.21520792 C28.7049961,4.47344554 28.558474,4.85117822 27.6333736,5.06129703 C27.234029,5.15031683 26.7571139,5.19442574 26.2801988,5.19442574 L26.2801988,5.19442574 Z"></path>
                                <path d="M37.5049417,4.97067327 L27.1507125,1.3850198 C26.403737,1.12678218 26.5502591,0.747445545 27.4753595,0.538930693 C28.394714,0.332019802 29.7565077,0.371316832 30.5063562,0.629554455 L40.8605854,4.21520792 C41.6075608,4.47344554 41.4610387,4.85278218 40.5359383,5.06129703 C40.1365938,5.15031683 39.6596787,5.19442574 39.1827635,5.19442574 C38.5535804,5.19442574 37.9301431,5.11743564 37.5049417,4.97067327 Z"></path>
                                <path d="M52.0882013,5.19442574 C51.4590181,5.19442574 50.8355809,5.11743564 50.4103795,4.97067327 L40.0561503,1.3850198 C39.3091748,1.12678218 39.4556969,0.747445545 40.3807973,0.538930693 C41.3030247,0.332019802 42.6590725,0.371316832 43.4117939,0.629554455 L53.7660231,4.21520792 C54.5129986,4.47344554 54.3664765,4.85278218 53.4413761,5.06129703 C53.0420315,5.15031683 52.5651164,5.19442574 52.0882013,5.19442574 L52.0882013,5.19442574 Z"></path>
                                <path d="M64.9936391,5.19442574 C64.3644559,5.19442574 63.7410186,5.11743564 63.3158172,4.97067327 L52.961588,1.3850198 C52.2146125,1.12678218 52.3611346,0.747445545 53.286235,0.538930693 C54.2055895,0.332019802 55.5645102,0.371316832 56.3172317,0.629554455 L66.6714609,4.21520792 C67.4184364,4.47344554 67.2719142,4.85278218 66.3468139,5.06129703 C65.9474693,5.15031683 65.4705542,5.19442574 64.9936391,5.19442574 L64.9936391,5.19442574 Z"></path>
                                <path d="M77.9105687,5.19442574 C77.2813856,5.19442574 76.6579483,5.11743564 76.2327469,4.97067327 L65.8670258,1.3850198 C65.1200503,1.12678218 65.2665724,0.749049505 66.1916728,0.538930693 C67.1110272,0.332019802 68.469948,0.371316832 69.2226694,0.629554455 L79.5883906,4.21520792 C80.335366,4.47344554 80.1888439,4.85117822 79.2637435,5.06129703 C78.864399,5.15031683 78.3874838,5.19442574 77.9105687,5.19442574 L77.9105687,5.19442574 Z"></path>
                                <path d="M90.8045146,5.19442574 C90.1753314,5.19442574 89.5518942,5.11743564 89.1266927,4.97067327 L78.7724635,1.3850198 C78.025488,1.12678218 78.1720102,0.747445545 79.0971105,0.538930693 C80.016465,0.332019802 81.3753857,0.371316832 82.1281072,0.629554455 L92.4823364,4.21520792 C93.2293119,4.47344554 93.0827897,4.85278218 92.1576894,5.06129703 C91.7583448,5.15031683 91.2814297,5.19442574 90.8045146,5.19442574 L90.8045146,5.19442574 Z"></path>
                                <path d="M94.20038,5.50238614 L2.90273951,5.50238614 C1.71332473,5.50238614 0.748002579,5.23292079 0.748002579,4.90090099 L0.748002579,0.679277228 C0.748002579,0.347257426 1.71332473,0.0777920792 2.90273951,0.0777920792 L94.197507,0.0777920792 C95.3869218,0.0777920792 96.3522439,0.347257426 96.3522439,0.679277228 L96.3522439,4.90090099 C96.3551169,5.23292079 95.3897948,5.50238614 94.20038,5.50238614 L94.20038,5.50238614 Z M5.05747645,4.29941584 L92.0427701,4.29941584 L92.0427701,1.28076238 L5.05747645,1.28076238 L5.05747645,4.29941584 L5.05747645,4.29941584 Z"></path>
                            </g>
                        </g>
                    </g>
                    <g id="noun_95573_cc" transform="translate(165.078431, 36.891089)">
                        <g id="Group">
                            <path d="M38.2972157,6.18487129 C34.6031961,6.19449505 31.1238235,7.76557426 29.0440784,8.70389109 C28.1541373,9.10568317 27.5118039,9.396 27.0543725,9.48983168 C25.5076275,9.80982178 23.2912157,9.87638614 21.7050784,9.87638614 L21.7034706,9.87638614 C18.7747843,9.87638614 15.3155098,9.65584158 12.8900784,9.31339604 C11.5459216,9.12412871 10.3537059,9.02789109 9.348,9.02789109 C6.90166667,9.02789109 5.50766667,9.56441584 5.20458824,10.6214257 C5.10731373,10.9654752 5.19333333,11.139505 5.27935294,11.2541881 C6.23762745,12.5221188 11.9687843,12.5221188 14.4151176,12.5221188 L43.3514706,12.5221188 C43.4286471,11.4899703 43.4302549,9.19550495 42.1488039,7.68617822 C41.3022745,6.68931683 40.0071569,6.18487129 38.2972157,6.18487129 L38.2972157,6.18487129 Z" id="Shape"></path>
                            <path d="M52.8208627,9.60692079 L52.8208627,4.96185149 C51.8690196,5.08776238 50.6317843,5.47030693 50.0232157,6.13755446 C49.7217451,6.46716832 49.5955294,6.83928713 49.6373333,7.2779703 C49.753098,8.53627723 51.5788039,9.28211881 52.8208627,9.60692079 L52.8208627,9.60692079 Z" id="Shape"></path>
                            <path d="M53.3635098,11.0352475 C53.3972745,11.0400594 53.4302353,11.0424653 53.464,11.0424653 C53.6151373,11.0424653 53.7646667,10.9887327 53.8812353,10.8884851 C54.0243333,10.7665842 54.1071373,10.5885446 54.1071373,10.4008812 L54.1071373,4.2729505 C54.1071373,3.91847525 53.8201373,3.63136634 53.464,3.63136634 C52.6592745,3.63136634 50.3021765,3.92649505 49.0729804,5.2730198 C48.5295294,5.86728713 48.2819216,6.60109901 48.3550784,7.39586139 C48.6211765,10.2557228 53.1697647,11.0047723 53.3635098,11.0352475 L53.3635098,11.0352475 Z M50.0232157,6.13755446 C50.6325882,5.47030693 51.8698235,5.08776238 52.8208627,4.96185149 L52.8208627,9.60692079 C51.5788039,9.28131683 49.753098,8.53627723 49.6365294,7.2779703 C49.5947255,6.84008911 49.7217451,6.46716832 50.0232157,6.13755446 L50.0232157,6.13755446 Z" id="Shape" fill="#FFFFFF"></path>
                            <path d="M28.5126863,7.53540594 C27.7602157,7.87544554 27.1106471,8.16816832 26.793098,8.23393069 C25.6523333,8.46891089 23.8933529,8.5940198 21.7042745,8.5940198 C18.829451,8.5940198 15.4401176,8.37748515 13.068549,8.04305941 C11.6657059,7.8449703 10.4131961,7.74472277 9.34719608,7.74472277 C6.25692157,7.74472277 4.4464902,8.5940198 3.96654902,10.2685545 C3.73019608,11.097 3.99066667,11.6816436 4.25194118,12.026495 C5.37582353,13.5133663 8.82866667,13.8044851 14.4143137,13.8044851 L43.9270784,13.8044851 C44.2414118,13.8044851 44.5099216,13.5783267 44.5613725,13.2695644 C44.5887059,13.1091683 45.2069216,9.30938614 43.1344118,6.86094059 C42.0330392,5.56093069 40.405902,4.90170297 38.2706863,4.90170297 C34.3242353,4.91132673 30.6856863,6.55378218 28.5126863,7.53540594 Z M43.3514706,12.5213168 L14.4151176,12.5213168 C11.9687843,12.5213168 6.23762745,12.5213168 5.27935294,11.2533861 C5.19413725,11.139505 5.10731373,10.9646733 5.20458824,10.6206238 C5.50766667,9.56361386 6.90166667,9.02708911 9.348,9.02708911 C10.3537059,9.02708911 11.5459216,9.12332673 12.8900784,9.31259406 C15.3155098,9.6550396 18.7747843,9.87558416 21.7034706,9.87558416 L21.7050784,9.87558416 C23.2920196,9.87558416 25.5076275,9.8090198 27.0543725,9.4890297 C27.511,9.39519802 28.1533333,9.10488119 29.0440784,8.70308911 C31.1238235,7.76477228 34.6031961,6.19369307 38.2972157,6.18406931 C40.0071569,6.18406931 41.3022745,6.68851485 42.1488039,7.68457426 C43.429451,9.19470297 43.4286471,11.4891683 43.3514706,12.5213168 L43.3514706,12.5213168 Z" id="Shape" fill="#FFFFFF"></path>
                            <path d="M51.7090392,16.1783465 L43.0122157,0.618326733 C42.8723333,0.368910891 42.5861373,0.240594059 42.3055686,0.305554455 L37.9499216,1.30883168 C37.6026275,1.38822772 37.3879804,1.73227723 37.4667647,2.07793069 C37.5463529,2.42278218 37.8912353,2.63851485 38.2385294,2.55911881 L42.1230784,1.66491089 L55.4022549,25.4227723 C55.5196275,25.6336931 55.739902,25.7523861 55.9641961,25.7515842 C56.0711176,25.7515842 56.1780392,25.7259208 56.2777255,25.6705842 C56.5880392,25.4981584 56.6989804,25.1075941 56.5269412,24.7980297 L52.3449412,17.3155545 C56.3838431,15.4212772 61.274902,16.9418317 63.4929216,20.8867723 C65.8178627,25.027396 64.3338235,30.2819703 60.1847843,32.602901 C56.0357451,34.9230297 50.7668431,33.4433762 48.441902,29.3027525 C46.7014118,26.2079109 47.0856863,22.3712376 49.2635098,19.6797921 C49.4090196,19.5057624 49.7772157,19.0815149 49.7772157,19.0815149 C49.9508627,18.830495 49.9323725,18.4864455 49.7048627,18.265099 C49.4516275,18.0180891 49.046451,18.0060594 48.7980392,18.2610891 C45.8299608,21.3615446 45.1852157,26.1317228 47.3196275,29.929099 C49.9918627,34.6864455 56.0453922,36.3882475 60.8142549,33.7216634 C65.5807059,31.0558812 67.2850196,25.0153663 64.6127843,20.2588218 C62.0506863,15.6963564 56.3766078,13.9576634 51.7090392,16.1783465 Z" id="Shape" fill="#FFFFFF"></path>
                            <path d="M22.8185098,16.7325149 C21.73,16.7325149 21.1632353,17.210495 20.8802549,17.6130891 C20.1800392,18.6011287 20.2732941,20.3005248 21.1744902,22.9462574 C21.1744902,22.9462574 21.402,23.5108515 22.0057451,23.329604 C22.5982353,23.1515644 22.3876078,22.5155941 22.3876078,22.5155941 C21.4301373,19.7006436 21.6841765,18.7021782 21.9301765,18.3541188 C22.0338824,18.2089604 22.2364706,18.0164851 22.8096667,18.0164851 C25.4352745,18.022901 39.2587059,18.0180891 42.8610784,18.0164851 L39.3326667,30.0630297 L26.0374118,30.0630297 C25.5614902,29.5457525 24.4536863,27.1967525 23.7719608,25.7515842 L37.4836471,25.7515842 C37.7658235,25.7515842 38.0142353,25.5679307 38.0986471,25.3000693 L39.2731765,21.507505 C39.3784902,21.1690693 39.1887647,20.8097822 38.8495098,20.7055248 C38.5086471,20.6004653 38.1492941,20.7905347 38.0439804,21.1289703 L37.0101373,24.4700198 L19.8383725,24.4700198 C19.5047451,19.316495 15.2069804,15.2223861 9.95898039,15.2223861 C4.49311765,15.2223861 0.0450196078,19.6589406 0.0450196078,25.1124059 C0.0450196078,30.5650693 4.49311765,35.0016238 9.95898039,35.0016238 C14.3242745,35.0016238 18.1806863,32.1080792 19.4396275,28.0083564 C19.5409216,27.6691188 19.3327059,27.3234653 18.9926471,27.2224158 C18.6871569,27.1325941 18.378451,27.2849703 18.2433922,27.5600495 C18.2433922,27.5600495 18.0528627,28.0877525 17.9708627,28.2986733 C16.6813725,31.509 13.5155294,33.7192574 9.95817647,33.7192574 C5.20056863,33.7192574 1.33129412,29.8585248 1.33129412,25.1132079 C1.33129412,20.3678911 5.20056863,16.5063564 9.95817647,16.5063564 C14.4971176,16.5063564 18.2200784,20.0254455 18.5512941,24.4716238 L9.95898039,24.4716238 C9.60445098,24.4716238 9.31503922,24.7587327 9.31503922,25.1132079 C9.31503922,25.4676832 9.60364706,25.7547921 9.95898039,25.7547921 L22.3506275,25.7547921 L22.601451,26.284099 C24.354,30.0004752 24.9649804,31.1128218 25.645098,31.3213366 C25.7061961,31.3397822 25.7705098,31.3494059 25.8348235,31.3494059 L39.8142157,31.3494059 C40.0988039,31.3494059 40.3504314,31.1617426 40.4316275,30.8882673 L44.3362745,17.5577525 C44.392549,17.3636733 44.3547647,17.1551584 44.2325686,16.9931584 C44.1111765,16.8271485 43.921451,16.7325149 43.7188627,16.7325149 C43.7188627,16.7325149 25.8348235,16.7397327 22.8185098,16.7325149 Z" id="Shape" fill="#FFFFFF"></path>
                        </g>
                    </g>
                </g>
            </g>
        </g>
    </g>
</svg>